<svg width="514" height="516" viewBox="0 0 514 516" fill="none" xmlns="http://www.w3.org/2000/svg">
<path d="M395.74 71.5652L393.854 69.9601L391.935 68.3877L389.984 66.847L388.002 65.341L385.989 63.8678L383.948 62.4306L381.879 61.0292L379.784 59.6639L377.664 58.3356L375.518 57.0465L373.351 55.7966L371.162 54.5849L368.952 53.4146L366.724 52.2847L364.477 51.1971L362.214 50.1511L359.935 49.1475L357.642 48.1886L355.336 47.2722L353.019 46.4015L350.691 45.5756L348.355 44.7943L346.01 44.0587L343.66 43.3701L341.305 42.7282L338.946 42.1344L336.585 41.5874L334.222 41.0883L331.861 40.6372L329.501 40.2351L327.144 39.881L324.791 39.5759L322.444 39.3198L320.103 39.1138L317.773 38.9569L315.45 38.8501L313.14 38.7935L310.842 38.7858L308.557 38.8283L306.289 38.921L304.035 39.0637L301.8 39.2555L299.584 39.4985L297.388 39.7905L295.214 40.1327L293.062 40.5239L290.935 40.9641L288.833 41.4534L286.757 41.9927L284.711 42.5801L282.693 43.2164L280.704 43.9007L278.748 44.633L276.825 45.4121L274.934 46.2381L273.08 47.1109L271.261 48.0306L269.481 48.9949L267.737 50.0062L266.034 51.0609L264.371 52.1593L262.751 53.3024L261.172 54.488L259.637 55.716L258.146 56.9855L256.701 58.2963L255.303 59.6464L253.952 61.0368L252.65 62.4665L251.397 63.9332L250.192 65.4369L249.04 66.9777L247.938 68.5534L246.889 70.1639L245.893 71.8082L244.951 73.4852L244.063 75.1938L243.229 76.9329L242.453 78.7025L241.731 80.4994L241.066 82.3246L240.458 84.1771L239.908 86.0545L239.417 87.9571L238.983 89.8815L238.609 91.8298L238.293 93.7977L238.037 95.7853L237.84 97.7925L237.704 99.8171L237.628 101.857L237.611 103.912L237.655 105.981L237.759 108.063L237.924 110.155L238.148 112.258L238.434 114.368L238.779 116.487L239.185 118.611L239.651 120.74L240.176 122.871L240.76 125.005L241.404 127.139L242.106 129.274L242.867 131.405L243.686 133.534L244.563 135.657L245.496 137.775L246.486 139.885L247.533 141.986L248.634 144.077L249.79 146.157L251.001 148.223L252.265 150.276L253.581 152.314L254.95 154.334L256.369 156.336L257.839 158.319L259.357 160.282L260.924 162.222L262.538 164.139L264.198 166.032L265.904 167.899L267.654 169.74L269.448 171.552L271.283 173.335L273.158 175.088L275.074 176.809L277.029 178.498L279.02 180.152L281.047 181.772L283.109 183.356L285.205 184.903L287.332 186.412L289.489 187.883L291.676 189.314L293.891 190.703L296.133 192.052L298.399 193.357L300.689 194.619L303.001 195.837L305.334 197.011L307.686 198.139L310.054 199.22L312.439 200.254L314.839 201.24L317.251 202.178L319.675 203.067L322.108 203.906L324.55 204.697L326.999 205.435L329.453 206.124L331.91 206.761L334.369 207.345L336.829 207.878L339.287 208.359L341.742 208.787L344.194 209.162L346.639 209.484L349.077 209.754L351.505 209.968L353.924 210.131L356.33 210.239L358.723 210.294L361.101 210.295L363.462 210.243L365.805 210.137L368.128 209.979L370.431 209.768L372.711 209.503L374.967 209.185L377.198 208.815L379.403 208.394L381.579 207.92L383.727 207.394L385.843 206.819L387.929 206.193L389.98 205.516L391.997 204.789L393.98 204.013L395.925 203.189L397.832 202.317L399.699 201.398L401.528 200.432L403.315 199.419L405.059 198.362L406.76 197.259L408.418 196.113L410.029 194.923L411.595 193.692L413.113 192.419L414.584 191.105L416.006 189.752L417.379 188.359L418.701 186.928L419.973 185.462L421.193 183.958L422.36 182.418L423.475 180.846L424.536 179.24L425.543 177.602L426.495 175.933L427.392 174.233L428.233 172.504L429.019 170.749L429.749 168.966L430.421 167.157L431.038 165.325L431.596 163.468L432.097 161.589L432.54 159.69L432.925 157.77L433.252 155.831L433.523 153.875L433.734 151.902L433.887 149.915L433.981 147.913L434.017 145.898L433.995 143.872L433.916 141.836L433.779 139.789L433.582 137.735L433.331 135.675L433.02 133.609L432.653 131.537L432.229 129.464L431.749 127.388L431.211 125.311L430.62 123.235L429.972 121.16L429.27 119.088L428.513 117.021L427.703 114.958L426.839 112.902L425.922 110.853L424.953 108.813L423.932 106.783L422.861 104.765L421.74 102.758L420.569 100.765L419.348 98.7851L418.08 96.8226L416.765 94.8754L415.402 92.9467L413.994 91.0365L412.541 89.1459L411.044 87.2772L409.504 85.4291L407.922 83.605L406.297 81.8049L404.633 80.0298L402.929 78.2809L401.187 76.5592L399.407 74.8647L397.592 73.1997L395.74 71.5652Z" fill="#0E0C15"/>
<path d="M372.498 85.8511L373.565 86.6923L374.659 87.5052L375.726 88.3279L376.716 89.1986L377.594 90.1455L378.399 91.1469L379.189 92.1679L380.022 93.1759L380.932 94.1457L381.877 95.0959L382.793 96.0504L383.616 97.0355L384.304 98.0707L384.904 99.1418L385.482 100.23L386.109 101.313L386.827 102.379L387.587 103.431L388.316 104.482L388.942 105.546L389.414 106.63L389.784 107.733L390.131 108.846L390.527 109.965L391.026 111.086L391.572 112.201L392.087 113.312L392.489 114.413L392.726 115.506L392.854 116.598L392.952 117.696L393.103 118.809L393.363 119.941L393.673 121.08L393.951 122.208L394.115 123.307L394.107 124.368L393.985 125.406L393.831 126.447L393.731 127.51L393.739 128.613L393.8 129.732L393.83 130.835L393.747 131.891L393.494 132.878L393.125 133.824L392.724 134.765L392.373 135.739L392.128 136.77L391.935 137.827L391.715 138.863L391.387 139.834L390.896 140.71L390.293 141.527L389.659 142.332L389.069 143.179L388.579 144.098L388.139 145.052L387.674 145.982L387.111 146.831L386.4 147.561L385.586 148.214L384.74 148.851L383.934 149.537L383.215 150.309L382.541 151.122L381.848 151.91L381.071 152.603L380.165 153.158L379.17 153.621L378.145 154.064L377.153 154.559L376.232 155.154L375.349 155.796L374.454 156.409L373.49 156.918L372.424 157.274L371.286 157.528L370.121 157.758L368.979 158.044L367.891 158.435L366.833 158.878L365.767 159.294L364.654 159.599L363.47 159.74L362.232 159.773L360.972 159.78L359.725 159.842L358.511 160.015L357.318 160.243L356.123 160.442L354.905 160.53L353.647 160.451L352.357 160.26L351.054 160.04L349.75 159.877L348.457 159.822L347.176 159.824L345.898 159.8L344.621 159.666L343.339 159.369L342.051 158.96L340.754 158.522L339.445 158.136L338.125 157.857L336.805 157.634L335.495 157.387L334.21 157.036L332.956 156.53L331.719 155.919L330.48 155.278L329.218 154.687L327.924 154.194L326.616 153.753L325.326 153.292L324.084 152.738L322.907 152.044L321.772 151.253L320.64 150.436L319.478 149.66L318.258 148.972L317.016 148.333L315.797 147.677L314.646 146.942L313.595 146.087L312.606 145.149L311.628 144.185L310.609 143.257L309.514 142.403L308.386 141.589L307.285 140.764L306.273 139.878L305.388 138.896L304.585 137.847L303.8 136.777L302.965 135.732L302.038 134.744L301.069 133.791L300.13 132.832L299.295 131.83L298.611 130.76L298.027 129.64L297.464 128.506L296.846 127.387L296.123 126.306L295.35 125.25L294.609 124.195L293.985 123.118L293.528 122.002L293.184 120.858L292.866 119.703L292.49 118.553L291.997 117.423L291.45 116.307L290.937 115.199L290.545 114.09L290.334 112.972L290.242 111.847L290.181 110.716L290.059 109.582L289.817 108.446L289.515 107.316L289.246 106.198L289.102 105.1L289.143 104.025L289.307 102.962L289.503 101.9L289.638 100.824L289.654 99.728L289.608 98.6286L289.593 97.5454L289.699 96.5004L289.989 95.5088L290.401 94.5488L290.846 93.5954L291.234 92.6201L291.503 91.6067L291.713 90.5792L291.951 89.5723L292.303 88.6232L292.828 87.7515L293.471 86.931L294.145 86.1214L294.767 85.2834L295.28 84.3899L295.735 83.4745L296.214 82.5843L296.796 81.7649L297.536 81.0468L298.384 80.3952L299.261 79.7599L300.093 79.0886L300.826 78.3498L301.508 77.5816L302.209 76.8396L302.997 76.1814L303.922 75.6431L304.939 75.1843L305.986 74.7452L306.994 74.2669L307.92 73.7089L308.799 73.1162L309.693 72.5506L310.656 72.0777L311.729 71.7377L312.879 71.4871L314.052 71.2594L315.199 70.9891L316.28 70.6339L317.324 70.2373L318.375 69.8701L319.476 69.5987L320.657 69.469L321.895 69.4342L323.151 69.4254L324.39 69.3721L325.585 69.2304L326.754 69.0463L327.922 68.8883L329.118 68.8283L330.362 68.9122L331.641 69.0931L332.934 69.3012L334.22 69.4669L335.484 69.5431L336.732 69.5769L337.973 69.6347L339.219 69.7883L340.479 70.0814L341.752 70.4694L343.033 70.8856L344.318 71.2626L345.604 71.5547L346.883 71.8031L348.15 72.0755L349.4 72.4351L350.63 72.9255L351.85 73.5063L353.071 74.1143L354.308 74.6875L355.567 75.1832L356.831 75.6388L358.076 76.1138L359.283 76.6663L360.437 77.3364L361.559 78.0872L362.675 78.8642L363.819 79.6117L365.003 80.2927L366.205 80.9389L367.384 81.5992L368.503 82.3249L369.538 83.1487L370.52 84.0412L371.492 84.9565L372.498 85.8511Z" fill="#0E0C15"/>
<path d="M412.832 63.4289L410.135 61.1384L407.391 58.8926L404.602 56.6948L401.767 54.5438L398.893 52.4407L395.976 50.3888L393.021 48.3871L390.029 46.4388L386.999 44.5428L383.936 42.7012L380.84 40.9153L377.714 39.1849L374.558 37.5122L371.376 35.8974L368.167 34.3424L364.935 32.8463L361.68 31.4112L358.404 30.0382L355.11 28.7263L351.8 27.4786L348.474 26.2941L345.135 25.175L341.785 24.1202L338.425 23.1308L335.058 22.2078L331.684 21.3525L328.308 20.5646L324.927 19.8444L321.547 19.1917L318.169 18.6087L314.795 18.0944L311.425 17.6498L308.063 17.276L304.71 16.972L301.368 16.7377L298.038 16.5754L294.723 16.4827L291.424 16.461L288.145 16.5111L284.885 16.632L281.648 16.8249L278.435 17.0886L275.247 17.4231L272.087 17.8296L268.958 18.3068L265.859 18.8538L262.792 19.4728L259.762 20.1615L256.768 20.9209L253.812 21.7502L250.897 22.6492L248.024 23.6179L245.194 24.6542L242.411 25.7591L239.674 26.9326L236.986 28.1727L234.349 29.4792L231.763 30.8522L229.232 32.2916L226.756 33.7943L224.337 35.3623L221.976 36.9925L219.674 38.6858L217.435 40.4402L215.259 42.2556L213.146 44.1298L211.101 46.064L209.121 48.0559L207.211 50.1034L205.369 52.2075L203.598 54.3662L201.901 56.5771L200.276 58.8414L198.726 61.1559L197.252 63.5205L195.854 65.933L194.534 68.3923L193.293 70.8975L192.132 73.4462L191.051 76.0385L190.052 78.6712L189.134 81.3441L188.3 84.0552L187.55 86.8034L186.884 89.5853L186.302 92.401L185.806 95.2494L185.396 98.1261L185.073 101.032L184.836 103.965L184.687 106.921L184.626 109.901L184.651 112.902L184.766 115.923L184.967 118.959L185.256 122.013L185.634 125.079L186.1 128.157L186.654 131.245L187.295 134.341L188.024 137.444L188.84 140.549L189.742 143.657L190.73 146.763L191.806 149.869L192.965 152.97L194.211 156.065L195.54 159.152L196.952 162.229L198.447 165.294L200.023 168.344L201.68 171.379L203.419 174.396L205.234 177.392L207.128 180.367L209.099 183.316L211.145 186.24L213.265 189.136L215.458 192.003L217.723 194.837L220.057 197.638L222.46 200.403L224.931 203.131L227.466 205.819L230.067 208.467L232.729 211.071L235.451 213.632L238.233 216.146L241.072 218.612L243.966 221.028L246.914 223.392L249.911 225.704L252.96 227.962L256.055 230.163L259.196 232.308L262.38 234.395L265.605 236.419L268.869 238.383L272.171 240.284L275.507 242.121L278.875 243.892L282.273 245.597L285.7 247.235L289.153 248.804L292.629 250.304L296.126 251.732L299.642 253.089L303.174 254.374L306.721 255.585L310.279 256.723L313.848 257.786L317.422 258.774L321.001 259.686L324.584 260.52L328.166 261.279L331.745 261.96L335.321 262.564L338.888 263.089L342.447 263.537L345.995 263.905L349.528 264.196L353.044 264.406L356.543 264.539L360.02 264.594L363.474 264.569L366.905 264.465L370.307 264.284L373.679 264.025L377.02 263.688L380.327 263.273L383.597 262.782L386.831 262.213L390.024 261.569L393.176 260.848L396.284 260.054L399.346 259.184L402.36 258.242L405.325 257.226L408.239 256.139L411.101 254.979L413.906 253.75L416.657 252.451L419.349 251.085L421.982 249.651L424.554 248.149L427.063 246.584L429.508 244.952L431.888 243.259L434.201 241.504L436.447 239.688L438.624 237.813L440.731 235.879L442.765 233.889L444.728 231.844L446.616 229.744L448.429 227.592L450.168 225.387L451.83 223.135L453.416 220.834L454.923 218.485L456.351 216.092L457.7 213.656L458.969 211.177L460.157 208.657L461.264 206.099L462.29 203.504L463.233 200.872L464.095 198.208L464.873 195.51L465.569 192.782L466.181 190.024L466.71 187.24L467.155 184.43L467.517 181.597L467.796 178.741L467.991 175.865L468.102 172.97L468.13 170.058L468.075 167.13L467.936 164.189L467.715 161.238L467.411 158.275L467.027 155.304L466.559 152.326L466.011 149.344L465.381 146.358L464.671 143.371L463.882 140.383L463.012 137.399L462.065 134.418L461.041 131.442L459.939 128.472L458.76 125.512L457.506 122.561L456.177 119.623L454.774 116.698L453.299 113.788L451.751 110.896L450.132 108.021L448.443 105.166L446.686 102.333L444.86 99.5231L442.967 96.7379L441.009 93.9788L438.985 91.247L436.898 88.5447L434.751 85.8717L432.541 83.2314L430.272 80.625L427.945 78.0533L425.559 75.5177L423.119 73.0191L420.625 70.5608L418.078 68.1417L415.48 65.7641L412.832 63.4289Z" fill="#0E0C15"/>
<path d="M423.304 63.1402L419.927 60.2732L416.491 57.4641L413 54.7138L409.453 52.0223L405.855 49.3929L402.206 46.8245L398.508 44.3216L394.764 41.8829L390.974 39.5118L387.141 37.2071L383.269 34.9733L379.358 32.8082L375.41 30.7149L371.427 28.6946L367.413 26.7474L363.368 24.8743L359.295 23.0774L355.197 21.3579L351.074 19.7158L346.93 18.1521L342.767 16.6669L338.587 15.2634L334.392 13.9395L330.184 12.6983L325.966 11.54L321.739 10.4656L317.507 9.47401L313.272 8.56847L309.035 7.74686L304.798 7.01135L300.566 6.3619L296.338 5.79964L292.119 5.32454L287.91 4.9377L283.713 4.63804L279.531 4.42665L275.366 4.30461L271.221 4.27082L267.097 4.32532L262.998 4.46915L258.923 4.70232L254.879 5.02489L250.865 5.43677L246.885 5.93695L242.939 6.52754L239.031 7.20639L235.163 7.97352L231.338 8.82892L227.557 9.77366L223.823 10.8056L220.138 11.9258L216.505 13.1331L212.923 14.4265L209.398 15.806L205.931 17.2716L202.522 18.8222L199.177 20.4568L195.895 22.1752L192.679 23.9764L189.531 25.8593L186.454 27.824L183.448 29.8682L180.515 31.992L177.659 34.1942L174.882 36.4738L172.183 38.8286L169.566 41.2596L167.033 43.7637L164.584 46.3407L162.222 48.9875L159.948 51.7052L157.764 54.4903L155.672 57.3431L153.673 60.2612L151.769 63.2426L149.961 66.2871L148.25 69.3916L146.637 72.5538L145.125 75.7749L143.713 79.0493L142.404 82.3782L141.199 85.7584L140.098 89.1887L139.103 92.6669L138.214 96.1898L137.433 99.7563L136.76 103.364L136.194 107.011L135.74 110.695L135.394 114.414L135.16 118.166L135.037 121.948L135.025 125.759L135.125 129.595L135.337 133.454L135.66 137.333L136.096 141.232L136.644 145.147L137.306 149.075L138.078 153.014L138.963 156.962L139.959 160.915L141.066 164.873L142.283 168.83L143.61 172.786L145.048 176.738L146.594 180.683L148.248 184.617L150.01 188.54L151.877 192.449L153.849 196.34L155.926 200.211L158.105 204.059L160.386 207.882L162.768 211.677L165.248 215.443L167.825 219.175L170.498 222.871L173.266 226.53L176.125 230.148L179.075 233.723L182.114 237.254L185.24 240.735L188.451 244.167L191.744 247.546L195.118 250.87L198.57 254.137L202.098 257.345L205.701 260.49L209.374 263.573L213.117 266.588L216.925 269.535L220.798 272.413L224.733 275.219L228.725 277.951L232.775 280.606L236.876 283.184L241.029 285.683L245.228 288.1L249.474 290.435L253.761 292.685L258.087 294.849L262.448 296.927L266.843 298.916L271.268 300.814L275.721 302.622L280.197 304.336L284.694 305.957L289.21 307.484L293.739 308.916L298.281 310.251L302.832 311.489L307.389 312.629L311.947 313.67L316.506 314.613L321.061 315.455L325.609 316.197L330.147 316.84L334.674 317.381L339.185 317.822L343.677 318.162L348.146 318.399L352.592 318.537L357.011 318.572L361.399 318.507L365.754 318.341L370.074 318.077L374.354 317.711L378.593 317.245L382.788 316.681L386.935 316.017L391.035 315.257L395.081 314.399L399.073 313.446L403.009 312.396L406.885 311.252L410.699 310.014L414.448 308.685L418.133 307.263L421.748 305.75L425.293 304.15L428.764 302.461L432.162 300.686L435.483 298.826L438.725 296.88L441.886 294.854L444.966 292.746L447.961 290.559L450.872 288.295L453.695 285.954L456.43 283.54L459.075 281.053L461.627 278.494L464.087 275.866L466.454 273.171L468.725 270.411L470.899 267.588L472.977 264.703L474.957 261.757L476.836 258.754L478.617 255.696L480.296 252.584L481.873 249.42L483.348 246.205L484.721 242.945L485.991 239.638L487.157 236.288L488.218 232.896L489.176 229.466L490.028 225.999L490.775 222.496L491.417 218.96L491.954 215.395L492.387 211.801L492.714 208.18L492.936 204.537L493.054 200.87L493.066 197.185L492.974 193.481L492.778 189.762L492.478 186.03L492.076 182.287L491.571 178.535L490.964 174.776L490.256 171.013L489.446 167.247L488.535 163.481L487.526 159.716L486.418 155.956L485.211 152.201L483.909 148.455L482.51 144.718L481.017 140.994L479.429 137.284L477.748 133.59L475.975 129.915L474.112 126.259L472.16 122.626L470.12 119.017L467.993 115.433L465.779 111.879L463.481 108.354L461.1 104.86L458.639 101.401L456.097 97.9757L453.476 94.588L450.779 91.2394L448.006 87.9323L445.16 84.6665L442.24 81.4455L439.25 78.2713L436.193 75.1428L433.066 72.0645L429.875 69.0374L426.62 66.0616L423.304 63.1402Z" fill="#0E0C15"/>
<path d="M428.33 67.3059L424.869 64.257L421.345 61.2658L420.687 60.7101L417.176 57.8388L413.607 55.0275L409.983 52.2771L406.304 49.59L402.574 46.9661L398.795 44.4065L394.968 41.9144L391.096 39.491L387.178 37.1362L383.221 34.8523L379.223 32.6402L375.189 30.5012L371.118 28.4363L367.015 26.4455L362.881 24.532L358.718 22.6949L354.53 20.9372L350.316 19.258L349.506 18.9486L345.182 17.3173L340.838 15.7678L336.476 14.3033L332.098 12.9216L327.706 11.626L323.304 10.4176L318.893 9.29521L317.423 8.93996L312.917 7.88517L308.408 6.92081L303.897 6.04579L299.386 5.26233L294.879 4.57041L292.951 4.28599L288.364 3.67468L283.784 3.15818L279.215 2.73758L272.388 2.24832L267.766 2.01294L263.161 1.87674L258.577 1.8375L256.068 1.82227L251.429 1.88219L246.815 2.04237L244.167 2.1862L239.507 2.451L234.878 2.81713L230.284 3.28458L227.438 3.60169L222.81 4.18031L218.22 4.86135L215.269 5.35058L210.654 6.14605L206.085 7.04721L203.044 7.71082L198.46 8.72966L193.926 9.85421L190.808 10.6954L186.27 11.942L181.788 13.2932L178.61 14.3142L174.133 15.7896L169.719 17.3718L166.497 18.5726L162.096 20.2801L157.764 22.0934L154.512 23.474L150.205 25.4147L146.982 26.9522L142.705 29.0204L138.506 31.1953L135.281 32.9083L131.123 35.2108L127.944 37.0763L123.833 39.5052L119.809 42.0408L116.653 44.0741L112.686 46.7362L109.595 48.9134L105.69 51.6996L101.88 54.5905L98.8358 56.9268L95.0983 59.9397L92.1365 62.41L88.4774 65.545L85.6051 68.1427L82.0299 71.3986L78.5614 74.7537L75.7664 77.4921L72.3907 80.9627L69.7003 83.8176L66.4214 87.4015L63.8411 90.3665L60.6648 94.0605L57.6071 97.8493L55.1325 100.931L52.1849 104.825L49.8323 108.002L47.0003 111.996L44.7752 115.262L42.0641 119.355L39.9709 122.701L37.3818 126.887L34.9224 131.157L32.9643 134.582L30.6335 138.938L28.817 142.428L26.6192 146.865L24.9476 150.41L22.8859 154.923L21.3637 158.518L19.4415 163.102L17.6577 167.757L16.288 171.385L14.647 176.103L13.4331 179.761L11.9359 184.535L10.8778 188.213L9.5266 193.036L8.31928 197.92L7.42142 201.595L6.36221 206.519L5.62344 210.195L4.71248 215.152L4.1328 218.821L3.37108 223.806L2.75541 228.838L2.33808 232.464L1.87172 237.513L1.61453 241.11L1.29636 246.169L1.12417 251.266L1.02614 254.792L1 259.888L1.05773 263.365L1.17651 268.454L1.44241 273.57L1.65052 276.948L2.05801 282.047L2.96465 290.428L3.65547 295.518L4.15454 298.702L4.98164 303.756L5.94926 308.821L6.58122 311.863L7.67967 316.881L8.91639 321.902L9.67152 324.79L11.0325 329.756L12.5308 334.717L13.4004 337.435L15.0153 342.33L16.7653 347.215L17.7351 349.751L19.5941 354.561L21.5827 359.354L23.701 364.128L24.7319 366.404L26.9471 371.09L29.2877 375.749L32.8194 382.381L35.3692 386.912L38.0389 391.407L40.8262 395.865L41.9028 397.579L44.761 401.927L47.7315 406.231L50.8119 410.487L51.8711 411.904L55.0094 416.042L58.2522 420.128L61.5975 424.16L65.0441 428.133L68.5877 432.046L69.4834 433.021L73.0619 436.806L76.7319 440.524L80.4912 444.175L84.3378 447.756L88.2693 451.263L92.2826 454.696L96.3753 458.051L96.8995 458.468L100.993 461.685L105.159 464.82L109.395 467.872L113.697 470.839L118.063 473.72L122.489 476.511L126.973 479.211L131.512 481.818L136.101 484.329L140.74 486.745L145.423 489.063L150.149 491.281L154.913 493.399L159.712 495.414L160.338 495.672L165.258 497.618L170.206 499.456L175.181 501.187L180.178 502.808L185.194 504.319L190.226 505.72L195.27 507.008L196.563 507.319L201.703 508.515L206.848 509.596L211.995 510.559L217.14 511.407L222.28 512.137L224.036 512.377L229.251 513.001L234.454 513.505L239.639 513.891L241.665 514.001L246.911 514.27L252.134 514.418L257.33 514.445L259.602 514.406L264.842 514.311L270.049 514.091L275.217 513.75L277.711 513.549L282.909 513.08L288.06 512.49L293.163 511.776L295.854 511.396L300.97 510.55L306.03 509.581L308.83 509.024L313.891 507.922L318.887 506.699L321.781 505.959L326.766 504.602L331.681 503.123L334.651 502.201L339.542 500.586L344.356 498.852L347.385 497.746L352.164 495.878L355.192 494.604L359.929 492.6L364.577 490.48L367.635 489.025L372.23 486.771L376.732 484.405L379.801 482.769L384.239 480.271L387.276 478.477L391.643 475.852L395.905 473.116L398.927 471.148L403.108 468.287L406.078 466.167L410.171 463.184L414.154 460.097L417.082 457.813L420.968 454.61L423.825 452.183L427.609 448.867L430.389 446.302L434.067 442.875L437.622 439.353L440.327 436.646L443.768 433.02L446.379 430.187L449.7 426.463L452.21 423.509L455.409 419.689L458.476 415.784L460.882 412.712L463.822 408.72L466.114 405.541L468.922 401.468L471.092 398.19L473.765 394.04L475.812 390.669L478.346 386.447L480.745 382.153L482.657 378.704L484.915 374.346L486.692 370.821L488.806 366.407L490.445 362.813L492.414 358.347L493.91 354.693L495.735 350.181L497.42 345.614L498.764 341.923L500.302 337.318L501.495 333.586L502.889 328.95L503.931 325.182L505.177 320.523L506.284 315.819L507.166 312.051L508.128 307.33L508.854 303.548L509.672 298.818L510.242 295.028L510.919 290.296L511.457 285.529L511.866 281.776L512.266 277.017L512.517 273.275L512.779 268.527L512.906 263.754L513 260.076L512.992 255.324L512.93 251.677L512.793 246.951L512.524 242.207L512.31 238.649L511.915 233.941L511.55 230.432L511.032 225.765L510.389 221.09L509.881 217.694L509.122 213.066L508.238 208.436L507.594 205.167L506.602 200.593L505.488 196.02L504.716 192.89L503.499 188.381L502.165 183.877L501.276 180.899L499.847 176.468L498.304 172.047L497.306 169.233L495.675 164.889L493.935 160.561L492.838 157.923L491.017 153.678L489.092 149.453L485.909 142.868L483.811 138.755L481.612 134.668L480.39 132.485L478.132 128.496L475.778 124.535L473.331 120.606L469.598 114.876L467.013 111.084L464.34 107.329L461.581 103.614L460.403 102.07L457.612 98.4627L454.74 94.8973L451.787 91.3755L448.757 87.8995L445.649 84.4714L444.631 83.3599L441.51 80.0462L438.319 76.7827L435.056 73.5704L431.726 70.4103L428.33 67.3059Z" fill="#0E0C15"/>
<path d="M218.22 4.86135L213.673 5.64598L209.169 6.53403L204.715 7.52457L200.309 8.61749L195.956 9.81284L191.659 11.1096L187.419 12.5087L183.239 14.0081L179.123 15.6066L175.07 17.3065L171.086 19.1045L167.173 21.0005L163.332 22.9946L159.566 25.0857L155.878 27.2726L152.27 29.5544L148.744 31.9298L145.302 34.3979L141.946 36.9576L138.68 39.6077L135.505 42.3471L132.424 45.1748L129.438 48.0885L126.551 51.0873L123.762 54.17L121.074 57.3354L118.49 60.5805L116.012 63.904L113.642 67.3059L111.381 70.782L109.231 74.3321L107.194 77.9542L105.269 81.6449L103.462 85.4031L101.77 89.2278L100.198 93.1147L98.7466 97.0637L97.4172 101.071L96.2099 105.136L95.1257 109.255L94.1667 113.425L93.3342 117.645L92.627 121.912L92.0495 126.224L91.5995 130.577L91.2791 134.971L91.0895 139.399L91.0296 143.863L91.0993 148.358L91.302 152.88L91.6343 157.428L92.0996 161.998L92.6968 166.589L93.4257 171.196L94.2866 175.816L95.2782 180.448L96.4005 185.087L97.6548 189.731L99.0386 194.378L100.552 199.023L102.195 203.663L103.968 208.295L105.868 212.917L107.893 217.525L110.044 222.117L112.32 226.688L114.717 231.237L117.237 235.759L119.878 240.251L122.638 244.713L125.514 249.137L128.507 253.524L131.611 257.868L134.828 262.169L138.154 266.421L141.588 270.624L145.127 274.772L148.77 278.864L152.513 282.896L156.355 286.866L160.292 290.772L164.322 294.61L168.442 298.378L172.65 302.072L176.943 305.69L181.318 309.23L185.773 312.689L190.304 316.065L194.906 319.356L199.579 322.56L204.318 325.673L209.12 328.693L213.982 331.619L218.902 334.449L223.874 337.18L228.895 339.811L233.963 342.34L239.075 344.766L244.225 347.087L249.411 349.3L254.628 351.405L259.874 353.4L265.145 355.284L270.437 357.056L275.747 358.715L281.07 360.26L286.403 361.688L291.743 363.001L297.086 364.198L302.427 365.276L307.765 366.236L313.093 367.078L318.411 367.8L323.713 368.405L328.996 368.889L334.257 369.254L339.491 369.499L344.697 369.623L349.868 369.63L355.005 369.517L360.101 369.284L365.154 368.935L370.161 368.467L375.119 367.882L380.024 367.18L384.873 366.363L389.662 365.43L394.39 364.383L399.054 363.224L403.65 361.952L408.174 360.569L412.627 359.078L417.001 357.477L421.298 355.769L425.514 353.956L429.646 352.038L433.693 350.019L437.651 347.899L441.518 345.679L445.293 343.361L448.971 340.949L452.553 338.441L456.037 335.843L459.419 333.153L462.699 330.376L465.875 327.513L468.945 324.567L471.907 321.539L474.761 318.43L477.503 315.243L480.134 311.982L482.652 308.648L485.056 305.243L487.345 301.77L489.519 298.231L491.574 294.628L493.513 290.964L495.331 287.24L497.031 283.461L498.611 279.628L500.07 275.743L501.409 271.809L502.627 267.829L503.723 263.805L504.696 259.739L505.548 255.634L506.277 251.492L506.884 247.317L507.37 243.111L507.734 238.875L507.976 234.614L508.096 230.328L508.095 226.022L507.973 221.696L507.73 217.353L507.368 212.998L506.886 208.631L506.287 204.255L505.569 199.874L504.733 195.489L503.78 191.102L502.714 186.716L501.53 182.335L500.235 177.957L498.826 173.59L497.306 169.233" fill="#0E0C15"/>
<path d="M131.125 35.2109L127.049 37.6191L123.061 40.1318L119.161 42.7481L115.353 45.4658L111.638 48.2847L108.02 51.2051L104.503 54.2223L101.086 57.3377L97.7721 60.5489L94.5652 63.8539L91.4662 67.2515L88.4772 70.7406L85.6016 74.318L82.8415 77.9825L80.1979 81.7332L77.6743 85.5666L75.2705 89.4829L72.9909 93.4776L70.8355 97.5497L68.8065 101.697L66.9061 105.917L65.1354 110.208L63.4977 114.567L61.9929 118.991L60.6221 123.479L59.3875 128.028L58.2902 132.634L57.3302 137.295L56.5107 142.009L55.8308 146.773L55.2936 151.584L54.8991 156.439L54.6474 161.335L54.5384 166.269L54.5744 171.237L54.7553 176.238L55.0811 181.267L55.5529 186.322L56.1697 191.4L56.9335 196.495L57.8423 201.608L58.896 206.731L60.0957 211.865L61.4393 217.005L62.9278 222.146L64.5601 227.286L66.3362 232.421L68.2552 237.549L70.3146 242.665L72.5158 247.767L74.8553 252.849L77.3332 257.911L79.9473 262.946L82.6965 267.952L85.5809 272.926L88.5971 277.864L91.744 282.763L95.0185 287.618L98.4194 292.428L101.944 297.189L105.592 301.896L109.36 306.547L113.244 311.139L117.244 315.666L121.357 320.129L125.578 324.521L129.906 328.842L134.339 333.087L138.872 337.254L143.503 341.338L148.229 345.338L153.047 349.251L157.952 353.074L162.943 356.803L168.014 360.438L173.164 363.975L178.388 367.41L183.683 370.743L189.044 373.969L194.469 377.089L199.953 380.097L205.492 382.995L211.084 385.779L216.723 388.447L222.406 390.997L228.128 393.428L233.887 395.738L239.676 397.925L245.494 399.988L251.336 401.927L257.196 403.739L263.073 405.423L268.959 406.978L274.854 408.405L280.751 409.7L286.647 410.865L292.539 411.898L298.421 412.798L304.29 413.568L310.142 414.204L315.973 414.706L321.778 415.077L327.555 415.313L333.297 415.417L339.004 415.387L344.67 415.226L350.292 414.933L355.865 414.509L361.388 413.954L366.855 413.269L372.263 412.455L377.609 411.511L382.889 410.441L388.1 409.245L393.239 407.923L398.304 406.478L403.289 404.911L408.192 403.222L413.011 401.413L417.743 399.487L422.384 397.444L426.933 395.286L431.386 393.015L435.741 390.634L439.996 388.145L444.147 385.547L448.194 382.844L452.132 380.038L455.961 377.131L459.678 374.126L463.283 371.024L466.771 367.829L470.143 364.541L473.396 361.164L476.528 357.701L479.537 354.152L482.424 350.523L485.186 346.813L487.822 343.027L490.331 339.166L492.714 335.235L494.966 331.233L497.088 327.167L499.079 323.036L500.939 318.844L502.668 314.594L504.264 310.289L505.727 305.932L507.057 301.525L508.253 297.07L509.315 292.572L510.243 288.031L511.036 283.453L511.697 278.838L512.223 274.189L512.616 269.511L512.876 264.806L513.002 260.076" fill="#0E0C15"/>
<path d="M66.4214 87.4015L63.2589 91.0825L60.2133 94.8561L57.2887 98.7222L54.486 102.679L51.8076 106.723L49.2556 110.853L46.8322 115.067L44.5396 119.363L42.3787 123.738L40.352 128.189L38.4614 132.715L36.7103 137.314L35.0975 141.981L33.6255 146.716L32.2971 151.513L31.1116 156.372L30.0709 161.29L29.1763 166.263L28.4299 171.289L27.8317 176.363L27.3838 181.485L27.0863 186.65L26.9392 191.855L26.9436 197.097L27.1005 202.373L27.4099 207.678L27.872 213.012L28.4887 218.368L29.2581 223.744L30.181 229.138L31.2576 234.544L32.4867 239.96L33.8673 245.382L35.4016 250.806L37.0873 256.229L38.9245 261.647L40.912 267.056L43.0489 272.453L45.3339 277.835L47.7649 283.196L50.3431 288.535L53.0651 293.846L55.9299 299.126L58.9362 304.372L62.0832 309.579L65.3674 314.746L68.7879 319.866L72.3413 324.937L76.0266 329.956L79.8404 334.919L83.7818 339.821L87.8473 344.66L92.0349 349.432L96.3413 354.134L100.763 358.763L105.298 363.313L109.944 367.785L114.696 372.172L119.552 376.473L124.508 380.684L129.562 384.801L134.71 388.824L139.946 392.747L145.27 396.57L150.675 400.288L156.161 403.899L161.72 407.401L167.352 410.79L173.05 414.066L178.811 417.223L184.631 420.264L190.506 423.183L196.432 425.979L202.404 428.65L208.418 431.194L214.471 433.61L220.558 435.896L226.673 438.05L232.815 440.072L238.977 441.959L245.155 443.711L251.345 445.328L257.544 446.807L263.745 448.147L269.946 449.348L276.141 450.41L282.328 451.332L288.5 452.115L294.654 452.756L300.787 453.257L306.892 453.617L312.967 453.836L319.008 453.915L325.01 453.853L330.97 453.651L336.882 453.31L342.745 452.831L348.551 452.214L354.302 451.459L359.989 450.566L365.611 449.54L371.163 448.378L376.644 447.084L382.048 445.657L387.373 444.1L392.615 442.416L397.772 440.602L402.839 438.663L407.813 436.599L412.694 434.413L417.476 432.106L422.157 429.682L426.736 427.141L431.208 424.484L435.572 421.715L439.826 418.836L443.966 415.849L447.99 412.757L451.898 409.56L455.685 406.264L459.353 402.868L462.897 399.378L466.315 395.793L469.607 392.118L472.77 388.354L475.804 384.504L478.707 380.572L481.478 376.561L484.116 372.472L486.619 368.308L488.987 364.074L491.218 359.77L493.312 355.4L495.268 350.966L497.085 346.473L498.764 341.923" fill="#0E0C15"/>
<path d="M22.8848 154.923L20.9605 159.511L19.1756 164.171L17.5302 168.901L16.0276 173.698L14.6677 178.56L13.4526 183.482L12.3826 188.464L11.4607 193.5L10.6871 198.59L10.0638 203.729L9.59085 208.916L9.26941 214.145L9.09942 219.414L9.08312 224.72L9.21933 230.06L9.50918 235.43L9.95371 240.827L10.5531 246.247L11.3071 251.687L12.2159 257.143L13.2794 262.612L14.4965 268.091L15.8673 273.574L17.3918 279.06L19.0699 284.544L20.8995 290.023L22.8815 295.492L25.0151 300.948L27.2969 306.388L29.7268 311.807L32.305 317.202L35.0281 322.569L37.8961 327.904L40.9068 333.204L44.0592 338.465L47.3501 343.684L50.7792 348.855L54.3414 353.977L58.0375 359.044L61.8644 364.054L65.8188 369.003L69.8996 373.887L74.1036 378.703L78.4274 383.448L82.8678 388.117L87.4237 392.709L92.0907 397.218L96.8656 401.643L101.745 405.979L106.727 410.224L111.807 414.375L116.982 418.427L122.248 422.381L127.601 426.23L133.038 429.975L138.555 433.61L144.147 437.135L149.813 440.544L155.546 443.838L161.343 447.015L167.202 450.07L173.114 453.004L179.079 455.812L185.091 458.493L191.146 461.046L197.24 463.469L203.369 465.759L209.529 467.917L215.712 469.939L221.919 471.826L228.142 473.578L234.378 475.189L240.622 476.662L246.87 477.995L253.119 479.187L259.361 480.238L265.596 481.148L271.816 481.915L278.02 482.54L284.2 483.023L290.356 483.363L296.481 483.561L302.57 483.616L308.622 483.53L314.631 483.302L320.594 482.932L326.505 482.424L332.364 481.775L338.163 480.987L343.9 480.062L349.572 479L355.174 477.801L360.704 476.468L366.157 475.003L371.531 473.405L376.822 471.677L382.026 469.82L387.141 467.836L392.163 465.728L397.091 463.494L401.92 461.139L406.648 458.665L411.272 456.074L415.791 453.366L420.199 450.546L424.497 447.614L428.68 444.573L432.748 441.426L436.698 438.174L440.528 434.821L444.235 431.369L447.82 427.82L451.278 424.178L454.609 420.443L457.81 416.621L460.881 412.712" fill="#0E0C15"/>
<path d="M398.927 471.148L394.637 473.9L390.244 476.541L385.748 479.071L381.153 481.486L376.461 483.787L371.674 485.968L366.795 488.03L361.828 489.971L356.776 491.786L351.64 493.478L346.425 495.043L341.135 496.48L335.77 497.788L330.337 498.966L324.836 500.012L319.275 500.925L313.653 501.705L307.976 502.349L302.247 502.858L296.47 503.232L290.648 503.468L284.787 503.567L278.89 503.529L272.958 503.354L266.999 503.039L261.016 502.586L255.012 501.995L248.991 501.266L242.959 500.4L236.919 499.396L230.874 498.255L224.83 496.978L218.791 495.565L212.76 494.016L206.742 492.335L200.742 490.52L194.762 488.572L188.808 486.496L182.884 484.289L176.994 481.955L171.142 479.493L165.332 476.906L159.569 474.198L153.856 471.368L148.197 468.418L142.596 465.352L137.058 462.171L131.586 458.877L126.185 455.472L120.857 451.959L115.607 448.34L110.438 444.617L105.353 440.796L100.357 436.876L95.4538 432.862L90.644 428.755L85.9344 424.56L81.3252 420.279L76.8215 415.913L72.4258 411.47L68.1401 406.949L63.9678 402.355L59.9121 397.69L55.9751 392.96L52.1602 388.165L48.4695 383.311L44.9041 378.401L41.4684 373.436L38.1623 368.423L34.9881 363.365L31.949 358.263L29.0472 353.123L26.2828 347.949L23.6588 342.742L21.1744 337.507L18.8338 332.249L16.6359 326.969L14.5819 321.673L12.6739 316.364L10.913 311.044L9.29921 305.719L7.83357 300.39L6.51725 295.063L5.34916 289.74L4.3292 284.424L3.45967 279.121L2.73939 273.832L2.16842 268.562L1.74775 263.313L1.47534 258.089L1.35329 252.895L1.37837 247.732L1.55162 242.603L1.87172 237.513" fill="#0E0C15"/>
<path d="M12.5308 334.717L14.1665 339.672L15.9372 344.616L17.843 349.547L19.8818 354.462L22.0535 359.355L24.3571 364.225L26.7914 369.069L29.3543 373.882L32.0447 378.661L34.8626 383.404L37.8036 388.106L40.8677 392.765L44.0528 397.377L47.3556 401.94L50.7761 406.449L54.3109 410.901L57.9581 415.293L61.7163 419.624L65.5814 423.889L69.551 428.084L73.6242 432.208L77.7954 436.259L82.0648 440.231L86.4278 444.122L90.8824 447.93L95.4252 451.653L100.053 455.288L104.763 458.83L109.551 462.28L114.414 465.635L119.349 468.89L124.354 472.046L129.423 475.098L134.553 478.044L139.743 480.884L144.985 483.616L150.28 486.236L155.621 488.745L161.005 491.139L166.429 493.416L171.889 495.577L177.38 497.618L182.9 499.54L188.445 501.34L194.01 503.018L199.591 504.573L205.185 506.003L210.787 507.308L216.396 508.486L222.004 509.539L227.611 510.463L233.21 511.261L238.8 511.931L244.375 512.472L249.932 512.886L255.468 513.171L260.978 513.328L266.459 513.356L271.907 513.256L277.319 513.029L282.691 512.676L288.02 512.195L293.301 511.59L298.533 510.858L303.71 510.003L308.83 509.024" fill="#0E0C15"/>
<path d="M218.22 4.86135L222.81 4.18031L227.438 3.60169L230.284 3.28458L234.878 2.81713L239.507 2.451L244.167 2.1862L246.815 2.04237L251.429 1.88219L256.068 1.82227L258.577 1.8375L263.161 1.87674L267.766 2.01294L272.388 2.24832L279.215 2.73758L283.784 3.15818L288.364 3.67468L292.951 4.28599L294.879 4.57041L299.386 5.26233L303.897 6.04579L308.408 6.92081L312.917 7.88517L317.423 8.93996L318.893 9.29521L323.304 10.4176L327.706 11.626L332.098 12.9216L336.476 14.3033L340.838 15.7678L345.182 17.3173L349.506 18.9486L350.316 19.258L354.53 20.9372L358.718 22.6949L362.881 24.532L367.015 26.4455L371.118 28.4363L375.189 30.5012L379.223 32.6402L383.221 34.8523L387.178 37.1362L391.096 39.491L394.968 41.9144L398.795 44.4065L402.574 46.9661L406.304 49.59L409.983 52.2771L413.607 55.0275L417.176 57.8388L420.687 60.7101L421.345 61.2658L424.869 64.257L428.33 67.3059L431.726 70.4103L435.056 73.5704L438.319 76.7827L441.51 80.0462L444.631 83.3599L445.649 84.4714L448.757 87.8995L451.787 91.3755L454.74 94.8973L457.612 98.4627L460.403 102.07L461.581 103.614L464.34 107.329L467.013 111.084L469.598 114.876L473.331 120.606L475.778 124.535L478.132 128.496L480.39 132.485L481.612 134.668L483.811 138.755L485.909 142.868L489.092 149.453L491.017 153.678L492.838 157.923L493.935 160.561L495.675 164.889L497.306 169.233M218.22 4.86135L215.269 5.35058L210.654 6.14605L206.085 7.04721L203.044 7.71082L198.46 8.72966L193.926 9.85421L190.808 10.6954L186.27 11.942L181.788 13.2932L178.61 14.3142L174.133 15.7896L169.719 17.3718L166.497 18.5726L162.096 20.2801L157.764 22.0934L154.512 23.474L150.205 25.4147L146.982 26.9522L142.705 29.0204L138.506 31.1953L135.281 32.9083L131.123 35.2108L127.944 37.0763L123.833 39.5052L119.809 42.0408L116.653 44.0741L112.686 46.7362L109.595 48.9134L105.69 51.6996L101.88 54.5905L98.8358 56.9268L95.0983 59.9397L92.1365 62.41L88.4774 65.545L85.6051 68.1427L82.0299 71.3986L78.5614 74.7537L75.7664 77.4921L72.3907 80.9627L69.7003 83.8176L66.4214 87.4015M218.22 4.86135L213.673 5.64598L209.169 6.53403L204.715 7.52457L200.309 8.61749L195.956 9.81284L191.659 11.1096L187.419 12.5087L183.239 14.0081L179.123 15.6066L175.07 17.3065L171.086 19.1045L167.173 21.0005L163.332 22.9946L159.566 25.0857L155.878 27.2726L152.27 29.5544L148.744 31.9298L145.302 34.3979L141.946 36.9576L138.68 39.6077L135.505 42.3471L132.424 45.1748L129.438 48.0885L126.551 51.0873L123.762 54.17L121.074 57.3354L118.49 60.5805L116.012 63.904L113.642 67.3059L111.381 70.782L109.231 74.3321L107.194 77.9542L105.269 81.6449L103.462 85.4031L101.77 89.2278L100.198 93.1147L98.7466 97.0637L97.4172 101.071L96.2099 105.136L95.1257 109.255L94.1667 113.425L93.3342 117.645L92.627 121.912L92.0495 126.224L91.5995 130.577L91.2791 134.971L91.0895 139.399L91.0296 143.863L91.0993 148.358L91.302 152.88L91.6343 157.428L92.0996 161.998L92.6968 166.589L93.4257 171.196L94.2866 175.816L95.2782 180.448L96.4005 185.087L97.6548 189.731L99.0386 194.378L100.552 199.023L102.195 203.663L103.968 208.295L105.868 212.917L107.893 217.525L110.044 222.117L112.32 226.688L114.717 231.237L117.237 235.759L119.878 240.251L122.638 244.713L125.514 249.137L128.507 253.524L131.611 257.868L134.828 262.169L138.154 266.421L141.588 270.624L145.127 274.772L148.77 278.864L152.513 282.896L156.355 286.866L160.292 290.772L164.322 294.61L168.442 298.378L172.65 302.072L176.943 305.69L181.318 309.23L185.773 312.689L190.304 316.065L194.906 319.356L199.579 322.56L204.318 325.673L209.12 328.693L213.982 331.619L218.902 334.449L223.874 337.18L228.895 339.811L233.963 342.34L239.075 344.766L244.225 347.087L249.411 349.3L254.628 351.405L259.874 353.4L265.145 355.284L270.437 357.056L275.747 358.715L281.07 360.26L286.403 361.688L291.743 363.001L297.086 364.198L302.427 365.276L307.765 366.236L313.093 367.078L318.411 367.8L323.713 368.405L328.996 368.889L334.257 369.254L339.491 369.499L344.697 369.623L349.868 369.63L355.005 369.517L360.101 369.284L365.154 368.935L370.161 368.467L375.119 367.882L380.024 367.18L384.873 366.363L389.662 365.43L394.39 364.383L399.054 363.224L403.65 361.952L408.174 360.569L412.627 359.078L417.001 357.477L421.298 355.769L425.514 353.956L429.646 352.038L433.693 350.019L437.651 347.899L441.518 345.679L445.293 343.361L448.971 340.949L452.553 338.441L456.037 335.843L459.419 333.153L462.699 330.376L465.875 327.513L468.945 324.567L471.907 321.539L474.761 318.43L477.503 315.243L480.134 311.982L482.652 308.648L485.056 305.243L487.345 301.77L489.519 298.231L491.574 294.628L493.513 290.964L495.331 287.24L497.031 283.461L498.611 279.628L500.07 275.743L501.409 271.809L502.627 267.829L503.723 263.805L504.696 259.739L505.548 255.634L506.277 251.492L506.884 247.317L507.37 243.111L507.734 238.875L507.976 234.614L508.096 230.328L508.095 226.022L507.973 221.696L507.73 217.353L507.368 212.998L506.886 208.631L506.287 204.255L505.569 199.874L504.733 195.489L503.78 191.102L502.714 186.716L501.53 182.335L500.235 177.957L498.826 173.59L497.306 169.233M66.4214 87.4015L63.8411 90.3665L60.6648 94.0605L57.6071 97.8493L55.1325 100.931L52.1849 104.825L49.8323 108.002L47.0003 111.996L44.7752 115.262L42.0641 119.355L39.9709 122.701L37.3818 126.887L34.9224 131.157L32.9643 134.582L30.6335 138.938L28.817 142.428L26.6192 146.865L24.9476 150.41L22.8859 154.923L21.3637 158.518L19.4415 163.102L17.6577 167.757L16.288 171.385L14.647 176.103L13.4331 179.761L11.9359 184.535L10.8778 188.213L9.5266 193.036L8.31928 197.92L7.42142 201.595L6.36221 206.519L5.62344 210.195L4.71248 215.152L4.1328 218.821L3.37108 223.806L2.75541 228.838L2.33808 232.464L1.87172 237.513M66.4214 87.4015L63.2589 91.0825L60.2133 94.8561L57.2887 98.7222L54.486 102.679L51.8076 106.723L49.2556 110.853L46.8322 115.067L44.5396 119.363L42.3787 123.738L40.352 128.189L38.4614 132.715L36.7103 137.314L35.0975 141.981L33.6255 146.716L32.2971 151.513L31.1116 156.372L30.0709 161.29L29.1763 166.263L28.4299 171.289L27.8317 176.363L27.3838 181.485L27.0863 186.65L26.9392 191.855L26.9436 197.097L27.1005 202.373L27.4099 207.678L27.872 213.012L28.4887 218.368L29.2581 223.744L30.181 229.138L31.2576 234.544L32.4867 239.96L33.8673 245.382L35.4016 250.806L37.0873 256.229L38.9245 261.647L40.912 267.056L43.0489 272.453L45.3339 277.835L47.7649 283.196L50.3431 288.535L53.0651 293.846L55.9299 299.126L58.9362 304.372L62.0832 309.579L65.3674 314.746L68.7879 319.866L72.3413 324.937L76.0266 329.956L79.8404 334.919L83.7818 339.821L87.8473 344.66L92.0349 349.432L96.3413 354.134L100.763 358.763L105.298 363.313L109.944 367.785L114.696 372.172L119.552 376.473L124.508 380.684L129.562 384.801L134.71 388.824L139.946 392.747L145.27 396.57L150.675 400.288L156.161 403.899L161.72 407.401L167.352 410.79L173.05 414.066L178.811 417.223L184.631 420.264L190.506 423.183L196.432 425.979L202.404 428.65L208.418 431.194L214.471 433.61L220.558 435.896L226.673 438.05L232.815 440.072L238.977 441.959L245.155 443.711L251.345 445.328L257.544 446.807L263.745 448.147L269.946 449.348L276.141 450.41L282.328 451.332L288.5 452.115L294.654 452.756L300.787 453.257L306.892 453.617L312.967 453.836L319.008 453.915L325.01 453.853L330.97 453.651L336.882 453.31L342.745 452.831L348.551 452.214L354.302 451.459L359.989 450.566L365.611 449.54L371.163 448.378L376.644 447.084L382.048 445.657L387.373 444.1L392.615 442.416L397.772 440.602L402.839 438.663L407.813 436.599L412.694 434.413L417.476 432.106L422.157 429.682L426.736 427.141L431.208 424.484L435.572 421.715L439.826 418.836L443.966 415.849L447.99 412.757L451.898 409.56L455.685 406.264L459.353 402.868L462.897 399.378L466.315 395.793L469.607 392.118L472.77 388.354L475.804 384.504L478.707 380.572L481.478 376.561L484.116 372.472L486.619 368.308L488.987 364.074L491.218 359.77L493.312 355.4L495.268 350.966L497.085 346.473L498.764 341.923M1.87172 237.513L1.61453 241.11L1.29636 246.169L1.12417 251.266L1.02614 254.792L1 259.888L1.05773 263.365L1.17651 268.454L1.44241 273.57L1.65052 276.948L2.05801 282.047L2.96465 290.428L3.65547 295.518L4.15454 298.702L4.98164 303.756L5.94926 308.821L6.58122 311.863L7.67967 316.881L8.91639 321.902L9.67152 324.79L11.0325 329.756L12.5308 334.717M1.87172 237.513L1.55162 242.603L1.37837 247.732L1.35329 252.895L1.47534 258.089L1.74775 263.313L2.16842 268.562L2.73939 273.832L3.45967 279.121L4.3292 284.424L5.34916 289.74L6.51725 295.063L7.83357 300.39L9.29921 305.719L10.913 311.044L12.6739 316.364L14.5819 321.673L16.6359 326.969L18.8338 332.249L21.1744 337.507L23.6588 342.742L26.2828 347.949L29.0472 353.123L31.949 358.263L34.9881 363.365L38.1623 368.423L41.4684 373.436L44.9041 378.401L48.4695 383.311L52.1602 388.165L55.9751 392.96L59.9121 397.69L63.9678 402.355L68.1401 406.949L72.4258 411.47L76.8215 415.913L81.3252 420.279L85.9344 424.56L90.644 428.755L95.4538 432.862L100.357 436.876L105.353 440.796L110.438 444.617L115.607 448.34L120.857 451.959L126.185 455.472L131.586 458.877L137.058 462.171L142.596 465.352L148.197 468.418L153.856 471.368L159.569 474.198L165.332 476.906L171.142 479.493L176.994 481.955L182.884 484.289L188.808 486.496L194.762 488.572L200.742 490.52L206.742 492.335L212.76 494.016L218.791 495.565L224.83 496.978L230.874 498.255L236.919 499.396L242.959 500.4L248.991 501.266L255.012 501.995L261.016 502.586L266.999 503.039L272.958 503.354L278.89 503.529L284.787 503.567L290.648 503.468L296.47 503.232L302.247 502.858L307.976 502.349L313.653 501.705L319.275 500.925L324.836 500.012L330.337 498.966L335.77 497.788L341.135 496.48L346.425 495.043L351.64 493.478L356.776 491.786L361.828 489.971L366.795 488.03L371.674 485.968L376.461 483.787L381.153 481.486L385.748 479.071L390.244 476.541L394.637 473.9L398.927 471.148M12.5308 334.717L13.4004 337.435L15.0153 342.33L16.7653 347.215L17.7351 349.751L19.5941 354.561L21.5827 359.354L23.701 364.128L24.7319 366.404L26.9471 371.09L29.2877 375.749L32.8194 382.381L35.3692 386.912L38.0389 391.407L40.8262 395.865L41.9028 397.579L44.761 401.927L47.7315 406.231L50.8119 410.487L51.8711 411.904L55.0094 416.042L58.2522 420.128L61.5975 424.16L65.0441 428.133L68.5877 432.046L69.4834 433.021L73.0619 436.806L76.7319 440.524L80.4912 444.175L84.3378 447.756L88.2693 451.263L92.2826 454.696L96.3753 458.051L96.8995 458.468L100.993 461.685L105.159 464.82L109.395 467.872L113.697 470.839L118.063 473.72L122.489 476.511L126.973 479.211L131.512 481.818L136.101 484.329L140.74 486.745L145.423 489.063L150.149 491.281L154.913 493.399L159.712 495.414L160.338 495.672L165.258 497.618L170.206 499.456L175.181 501.187L180.178 502.808L185.194 504.319L190.226 505.72L195.27 507.008L196.563 507.319L201.703 508.515L206.848 509.596L211.995 510.559L217.14 511.407L222.28 512.137L224.036 512.377L229.251 513.001L234.454 513.505L239.639 513.891L241.665 514.001L246.911 514.27L252.134 514.418L257.33 514.445L259.602 514.406L264.842 514.311L270.049 514.091L275.217 513.75L277.711 513.549L282.909 513.08L288.06 512.49L293.163 511.776L295.854 511.396L300.97 510.55L306.03 509.581L308.83 509.024M12.5308 334.717L14.1665 339.672L15.9372 344.616L17.843 349.547L19.8818 354.462L22.0535 359.355L24.3571 364.225L26.7914 369.069L29.3543 373.882L32.0447 378.661L34.8626 383.404L37.8036 388.106L40.8677 392.765L44.0528 397.377L47.3556 401.94L50.7761 406.449L54.3109 410.901L57.9581 415.293L61.7163 419.624L65.5814 423.889L69.551 428.084L73.6242 432.208L77.7954 436.259L82.0648 440.231L86.4278 444.122L90.8824 447.93L95.4252 451.653L100.053 455.288L104.763 458.83L109.551 462.28L114.414 465.635L119.349 468.89L124.354 472.046L129.423 475.098L134.553 478.044L139.743 480.884L144.985 483.616L150.28 486.236L155.621 488.745L161.005 491.139L166.429 493.416L171.889 495.577L177.38 497.618L182.9 499.54L188.445 501.34L194.01 503.018L199.591 504.573L205.185 506.003L210.787 507.308L216.396 508.486L222.004 509.539L227.611 510.463L233.21 511.261L238.8 511.931L244.375 512.472L249.932 512.886L255.468 513.171L260.978 513.328L266.459 513.356L271.907 513.256L277.319 513.029L282.691 512.676L288.02 512.195L293.301 511.59L298.533 510.858L303.71 510.003L308.83 509.024M308.83 509.024L313.891 507.922L318.887 506.699L321.781 505.959L326.766 504.602L331.681 503.123L334.651 502.201L339.542 500.586L344.356 498.852L347.385 497.746L352.164 495.878L355.192 494.604L359.929 492.6L364.577 490.48L367.635 489.025L372.23 486.771L376.732 484.405L379.801 482.769L384.239 480.271L387.276 478.477L391.643 475.852L395.905 473.116L398.927 471.148M398.927 471.148L403.108 468.287L406.078 466.167L410.171 463.184L414.154 460.097L417.082 457.813L420.968 454.61L423.825 452.183L427.609 448.867L430.389 446.302L434.067 442.875L437.622 439.353L440.327 436.646L443.768 433.02L446.379 430.187L449.7 426.463L452.21 423.509L455.409 419.689L458.476 415.784L460.882 412.712L463.822 408.72L466.114 405.541L468.922 401.468L471.092 398.19L473.765 394.04L475.812 390.669L478.346 386.447L480.745 382.153L482.657 378.704L484.915 374.346L486.692 370.821L488.806 366.407L490.445 362.813L492.414 358.347L493.91 354.693L495.735 350.181L497.42 345.614L498.764 341.923M498.764 341.923L500.302 337.318L501.495 333.586L502.889 328.95L503.931 325.182L505.177 320.523L506.284 315.819L507.166 312.051L508.128 307.33L508.854 303.548L509.672 298.818L510.242 295.028L510.919 290.296L511.457 285.529L511.866 281.776L512.266 277.017L512.517 273.275L512.779 268.527L512.906 263.754L513 260.076L512.992 255.324L512.93 251.677L512.793 246.951L512.524 242.207L512.31 238.649L511.915 233.941L511.55 230.432L511.032 225.765L510.389 221.09L509.881 217.694L509.122 213.066L508.238 208.436L507.594 205.167L506.602 200.593L505.488 196.02L504.716 192.89L503.499 188.381L502.165 183.877L501.276 180.899L499.847 176.468L498.304 172.047L497.306 169.233M131.125 35.2109L127.049 37.6191L123.061 40.1318L119.161 42.7481L115.353 45.4658L111.638 48.2847L108.02 51.2051L104.503 54.2223L101.086 57.3377L97.7721 60.5489L94.5652 63.8539L91.4662 67.2515L88.4772 70.7406L85.6016 74.318L82.8415 77.9825L80.1979 81.7332L77.6743 85.5666L75.2705 89.4829L72.9909 93.4776L70.8355 97.5497L68.8065 101.697L66.9061 105.917L65.1354 110.208L63.4977 114.567L61.9929 118.991L60.6221 123.479L59.3875 128.028L58.2902 132.634L57.3302 137.295L56.5107 142.009L55.8308 146.773L55.2936 151.584L54.8991 156.439L54.6474 161.335L54.5384 166.269L54.5744 171.237L54.7553 176.238L55.0811 181.267L55.5529 186.322L56.1697 191.4L56.9335 196.495L57.8423 201.608L58.896 206.731L60.0957 211.865L61.4393 217.005L62.9278 222.146L64.5601 227.286L66.3362 232.421L68.2552 237.549L70.3146 242.665L72.5158 247.767L74.8553 252.849L77.3332 257.911L79.9473 262.946L82.6965 267.952L85.5809 272.926L88.5971 277.864L91.744 282.763L95.0185 287.618L98.4194 292.428L101.944 297.189L105.592 301.896L109.36 306.547L113.244 311.139L117.244 315.666L121.357 320.129L125.578 324.521L129.906 328.842L134.339 333.087L138.872 337.254L143.503 341.338L148.229 345.338L153.047 349.251L157.952 353.074L162.943 356.803L168.014 360.438L173.164 363.975L178.388 367.41L183.683 370.743L189.044 373.969L194.469 377.089L199.953 380.097L205.492 382.995L211.084 385.779L216.723 388.447L222.406 390.997L228.128 393.428L233.887 395.738L239.676 397.925L245.494 399.988L251.336 401.927L257.196 403.739L263.073 405.423L268.959 406.978L274.854 408.405L280.751 409.7L286.647 410.865L292.539 411.898L298.421 412.798L304.29 413.568L310.142 414.204L315.973 414.706L321.778 415.077L327.555 415.313L333.297 415.417L339.004 415.387L344.67 415.226L350.292 414.933L355.865 414.509L361.388 413.954L366.855 413.269L372.263 412.455L377.609 411.511L382.889 410.441L388.1 409.245L393.239 407.923L398.304 406.478L403.289 404.911L408.192 403.222L413.011 401.413L417.743 399.487L422.384 397.444L426.933 395.286L431.386 393.015L435.741 390.634L439.996 388.145L444.147 385.547L448.194 382.844L452.132 380.038L455.961 377.131L459.678 374.126L463.283 371.024L466.771 367.829L470.143 364.541L473.396 361.164L476.528 357.701L479.537 354.152L482.424 350.523L485.186 346.813L487.822 343.027L490.331 339.166L492.714 335.235L494.966 331.233L497.088 327.167L499.079 323.036L500.939 318.844L502.668 314.594L504.264 310.289L505.727 305.932L507.057 301.525L508.253 297.07L509.315 292.572L510.243 288.031L511.036 283.453L511.697 278.838L512.223 274.189L512.616 269.511L512.876 264.806L513.002 260.076M22.8848 154.923L20.9605 159.511L19.1756 164.171L17.5302 168.901L16.0276 173.698L14.6677 178.56L13.4526 183.482L12.3826 188.464L11.4607 193.5L10.6871 198.59L10.0638 203.729L9.59085 208.916L9.26941 214.145L9.09942 219.414L9.08312 224.72L9.21933 230.06L9.50918 235.43L9.95371 240.827L10.5531 246.247L11.3071 251.687L12.2159 257.143L13.2794 262.612L14.4965 268.091L15.8673 273.574L17.3918 279.06L19.0699 284.544L20.8995 290.023L22.8815 295.492L25.0151 300.948L27.2969 306.388L29.7268 311.807L32.305 317.202L35.0281 322.569L37.8961 327.904L40.9068 333.204L44.0592 338.465L47.3501 343.684L50.7792 348.855L54.3414 353.977L58.0375 359.044L61.8644 364.054L65.8188 369.003L69.8996 373.887L74.1036 378.703L78.4274 383.448L82.8678 388.117L87.4237 392.709L92.0907 397.218L96.8656 401.643L101.745 405.979L106.727 410.224L111.807 414.375L116.982 418.427L122.248 422.381L127.601 426.23L133.038 429.975L138.555 433.61L144.147 437.135L149.813 440.544L155.546 443.838L161.343 447.015L167.202 450.07L173.114 453.004L179.079 455.812L185.091 458.493L191.146 461.046L197.24 463.469L203.369 465.759L209.529 467.917L215.712 469.939L221.919 471.826L228.142 473.578L234.378 475.189L240.622 476.662L246.87 477.995L253.119 479.187L259.361 480.238L265.596 481.148L271.816 481.915L278.02 482.54L284.2 483.023L290.356 483.363L296.481 483.561L302.57 483.616L308.622 483.53L314.631 483.302L320.594 482.932L326.505 482.424L332.364 481.775L338.163 480.987L343.9 480.062L349.572 479L355.174 477.801L360.704 476.468L366.157 475.003L371.531 473.405L376.822 471.677L382.026 469.82L387.141 467.836L392.163 465.728L397.091 463.494L401.92 461.139L406.648 458.665L411.272 456.074L415.791 453.366L420.199 450.546L424.497 447.614L428.68 444.573L432.748 441.426L436.698 438.174L440.528 434.821L444.235 431.369L447.82 427.82L451.278 424.178L454.609 420.443L457.81 416.621L460.881 412.712M395.74 71.5652L393.854 69.9601L391.935 68.3877L389.984 66.847L388.002 65.341L385.989 63.8678L383.948 62.4306L381.879 61.0292L379.784 59.6639L377.664 58.3356L375.518 57.0465L373.351 55.7966L371.162 54.5849L368.952 53.4146L366.724 52.2847L364.477 51.1971L362.214 50.1511L359.935 49.1475L357.642 48.1886L355.336 47.2722L353.019 46.4015L350.691 45.5756L348.355 44.7943L346.01 44.0587L343.66 43.3701L341.305 42.7282L338.946 42.1344L336.585 41.5874L334.222 41.0883L331.861 40.6372L329.501 40.2351L327.144 39.881L324.791 39.5759L322.444 39.3198L320.103 39.1138L317.773 38.9569L315.45 38.8501L313.14 38.7935L310.842 38.7858L308.557 38.8283L306.289 38.921L304.035 39.0637L301.8 39.2555L299.584 39.4985L297.388 39.7905L295.214 40.1327L293.062 40.5239L290.935 40.9641L288.833 41.4534L286.757 41.9927L284.711 42.5801L282.693 43.2164L280.704 43.9007L278.748 44.633L276.825 45.4121L274.934 46.2381L273.08 47.1109L271.261 48.0306L269.481 48.9949L267.737 50.0062L266.034 51.0609L264.371 52.1593L262.751 53.3024L261.172 54.488L259.637 55.716L258.146 56.9855L256.701 58.2963L255.303 59.6464L253.952 61.0368L252.65 62.4665L251.397 63.9332L250.192 65.4369L249.04 66.9777L247.938 68.5534L246.889 70.1639L245.893 71.8082L244.951 73.4852L244.063 75.1938L243.229 76.9329L242.453 78.7025L241.731 80.4994L241.066 82.3246L240.458 84.1771L239.908 86.0545L239.417 87.9571L238.983 89.8815L238.609 91.8298L238.293 93.7977L238.037 95.7853L237.84 97.7925L237.704 99.8171L237.628 101.857L237.611 103.912L237.655 105.981L237.759 108.063L237.924 110.155L238.148 112.258L238.434 114.368L238.779 116.487L239.185 118.611L239.651 120.74L240.176 122.871L240.76 125.005L241.404 127.139L242.106 129.274L242.867 131.405L243.686 133.534L244.563 135.657L245.496 137.775L246.486 139.885L247.533 141.986L248.634 144.077L249.79 146.157L251.001 148.223L252.265 150.276L253.581 152.314L254.95 154.334L256.369 156.336L257.839 158.319L259.357 160.282L260.924 162.222L262.538 164.139L264.198 166.032L265.904 167.899L267.654 169.74L269.448 171.552L271.283 173.335L273.158 175.088L275.074 176.809L277.029 178.498L279.02 180.152L281.047 181.772L283.109 183.356L285.205 184.903L287.332 186.412L289.489 187.883L291.676 189.314L293.891 190.703L296.133 192.052L298.399 193.357L300.689 194.619L303.001 195.837L305.334 197.011L307.686 198.139L310.054 199.22L312.439 200.254L314.839 201.24L317.251 202.178L319.675 203.067L322.108 203.906L324.55 204.697L326.999 205.435L329.453 206.124L331.91 206.761L334.369 207.345L336.829 207.878L339.287 208.359L341.742 208.787L344.194 209.162L346.639 209.484L349.077 209.754L351.505 209.968L353.924 210.131L356.33 210.239L358.723 210.294L361.101 210.295L363.462 210.243L365.805 210.137L368.128 209.979L370.431 209.768L372.711 209.503L374.967 209.185L377.198 208.815L379.403 208.394L381.579 207.92L383.727 207.394L385.843 206.819L387.929 206.193L389.98 205.516L391.997 204.789L393.98 204.013L395.925 203.189L397.832 202.317L399.699 201.398L401.528 200.432L403.315 199.419L405.059 198.362L406.76 197.259L408.418 196.113L410.029 194.923L411.595 193.692L413.113 192.419L414.584 191.105L416.006 189.752L417.379 188.359L418.701 186.928L419.973 185.462L421.193 183.958L422.36 182.418L423.475 180.846L424.536 179.24L425.543 177.602L426.495 175.933L427.392 174.233L428.233 172.504L429.019 170.749L429.749 168.966L430.421 167.157L431.038 165.325L431.596 163.468L432.097 161.589L432.54 159.69L432.925 157.77L433.252 155.831L433.523 153.875L433.734 151.902L433.887 149.915L433.981 147.913L434.017 145.898L433.995 143.872L433.916 141.836L433.779 139.789L433.582 137.735L433.331 135.675L433.02 133.609L432.653 131.537L432.229 129.464L431.749 127.388L431.211 125.311L430.62 123.235L429.972 121.16L429.27 119.088L428.513 117.021L427.703 114.958L426.839 112.902L425.922 110.853L424.953 108.813L423.932 106.783L422.861 104.765L421.74 102.758L420.569 100.765L419.348 98.7851L418.08 96.8226L416.765 94.8754L415.402 92.9467L413.994 91.0365L412.541 89.1459L411.044 87.2772L409.504 85.4291L407.922 83.605L406.297 81.8049L404.633 80.0298L402.929 78.2809L401.187 76.5592L399.407 74.8647L397.592 73.1997L395.74 71.5652ZM372.498 85.8511L373.565 86.6923L374.659 87.5052L375.726 88.3279L376.716 89.1986L377.594 90.1455L378.399 91.1469L379.189 92.1679L380.022 93.1759L380.932 94.1457L381.877 95.0959L382.793 96.0504L383.616 97.0355L384.304 98.0707L384.904 99.1418L385.482 100.23L386.109 101.313L386.827 102.379L387.587 103.431L388.316 104.482L388.942 105.546L389.414 106.63L389.784 107.733L390.131 108.846L390.527 109.965L391.026 111.086L391.572 112.201L392.087 113.312L392.489 114.413L392.726 115.506L392.854 116.598L392.952 117.696L393.103 118.809L393.363 119.941L393.673 121.08L393.951 122.208L394.115 123.307L394.107 124.368L393.985 125.406L393.831 126.447L393.731 127.51L393.739 128.613L393.8 129.732L393.83 130.835L393.747 131.891L393.494 132.878L393.125 133.824L392.724 134.765L392.373 135.739L392.128 136.77L391.935 137.827L391.715 138.863L391.387 139.834L390.896 140.71L390.293 141.527L389.659 142.332L389.069 143.179L388.579 144.098L388.139 145.052L387.674 145.982L387.111 146.831L386.4 147.561L385.586 148.214L384.74 148.851L383.934 149.537L383.215 150.309L382.541 151.122L381.848 151.91L381.071 152.603L380.165 153.158L379.17 153.621L378.145 154.064L377.153 154.559L376.232 155.154L375.349 155.796L374.454 156.409L373.49 156.918L372.424 157.274L371.286 157.528L370.121 157.758L368.979 158.044L367.891 158.435L366.833 158.878L365.767 159.294L364.654 159.599L363.47 159.74L362.232 159.773L360.972 159.78L359.725 159.842L358.511 160.015L357.318 160.243L356.123 160.442L354.905 160.53L353.647 160.451L352.357 160.26L351.054 160.04L349.75 159.877L348.457 159.822L347.176 159.824L345.898 159.8L344.621 159.666L343.339 159.369L342.051 158.96L340.754 158.522L339.445 158.136L338.125 157.857L336.805 157.634L335.495 157.387L334.21 157.036L332.956 156.53L331.719 155.919L330.48 155.278L329.218 154.687L327.924 154.194L326.616 153.753L325.326 153.292L324.084 152.738L322.907 152.044L321.772 151.253L320.64 150.436L319.478 149.66L318.258 148.972L317.016 148.333L315.797 147.677L314.646 146.942L313.595 146.087L312.606 145.149L311.628 144.185L310.609 143.257L309.514 142.403L308.386 141.589L307.285 140.764L306.273 139.878L305.388 138.896L304.585 137.847L303.8 136.777L302.965 135.732L302.038 134.744L301.069 133.791L300.13 132.832L299.295 131.83L298.611 130.76L298.027 129.64L297.464 128.506L296.846 127.387L296.123 126.306L295.35 125.25L294.609 124.195L293.985 123.118L293.528 122.002L293.184 120.858L292.866 119.703L292.49 118.553L291.997 117.423L291.45 116.307L290.937 115.199L290.545 114.09L290.334 112.972L290.242 111.847L290.181 110.716L290.059 109.582L289.817 108.446L289.515 107.316L289.246 106.198L289.102 105.1L289.143 104.025L289.307 102.962L289.503 101.9L289.638 100.824L289.654 99.728L289.608 98.6286L289.593 97.5454L289.699 96.5004L289.989 95.5088L290.401 94.5488L290.846 93.5954L291.234 92.6201L291.503 91.6067L291.713 90.5792L291.951 89.5723L292.303 88.6232L292.828 87.7515L293.471 86.931L294.145 86.1214L294.767 85.2834L295.28 84.3899L295.735 83.4745L296.214 82.5843L296.796 81.7649L297.536 81.0468L298.384 80.3952L299.261 79.7599L300.093 79.0886L300.826 78.3498L301.508 77.5816L302.209 76.8396L302.997 76.1814L303.922 75.6431L304.939 75.1843L305.986 74.7452L306.994 74.2669L307.92 73.7089L308.799 73.1162L309.693 72.5506L310.656 72.0777L311.729 71.7377L312.879 71.4871L314.052 71.2594L315.199 70.9891L316.28 70.6339L317.324 70.2373L318.375 69.8701L319.476 69.5987L320.657 69.469L321.895 69.4342L323.151 69.4254L324.39 69.3721L325.585 69.2304L326.754 69.0463L327.922 68.8883L329.118 68.8283L330.362 68.9122L331.641 69.0931L332.934 69.3012L334.22 69.4669L335.484 69.5431L336.732 69.5769L337.973 69.6347L339.219 69.7883L340.479 70.0814L341.752 70.4694L343.033 70.8856L344.318 71.2626L345.604 71.5547L346.883 71.8031L348.15 72.0755L349.4 72.4351L350.63 72.9255L351.85 73.5063L353.071 74.1143L354.308 74.6875L355.567 75.1832L356.831 75.6388L358.076 76.1138L359.283 76.6663L360.437 77.3364L361.559 78.0872L362.675 78.8642L363.819 79.6117L365.003 80.2927L366.205 80.9389L367.384 81.5992L368.503 82.3249L369.538 83.1487L370.52 84.0412L371.492 84.9565L372.498 85.8511ZM412.832 63.4289L410.135 61.1384L407.391 58.8926L404.602 56.6948L401.767 54.5438L398.893 52.4407L395.976 50.3888L393.021 48.3871L390.029 46.4388L386.999 44.5428L383.936 42.7012L380.84 40.9153L377.714 39.1849L374.558 37.5122L371.376 35.8974L368.167 34.3424L364.935 32.8463L361.68 31.4112L358.404 30.0382L355.11 28.7263L351.8 27.4786L348.474 26.2941L345.135 25.175L341.785 24.1202L338.425 23.1308L335.058 22.2078L331.684 21.3525L328.308 20.5646L324.927 19.8444L321.547 19.1917L318.169 18.6087L314.795 18.0944L311.425 17.6498L308.063 17.276L304.71 16.972L301.368 16.7377L298.038 16.5754L294.723 16.4827L291.424 16.461L288.145 16.5111L284.885 16.632L281.648 16.8249L278.435 17.0886L275.247 17.4231L272.087 17.8296L268.958 18.3068L265.859 18.8538L262.792 19.4728L259.762 20.1615L256.768 20.9209L253.812 21.7502L250.897 22.6492L248.024 23.6179L245.194 24.6542L242.411 25.7591L239.674 26.9326L236.986 28.1727L234.349 29.4792L231.763 30.8522L229.232 32.2916L226.756 33.7943L224.337 35.3623L221.976 36.9925L219.674 38.6858L217.435 40.4402L215.259 42.2556L213.146 44.1298L211.101 46.064L209.121 48.0559L207.211 50.1034L205.369 52.2075L203.598 54.3662L201.901 56.5771L200.276 58.8414L198.726 61.1559L197.252 63.5205L195.854 65.933L194.534 68.3923L193.293 70.8975L192.132 73.4462L191.051 76.0385L190.052 78.6712L189.134 81.3441L188.3 84.0552L187.55 86.8034L186.884 89.5853L186.302 92.401L185.806 95.2494L185.396 98.1261L185.073 101.032L184.836 103.965L184.687 106.921L184.626 109.901L184.651 112.902L184.766 115.923L184.967 118.959L185.256 122.013L185.634 125.079L186.1 128.157L186.654 131.245L187.295 134.341L188.024 137.444L188.84 140.549L189.742 143.657L190.73 146.763L191.806 149.869L192.965 152.97L194.211 156.065L195.54 159.152L196.952 162.229L198.447 165.294L200.023 168.344L201.68 171.379L203.419 174.396L205.234 177.392L207.128 180.367L209.099 183.316L211.145 186.24L213.265 189.136L215.458 192.003L217.723 194.837L220.057 197.638L222.46 200.403L224.931 203.131L227.466 205.819L230.067 208.467L232.729 211.071L235.451 213.632L238.233 216.146L241.072 218.612L243.966 221.028L246.914 223.392L249.911 225.704L252.96 227.962L256.055 230.163L259.196 232.308L262.38 234.395L265.605 236.419L268.869 238.383L272.171 240.284L275.507 242.121L278.875 243.892L282.273 245.597L285.7 247.235L289.153 248.804L292.629 250.304L296.126 251.732L299.642 253.089L303.174 254.374L306.721 255.585L310.279 256.723L313.848 257.786L317.422 258.774L321.001 259.686L324.584 260.52L328.166 261.279L331.745 261.96L335.321 262.564L338.888 263.089L342.447 263.537L345.995 263.905L349.528 264.196L353.044 264.406L356.543 264.539L360.02 264.594L363.474 264.569L366.905 264.465L370.307 264.284L373.679 264.025L377.02 263.688L380.327 263.273L383.597 262.782L386.831 262.213L390.024 261.569L393.176 260.848L396.284 260.054L399.346 259.184L402.36 258.242L405.325 257.226L408.239 256.139L411.101 254.979L413.906 253.75L416.657 252.451L419.349 251.085L421.982 249.651L424.554 248.149L427.063 246.584L429.508 244.952L431.888 243.259L434.201 241.504L436.447 239.688L438.624 237.813L440.731 235.879L442.765 233.889L444.728 231.844L446.616 229.744L448.429 227.592L450.168 225.387L451.83 223.135L453.416 220.834L454.923 218.485L456.351 216.092L457.7 213.656L458.969 211.177L460.157 208.657L461.264 206.099L462.29 203.504L463.233 200.872L464.095 198.208L464.873 195.51L465.569 192.782L466.181 190.024L466.71 187.24L467.155 184.43L467.517 181.597L467.796 178.741L467.991 175.865L468.102 172.97L468.13 170.058L468.075 167.13L467.936 164.189L467.715 161.238L467.411 158.275L467.027 155.304L466.559 152.326L466.011 149.344L465.381 146.358L464.671 143.371L463.882 140.383L463.012 137.399L462.065 134.418L461.041 131.442L459.939 128.472L458.76 125.512L457.506 122.561L456.177 119.623L454.774 116.698L453.299 113.788L451.751 110.896L450.132 108.021L448.443 105.166L446.686 102.333L444.86 99.5231L442.967 96.7379L441.009 93.9788L438.985 91.247L436.898 88.5447L434.751 85.8717L432.541 83.2314L430.272 80.625L427.945 78.0533L425.559 75.5177L423.119 73.0191L420.625 70.5608L418.078 68.1417L415.48 65.7641L412.832 63.4289ZM423.304 63.1402L419.927 60.2732L416.491 57.4641L413 54.7138L409.453 52.0223L405.855 49.3929L402.206 46.8245L398.508 44.3216L394.764 41.8829L390.974 39.5118L387.141 37.2071L383.269 34.9733L379.358 32.8082L375.41 30.7149L371.427 28.6946L367.413 26.7474L363.368 24.8743L359.295 23.0774L355.197 21.3579L351.074 19.7158L346.93 18.1521L342.767 16.6669L338.587 15.2634L334.392 13.9395L330.184 12.6983L325.966 11.54L321.739 10.4656L317.507 9.47401L313.272 8.56847L309.035 7.74686L304.798 7.01135L300.566 6.3619L296.338 5.79964L292.119 5.32454L287.91 4.9377L283.713 4.63804L279.531 4.42665L275.366 4.30461L271.221 4.27082L267.097 4.32532L262.998 4.46915L258.923 4.70232L254.879 5.02489L250.865 5.43677L246.885 5.93695L242.939 6.52754L239.031 7.20639L235.163 7.97352L231.338 8.82892L227.557 9.77366L223.823 10.8056L220.138 11.9258L216.505 13.1331L212.923 14.4265L209.398 15.806L205.931 17.2716L202.522 18.8222L199.177 20.4568L195.895 22.1752L192.679 23.9764L189.531 25.8593L186.454 27.824L183.448 29.8682L180.515 31.992L177.659 34.1942L174.882 36.4738L172.183 38.8286L169.566 41.2596L167.033 43.7637L164.584 46.3407L162.222 48.9875L159.948 51.7052L157.764 54.4903L155.672 57.3431L153.673 60.2612L151.769 63.2426L149.961 66.2871L148.25 69.3916L146.637 72.5538L145.125 75.7749L143.713 79.0493L142.404 82.3782L141.199 85.7584L140.098 89.1887L139.103 92.6669L138.214 96.1898L137.433 99.7563L136.76 103.364L136.194 107.011L135.74 110.695L135.394 114.414L135.16 118.166L135.037 121.948L135.025 125.759L135.125 129.595L135.337 133.454L135.66 137.333L136.096 141.232L136.644 145.147L137.306 149.075L138.078 153.014L138.963 156.962L139.959 160.915L141.066 164.873L142.283 168.83L143.61 172.786L145.048 176.738L146.594 180.683L148.248 184.617L150.01 188.54L151.877 192.449L153.849 196.34L155.926 200.211L158.105 204.059L160.386 207.882L162.768 211.677L165.248 215.443L167.825 219.175L170.498 222.871L173.266 226.53L176.125 230.148L179.075 233.723L182.114 237.254L185.24 240.735L188.451 244.167L191.744 247.546L195.118 250.87L198.57 254.137L202.098 257.345L205.701 260.49L209.374 263.573L213.117 266.588L216.925 269.535L220.798 272.413L224.733 275.219L228.725 277.951L232.775 280.606L236.876 283.184L241.029 285.683L245.228 288.1L249.474 290.435L253.761 292.685L258.087 294.849L262.448 296.927L266.843 298.916L271.268 300.814L275.721 302.622L280.197 304.336L284.694 305.957L289.21 307.484L293.739 308.916L298.281 310.251L302.832 311.489L307.389 312.629L311.947 313.67L316.506 314.613L321.061 315.455L325.609 316.197L330.147 316.84L334.674 317.381L339.185 317.822L343.677 318.162L348.146 318.399L352.592 318.537L357.011 318.572L361.399 318.507L365.754 318.341L370.074 318.077L374.354 317.711L378.593 317.245L382.788 316.681L386.935 316.017L391.035 315.257L395.081 314.399L399.073 313.446L403.009 312.396L406.885 311.252L410.699 310.014L414.448 308.685L418.133 307.263L421.748 305.75L425.293 304.15L428.764 302.461L432.162 300.686L435.483 298.826L438.725 296.88L441.886 294.854L444.966 292.746L447.961 290.559L450.872 288.295L453.695 285.954L456.43 283.54L459.075 281.053L461.627 278.494L464.087 275.866L466.454 273.171L468.725 270.411L470.899 267.588L472.977 264.703L474.957 261.757L476.836 258.754L478.617 255.696L480.296 252.584L481.873 249.42L483.348 246.205L484.721 242.945L485.991 239.638L487.157 236.288L488.218 232.896L489.176 229.466L490.028 225.999L490.775 222.496L491.417 218.96L491.954 215.395L492.387 211.801L492.714 208.18L492.936 204.537L493.054 200.87L493.066 197.185L492.974 193.481L492.778 189.762L492.478 186.03L492.076 182.287L491.571 178.535L490.964 174.776L490.256 171.013L489.446 167.247L488.535 163.481L487.526 159.716L486.418 155.956L485.211 152.201L483.909 148.455L482.51 144.718L481.017 140.994L479.429 137.284L477.748 133.59L475.975 129.915L474.112 126.259L472.16 122.626L470.12 119.017L467.993 115.433L465.779 111.879L463.481 108.354L461.1 104.86L458.639 101.401L456.097 97.9757L453.476 94.588L450.779 91.2394L448.006 87.9323L445.16 84.6665L442.24 81.4455L439.25 78.2713L436.193 75.1428L433.066 72.0645L429.875 69.0374L426.62 66.0616L423.304 63.1402Z" stroke="url(#paint0_angular_1019_28409)" stroke-width="2" stroke-linecap="round" stroke-linejoin="round"/>
<defs>
<radialGradient id="paint0_angular_1019_28409" cx="0" cy="0" r="1" gradientUnits="userSpaceOnUse" gradientTransform="translate(257.001 258.133) rotate(90) scale(256.311 256.001)">
<stop offset="0.0993526" stop-color="#FFC876"/>
<stop offset="0.427081" stop-color="#79FFF7"/>
<stop offset="0.718753" stop-color="#9F53FF"/>
<stop offset="1" stop-color="#FF98E2"/>
</radialGradient>
</defs>
</svg>
