<svg width="514" height="516" viewBox="0 0 514 516" fill="none" xmlns="http://www.w3.org/2000/svg">
<path d="M420.687 60.7101L417.176 57.8388L413.607 55.0275L409.983 52.2771L406.304 49.59L402.574 46.9661L398.795 44.4065L394.968 41.9144L391.096 39.491L387.178 37.1362L383.221 34.8523L379.223 32.6402L375.189 30.5012L371.118 28.4363L367.015 26.4455L362.881 24.532L358.718 22.6949L354.53 20.9372L350.316 19.258L349.506 18.9486L345.183 17.3173L340.838 15.7678L336.476 14.3033L332.098 12.9216L327.706 11.626L323.304 10.4176L318.893 9.29521L317.423 8.93996L312.917 7.88517L308.408 6.92081L303.897 6.04579L299.386 5.26233L294.879 4.57041L292.951 4.28599L288.364 3.67468L283.784 3.15818L279.215 2.73758L272.388 2.24832L267.766 2.01294L263.161 1.87674L258.577 1.8375L256.068 1.82227L251.429 1.88219L246.815 2.04237L244.167 2.1862L239.507 2.451L234.878 2.81713L230.284 3.28458L227.438 3.60169L222.81 4.18031L218.22 4.86135L215.269 5.35058L210.654 6.14605L206.085 7.04721L203.044 7.71082L198.46 8.72966L193.926 9.85421L190.808 10.6954L186.27 11.942L181.788 13.2932L178.61 14.3142L174.133 15.7896L169.719 17.3718L166.497 18.5726L162.096 20.2801L157.764 22.0934L154.512 23.474L150.205 25.4147L146.982 26.9522L142.705 29.0204L138.506 31.1953L135.281 32.9083L131.123 35.2108L127.944 37.0763L123.833 39.5052L119.809 42.0408L116.653 44.0741L112.686 46.7362L109.595 48.9134L105.69 51.6996L101.88 54.5905L98.8358 56.9268L95.0983 59.9397L92.1365 62.41L88.4775 65.545L85.6051 68.1427L82.0299 71.3986L78.5614 74.7537L75.7664 77.4921L72.3907 80.9627L69.7003 83.8176L66.4214 87.4015L63.8411 90.3665L60.6648 94.0605L57.6071 97.8493L55.1325 100.931L52.1849 104.825L49.8323 108.002L47.0003 111.996L44.7752 115.262L42.0641 119.355L39.9709 122.701L37.3818 126.887L34.9224 131.157L32.9643 134.582L30.6335 138.938L28.817 142.428L26.6192 146.865L24.9476 150.41L22.8859 154.923L21.3637 158.518L19.4415 163.102L17.6577 167.757L16.288 171.385L14.647 176.103L13.4331 179.761L11.9359 184.535L10.8778 188.213L9.5266 193.036L8.31928 197.92L7.42142 201.595L6.36221 206.519L5.62344 210.195L4.71248 215.152L4.1328 218.821L3.37108 223.806L2.75541 228.838L2.33808 232.464L1.87172 237.513L1.61453 241.11L1.29636 246.169L1.12417 251.266L1.02614 254.792L1 259.888L1.05773 263.365L1.17651 268.454L1.44241 273.57L1.65052 276.948L2.05801 282.047L2.96465 290.428L3.65547 295.518L4.15454 298.702L4.98164 303.756L5.94926 308.821L6.58122 311.863L7.67967 316.881L8.91639 321.902L9.67152 324.79L11.0325 329.756L12.5308 334.717L13.4004 337.435L15.0153 342.33L16.7653 347.215L17.7351 349.751L19.5941 354.561L21.5827 359.354L23.701 364.128L24.7319 366.404L26.9471 371.09L29.2877 375.749L31.7526 380.379L32.8194 382.381L35.3692 386.912L38.0389 391.407L40.8262 395.865L41.9029 397.579L44.761 401.927L47.7315 406.231L50.8119 410.487L51.8711 411.904L55.0094 416.042L58.2522 420.128L61.5975 424.16L65.0441 428.133L68.5877 432.046L69.4834 433.021L73.0619 436.806L76.7319 440.524L80.4912 444.175L84.3378 447.756L88.2693 451.263L92.2826 454.696L96.3753 458.051L96.8995 458.468L100.993 461.685L105.159 464.82L109.395 467.872L113.697 470.839L118.063 473.72L122.489 476.511L126.973 479.211L131.512 481.818L136.101 484.329L140.74 486.745L145.424 489.063L150.149 491.281L154.913 493.399L159.712 495.414L160.338 495.672L165.258 497.618L170.206 499.456L175.181 501.187L180.178 502.808L185.194 504.319L190.226 505.72L195.27 507.008L196.563 507.319L201.703 508.515L206.848 509.596L211.995 510.559L217.14 511.407L222.28 512.137L224.036 512.377L229.251 513.001L234.454 513.505L239.639 513.891L241.665 514.001L246.911 514.27L252.134 514.418L257.33 514.445L259.602 514.406L264.842 514.311L270.049 514.091L275.217 513.75L277.711 513.549L282.909 513.08L288.06 512.49L293.163 511.776L295.854 511.396L300.97 510.55L306.03 509.581L308.83 509.024L313.891 507.922L318.887 506.699L321.781 505.959L326.766 504.602L331.682 503.123L334.651 502.201L339.542 500.586L344.356 498.852L347.385 497.746L352.164 495.878L355.192 494.604L359.929 492.6L364.577 490.48L367.635 489.025L372.23 486.771L376.732 484.405L379.801 482.769L384.24 480.271L387.276 478.477L391.643 475.852L395.905 473.116L398.927 471.148L403.108 468.287L406.078 466.167L410.171 463.184L414.154 460.097L417.082 457.813L420.968 454.61L423.825 452.183L427.609 448.867L430.389 446.302L434.067 442.875L437.622 439.353L440.327 436.646L443.768 433.02L446.379 430.187L449.7 426.463L452.21 423.509L455.409 419.689L458.476 415.784L460.882 412.712L463.822 408.72L466.114 405.541L468.922 401.468L471.093 398.19L473.765 394.04L475.812 390.669L478.346 386.447L480.745 382.153L482.657 378.704L484.915 374.346L486.692 370.821L488.806 366.407L490.445 362.813L492.414 358.347L493.91 354.693L495.735 350.181L497.42 345.614L498.764 341.923L500.302 337.318L501.495 333.586L502.889 328.95L503.931 325.182L505.177 320.523L506.284 315.819L507.166 312.051L508.128 307.33L508.854 303.548L509.672 298.818L510.242 295.028L510.919 290.296L511.457 285.529L511.866 281.776L512.266 277.017L512.517 273.275L512.779 268.527L512.906 263.754L513 260.076L512.992 255.324L512.93 251.677L512.793 246.951L512.524 242.207L512.31 238.649L511.915 233.941L511.55 230.432L511.032 225.765L510.389 221.09L509.881 217.694L509.122 213.066L508.238 208.436L507.594 205.167L506.602 200.593L505.488 196.02L504.716 192.89L503.499 188.381L502.165 183.877L501.276 180.899L499.847 176.468L498.304 172.047L497.306 169.233L495.675 164.889L493.935 160.561L492.838 157.923L491.017 153.678L489.092 149.453L485.909 142.868L483.811 138.755L481.612 134.668L480.39 132.485L478.132 128.496L475.778 124.535L473.331 120.606L469.598 114.876L467.013 111.084L464.34 107.329L461.581 103.614L460.403 102.07L457.612 98.4627L454.74 94.8973L451.787 91.3755L448.757 87.8995L445.649 84.4714L444.631 83.3599L441.51 80.0462L438.319 76.7827L435.056 73.5704L431.726 70.4103L428.33 67.3059L424.869 64.257L421.345 61.2658L420.687 60.7101L419.926 60.2731L419.062 59.956L418.094 59.7577L417.024 59.6814L415.852 59.7272L414.576 59.8939L413.197 60.1849L411.717 60.599L410.134 61.1383L408.449 61.8019L406.663 62.5919L404.775 63.5062L402.788 64.5457L400.701 65.7117L398.516 67.0029L396.234 68.4184L393.855 69.9603L391.381 71.6253L388.825 73.4047L386.199 75.2877L383.517 77.2622L380.792 79.3183L378.038 81.4421L375.269 83.6236L372.499 85.8509" fill="#0E0C15"/>
<path d="M363.821 79.6117L365.006 80.2927L366.207 80.9389L367.387 81.5992L368.506 82.325L369.541 83.1488L370.523 84.0412L371.495 84.9565L372.5 85.8511L373.567 86.6923L374.661 87.5052L375.729 88.3279L376.718 89.1986L377.597 90.1455L378.402 91.1469L379.192 92.1679L380.025 93.1759" fill="#0E0C15"/>
<path d="M386.112 101.313L385.486 100.23L384.907 99.1414L384.308 98.0702L383.619 97.035L382.797 96.05L381.88 95.0954L380.935 94.1452L380.026 93.1754L383.589 91.7164L387.166 90.3172L390.739 88.9846L394.289 87.7271L397.8 86.5524L401.254 85.4693L404.635 84.4842L407.924 83.6049L411.108 82.8388L414.183 82.1851L417.147 81.6456L420.001 81.2174L422.742 80.9025L425.368 80.6987L427.878 80.6061L430.274 80.6246L432.551 80.7532L434.709 80.9919L436.75 81.3395L438.673 81.7939L440.475 82.355L442.157 83.0208L443.719 83.7923L445.161 84.6662L446.481 85.6436L447.68 86.7224L448.759 87.8993" fill="#0E0C15"/>
<path d="M390.531 109.965L390.135 108.846L389.788 107.732L389.418 106.63L388.946 105.545L388.32 104.482L387.591 103.43L386.831 102.379L386.112 101.313L390.322 100.711L394.557 100.182L398.797 99.731L403.021 99.3627L407.21 99.0794L411.341 98.8865L415.394 98.7874L419.351 98.7852L423.194 98.8843L426.92 99.0827L430.524 99.3801L434.007 99.7779L437.366 100.271L440.6 100.863L443.708 101.551L446.687 102.333L449.537 103.21L452.255 104.18L454.843 105.241L457.298 106.393L459.621 107.634L461.809 108.963L463.861 110.378L465.78 111.879L467.563 113.463L469.21 115.129L470.72 116.877L472.094 118.702" fill="#0E0C15"/>
<path d="M393.107 118.809L392.955 117.696L392.857 116.598L392.73 115.506L392.492 114.413L392.09 113.312L391.576 112.201L391.03 111.086L390.531 109.965L395.213 110.275L399.93 110.674L404.662 111.164L409.382 111.745L414.069 112.414L418.7 113.173L423.252 114.021L427.705 114.958L432.038 115.983L436.247 117.094L440.327 118.292L444.28 119.572L448.102 120.936L451.791 122.381L455.344 123.907L458.761 125.512L462.04 127.193L465.179 128.951L468.177 130.782L471.033 132.687L473.747 134.662L476.316 136.706L478.739 138.817L481.018 140.994L483.149 143.235L485.132 145.539L486.97 147.903L488.659 150.325L490.201 152.804L491.594 155.337L492.84 157.923" fill="#0E0C15"/>
<path d="M393.734 127.51L393.834 126.446L393.987 125.406L394.11 124.367L394.117 123.307L393.954 122.208L393.676 121.08L393.365 119.941L393.107 118.809L398.069 120.052L403.076 121.406L408.101 122.862L413.121 124.417L418.11 126.068L423.043 127.807L427.9 129.633L432.654 131.537L437.288 133.518L441.792 135.573L446.167 137.699L450.41 139.896L454.518 142.16L458.489 144.491L462.321 146.886L466.011 149.344L469.558 151.862L472.96 154.439L476.216 157.072L479.324 159.76L482.283 162.499L485.092 165.29L487.75 168.128L490.255 171.013L492.607 173.941L494.805 176.911L496.848 179.921L498.736 182.969L500.469 186.051L502.047 189.167L503.469 192.314L504.734 195.489L505.843 198.69L506.797 201.918L507.595 205.167" fill="#0E0C15"/>
<path d="M392.374 135.739L392.725 134.765L393.126 133.824L393.494 132.878L393.748 131.891L393.831 130.835L393.8 129.732L393.739 128.613L393.731 127.51L398.772 129.679L403.86 131.975L408.969 134.389L414.076 136.912L419.155 139.535L424.181 142.249L429.132 145.045L433.981 147.913L438.709 150.847L443.309 153.842L447.78 156.896L452.119 160.007L456.323 163.173L460.39 166.39L464.316 169.656L468.1 172.97L471.741 176.328L475.236 179.728L478.582 183.168L481.78 186.645L484.827 190.156L487.722 193.699L490.464 197.272L493.052 200.87L495.483 204.494L497.758 208.139L499.876 211.804L501.836 215.486L503.639 219.181L505.283 222.888L506.768 226.605L508.094 230.328L509.261 234.056L510.269 237.786L511.118 241.516L511.809 245.242L512.342 248.965L512.718 252.678L512.937 256.383L512.999 260.076" fill="#0E0C15"/>
<path d="M389.071 143.178L389.66 142.332L390.294 141.526L390.897 140.71L391.388 139.834L391.716 138.863L391.937 137.827L392.129 136.77L392.374 135.739L397.284 138.787L402.239 141.981L407.217 145.307L412.192 148.753L417.143 152.305L422.042 155.95L426.868 159.676L431.596 163.468L436.206 167.317L440.694 171.215L445.055 175.162L449.287 179.154L453.386 183.188L457.353 187.26L461.182 191.368L464.872 195.51L468.421 199.681L471.828 203.879L475.09 208.102L478.206 212.345L481.173 216.607L483.991 220.883L486.658 225.169L489.174 229.466L491.535 233.769L493.743 238.074L495.796 242.379L497.694 246.681L499.437 250.978L501.022 255.266L502.451 259.543L503.722 263.805L504.836 268.05L505.793 272.276L506.593 276.478L507.235 280.657L507.723 284.808L508.054 288.929L508.23 293.017L508.251 297.07L508.118 301.085L507.832 305.062L507.392 308.995L506.804 312.885L506.064 316.729L505.177 320.523" fill="#0E0C15"/>
<path d="M383.937 149.537L384.744 148.851L385.589 148.214L386.403 147.561L387.115 146.831L387.677 145.982L388.142 145.052L388.583 144.098L389.073 143.178L393.643 147.026L398.255 151.037L402.887 155.196L407.515 159.484L412.116 163.887L416.67 168.385L421.154 172.961L425.545 177.602L429.824 182.29L433.987 187.021L438.029 191.79L441.948 196.595L445.743 201.431L449.41 206.294L452.947 211.184L456.352 216.093L459.624 221.019L462.757 225.961L465.754 230.911L468.611 235.869L471.328 240.829L473.903 245.79L476.333 250.747L478.618 255.696L480.757 260.635L482.747 265.56L484.591 270.467L486.287 275.354L487.834 280.216L489.231 285.052L490.479 289.856L491.576 294.628L492.523 299.363L493.319 304.058L493.967 308.71L494.464 313.317L494.812 317.876L495.012 322.383L495.063 326.837L494.966 331.233L494.722 335.571L494.332 339.847L493.797 344.059L493.118 348.204L492.296 352.28L491.333 356.286L490.23 360.217L488.988 364.074L487.608 367.853L486.093 371.551L484.442 375.169L482.659 378.704" fill="#0E0C15"/>
<path d="M377.153 154.559L378.145 154.064L379.17 153.621L380.164 153.158L381.071 152.603L381.848 151.91L382.541 151.122L383.214 150.309L383.934 149.537L387.968 154.072L392.033 158.789L396.113 163.665L400.185 168.682L404.231 173.82L408.229 179.057L412.16 184.374L416.005 189.752L419.747 195.172L423.38 200.629L426.901 206.117L430.309 211.632L433.602 217.171L436.776 222.73L439.83 228.303L442.763 233.889L445.571 239.482L448.252 245.078L450.808 250.673L453.233 256.263L455.529 261.844L457.694 267.413L459.727 272.963L461.624 278.494L463.388 284.001L465.015 289.478L466.506 294.923L467.861 300.333L469.078 305.702L470.158 311.029L471.1 316.308L471.905 321.539L472.57 326.713L473.099 331.832L473.489 336.89L473.742 341.885L473.858 346.812L473.839 351.67L473.683 356.456L473.392 361.164L472.966 365.795L472.406 370.345L471.715 374.81L470.891 379.19L469.939 383.48L468.857 387.678L467.648 391.784L466.312 395.793L464.851 399.704L463.268 403.515L461.563 407.223L459.737 410.829L457.795 414.329L455.736 417.721L453.563 421.005L451.277 424.178L448.881 427.24L446.377 430.187" fill="#0E0C15"/>
<path d="M368.98 158.044L370.122 157.758L371.287 157.528L372.424 157.274L373.491 156.918L374.455 156.409L375.35 155.796L376.233 155.154L377.154 154.559L380.472 159.644L383.808 164.923L387.148 170.373L390.475 175.974L393.772 181.701L397.022 187.533L400.208 193.447L403.314 199.419L406.326 205.431L409.241 211.475L412.055 217.546L414.766 223.639L417.373 229.751L419.875 235.876L422.268 242.011L424.552 248.149L426.725 254.288L428.785 260.422L430.732 266.547L432.564 272.659L434.279 278.753L435.879 284.823L437.361 290.868L438.723 296.88L439.966 302.858L441.089 308.796L442.091 314.69L442.974 320.537L443.735 326.331L444.375 332.069L444.894 337.747L445.292 343.361L445.567 348.909L445.722 354.384L445.757 359.785L445.672 365.107L445.468 370.348L445.144 375.503L444.703 380.571L444.144 385.547L443.469 390.428L442.678 395.211L441.772 399.894L440.753 404.475L439.622 408.949L438.381 413.317L437.03 417.572L435.571 421.715L434.005 425.742L432.334 429.653L430.559 433.444L428.684 437.113L426.708 440.66L424.635 444.082L422.464 447.378L420.2 450.546L417.843 453.584L415.394 456.493L412.859 459.269L410.236 461.914L407.529 464.424L404.741 466.801L401.873 469.042L398.927 471.148" fill="#0E0C15"/>
<path d="M359.728 159.842L360.976 159.78L362.236 159.773L363.473 159.74L364.658 159.599L365.77 159.294L366.836 158.879L367.894 158.435L368.983 158.044L371.431 163.513L373.882 169.188L376.322 175.044L378.74 181.057L381.122 187.202L383.456 193.457L385.73 199.794L387.931 206.193L390.048 212.629L392.078 219.095L394.021 225.585L395.874 232.095L397.636 238.621L399.305 245.158L400.881 251.7L402.362 258.242L403.748 264.78L405.036 271.308L406.227 277.823L407.319 284.319L408.314 290.79L409.209 297.234L410.004 303.643L410.7 310.014L411.293 316.344L411.786 322.626L412.178 328.856L412.47 335.03L412.66 341.143L412.75 347.192L412.739 353.172L412.628 359.078L412.417 364.906L412.106 370.654L411.697 376.316L411.189 381.89L410.584 387.371L409.882 392.755L409.085 398.04L408.192 403.222L407.206 408.298L406.126 413.264L404.956 418.117L403.694 422.856L402.344 427.476L400.907 431.975L399.382 436.352L397.773 440.602L396.08 444.723L394.305 448.715L392.45 452.575L390.516 456.299L388.505 459.888L386.42 463.339L384.26 466.651L382.029 469.821L379.728 472.849L377.36 475.733L374.925 478.473L372.426 481.066L369.865 483.513L367.245 485.814L364.566 487.967L361.831 489.971L359.042 491.824L356.201 493.53L353.31 495.085L350.371 496.49L347.387 497.747" fill="#0E0C15"/>
<path d="M349.75 159.877L351.055 160.04L352.358 160.26L353.647 160.451L354.905 160.53L356.124 160.442L357.318 160.243L358.511 160.015L359.725 159.842L361.185 165.516L362.625 171.401L364.038 177.474L365.418 183.709L366.753 190.081L368.04 196.566L369.268 203.136L370.43 209.768L371.52 216.438L372.534 223.138L373.473 229.864L374.336 236.61L375.123 243.369L375.833 250.139L376.464 256.914L377.018 263.688L377.492 270.456L377.888 277.213L378.202 283.955L378.439 290.675L378.597 297.369L378.674 304.032L378.672 310.659L378.591 317.245L378.43 323.785L378.189 330.274L377.871 336.708L377.475 343.081L377.001 349.391L376.449 355.63L375.822 361.795L375.118 367.882L374.337 373.887L373.484 379.804L372.557 385.632L371.557 391.363L370.486 396.997L369.343 402.528L368.132 407.954L366.851 413.269L365.505 418.471L364.09 423.557L362.613 428.523L361.071 433.366L359.468 438.084L357.804 442.675L356.08 447.133L354.3 451.459L352.462 455.647L350.571 459.698L348.626 463.607L346.629 467.375L344.583 471L342.489 474.477L340.348 477.807L338.163 480.988L335.934 484.018L333.663 486.896L331.354 489.621L329.007 492.193L326.623 494.609L324.205 496.871L321.756 498.977L319.274 500.925L316.764 502.718L314.227 504.352L311.664 505.829L309.077 507.148L306.469 508.311L303.84 509.318L301.195 510.167L298.531 510.859L295.853 511.396" fill="#0E0C15"/>
<path d="M339.447 158.136L340.756 158.522L342.054 158.96L343.342 159.369L344.623 159.666L345.9 159.8L347.178 159.824L348.46 159.822L349.752 159.877L350.14 165.563L350.486 171.463L350.786 177.553L351.038 183.808L351.239 190.202L351.386 196.711L351.476 203.309L351.507 209.969L351.476 216.671L351.384 223.404L351.228 230.166L351.011 236.949L350.733 243.748L350.392 250.559L349.991 257.377L349.528 264.196L349.004 271.01L348.42 277.816L347.776 284.607L347.072 291.377L346.309 298.123L345.489 304.84L344.611 311.52L343.676 318.162L342.685 324.758L341.639 331.302L340.538 337.793L339.385 344.223L338.179 350.589L336.921 356.886L335.614 363.109L334.257 369.254L332.853 375.315L331.4 381.29L329.903 387.173L328.361 392.96L326.777 398.648L325.15 404.232L323.483 409.71L321.777 415.077L320.033 420.328L318.252 425.462L316.438 430.475L314.59 435.363L312.709 440.125L310.799 444.756L308.859 449.254L306.892 453.617L304.899 457.841L302.882 461.925L300.843 465.865L298.782 469.662L296.702 473.312L294.603 476.813L292.488 480.164L290.358 483.363L288.214 486.409L286.058 489.301L283.893 492.036L281.718 494.615L279.535 497.037L277.347 499.302L275.156 501.407L272.96 503.354L270.763 505.14L268.568 506.766L266.372 508.233L264.181 509.539L261.993 510.685L259.81 511.674L257.635 512.502L255.469 513.171L253.312 513.682L251.166 514.035L249.032 514.23L246.912 514.27" fill="#0E0C15"/>
<path d="M329.221 154.686L330.482 155.278L331.721 155.919L332.958 156.53L334.212 157.036L335.497 157.387L336.807 157.634L338.128 157.857L339.447 158.136L338.726 163.641L337.936 169.359L337.081 175.264L336.164 181.333L335.185 187.541L334.149 193.865L333.056 200.28L331.911 206.762L330.715 213.287L329.468 219.848L328.173 226.439L326.831 233.058L325.441 239.696L324.005 246.35L322.526 253.015L321.001 259.686L319.435 266.357L317.828 273.022L316.179 279.678L314.494 286.319L312.77 292.939L311.01 299.535L309.215 306.1L307.388 312.629L305.528 319.118L303.637 325.562L301.718 331.955L299.772 338.293L297.8 344.572L295.803 350.785L293.783 356.931L291.744 363.002L289.683 368.995L287.605 374.905L285.511 380.728L283.402 386.461L281.281 392.099L279.147 397.639L277.004 403.075L274.853 408.405L272.695 413.624L270.532 418.73L268.366 423.72L266.199 428.59L264.031 433.335L261.865 437.955L259.702 442.447L257.543 446.807L255.391 451.031L253.247 455.12L251.111 459.069L248.986 462.877L246.874 466.543L244.776 470.063L242.691 473.437L240.624 476.663L238.574 479.738L236.544 482.662L234.534 485.433L232.545 488.052L230.579 490.517L228.638 492.827L226.722 494.981L224.831 496.978L222.969 498.819L221.135 500.502L219.331 502.029L217.558 503.399L215.816 504.61L214.106 505.666L212.43 506.565L210.788 507.308L209.182 507.895L207.611 508.325L206.077 508.602L204.581 508.725L203.123 508.696L201.703 508.515" fill="#0E0C15"/>
<path d="M319.48 149.66L320.643 150.435L321.774 151.253L322.909 152.044L324.086 152.738L325.328 153.291L326.618 153.752L327.926 154.194L329.221 154.686L327.396 159.823L325.479 165.164L323.475 170.688L321.393 176.372L319.241 182.193L317.027 188.129L314.757 194.157L312.44 200.254L310.083 206.4L307.687 212.587L305.256 218.811L302.791 225.066L300.294 231.347L297.766 237.65L295.211 243.97L292.628 250.303L290.022 256.643L287.394 262.986L284.745 269.326L282.077 275.658L279.394 281.978L276.696 288.281L273.987 294.56L271.268 300.814L268.54 307.036L265.807 313.221L263.071 319.363L260.334 325.461L257.597 331.509L254.863 337.5L252.133 343.432L249.411 349.3L246.698 355.099L243.995 360.825L241.306 366.475L238.632 372.043L235.976 377.527L233.337 382.921L230.721 388.223L228.127 393.428L225.558 398.533L223.016 403.535L220.502 408.43L218.018 413.214L215.566 417.887L213.148 422.443L210.765 426.879L208.418 431.194L206.11 435.385L203.842 439.448L201.615 443.382L199.431 447.186L197.291 450.856L195.197 454.39L193.148 457.787L191.148 461.046L189.197 464.164L187.296 467.14L185.445 469.972L183.648 472.661L181.903 475.204L180.212 477.602L178.576 479.852L176.995 481.955L175.471 483.909L174.004 485.713L172.595 487.369L171.244 488.878L169.95 490.235L168.717 491.445L167.543 492.505L166.43 493.416L165.376 494.179L164.384 494.793L163.453 495.261L162.582 495.581L161.772 495.757L161.025 495.786L160.338 495.672" fill="#0E0C15"/>
<path d="M310.612 143.257L311.631 144.185L312.61 145.148L313.598 146.087L314.649 146.942L315.8 147.676L317.019 148.332L318.262 148.972L319.481 149.66L156.887 415.533L150.179 426.873L146.082 433.837L144.15 437.135L142.297 440.306L140.524 443.349L138.829 446.265L137.218 449.051L135.687 451.706L134.237 454.229L132.871 456.62L131.588 458.877L130.39 460.998L129.275 462.984L128.244 464.835L127.297 466.55L126.435 468.128L125.657 469.571L124.964 470.876L124.355 472.045L123.83 473.077L123.39 473.973L123.032 474.733L122.759 475.357L122.568 475.846L122.46 476.201L122.434 476.423L122.491 476.511" fill="#0E0C15"/>
<path d="M302.967 135.732L303.802 136.777L304.587 137.847L305.391 138.896L306.275 139.878L307.288 140.764L308.388 141.589L309.516 142.403L310.611 143.257L306.78 147.161L302.81 151.242L298.72 155.482L294.523 159.866L290.239 164.376L285.883 168.996L281.475 173.709L277.03 178.498L272.563 183.347L268.083 188.252L263.59 193.206L259.088 198.208L254.583 203.254L250.076 208.338L245.571 213.459L241.072 218.612L236.582 223.792L232.105 228.995L227.644 234.219L223.202 239.458L218.784 244.709L214.391 249.968L210.029 255.229L205.7 260.49L201.407 265.746L197.155 270.994L192.944 276.229L188.781 281.448L184.667 286.644L180.605 291.817L176.598 296.96L172.65 302.072L168.765 307.146L164.942 312.181L161.186 317.171L157.5 322.114L153.886 327.005L150.347 331.843L146.884 336.622L143.502 341.338L140.2 345.991L136.983 350.574L133.852 355.086L130.809 359.524L127.855 363.884L124.994 368.164L122.225 372.362L119.552 376.473L116.975 380.496L114.496 384.428L112.116 388.266L109.838 392.007L107.66 395.652L105.585 399.198L103.613 402.64L101.747 405.979L99.9859 409.212L98.3307 412.337L96.7812 415.355L95.3396 418.261L94.0047 421.055L92.7767 423.736L91.6576 426.304L90.6453 428.755L89.742 431.091L88.9476 433.309L88.26 435.409L87.6803 437.391L87.2074 439.253L86.8413 440.997L86.582 442.619L86.4283 444.122L86.3814 445.504L86.4381 446.765L86.6004 447.905L86.8652 448.925L87.2313 449.825L87.701 450.604L88.2693 451.263" fill="#0E0C15"/>
<path d="M296.848 127.387L297.466 128.506L298.029 129.64L298.613 130.759L299.297 131.829L300.132 132.832L301.071 133.791L302.04 134.744L302.967 135.732L298.315 138.823L293.508 142.07L288.564 145.463L283.505 148.986L278.352 152.629L273.126 156.377L267.848 160.219L262.539 164.139L257.217 168.128L251.891 172.18L246.565 176.291L241.239 180.46L235.923 184.682L230.617 188.954L225.327 193.275L220.056 197.638L214.81 202.043L209.59 206.485L204.402 210.96L199.249 215.467L194.136 219.999L189.067 224.556L184.045 229.131L179.074 233.723L174.158 238.328L169.302 242.943L164.506 247.563L159.777 252.184L155.118 256.806L150.53 261.421L146.02 266.029L141.588 270.624L137.239 275.204L132.977 279.764L128.802 284.302L124.719 288.816L120.731 293.3L116.84 297.752L113.048 302.168L109.358 306.547L105.773 310.884L102.295 315.175L98.9255 319.418L95.6674 323.612L92.5215 327.752L89.4912 331.835L86.5774 335.859L83.7813 339.821L81.1051 343.719L78.5498 347.55L76.1177 351.311L73.8076 355.002L71.6217 358.619L69.5622 362.159L67.628 365.621L65.8203 369.003L64.1411 372.303L62.5895 375.518L61.1663 378.649L59.8707 381.691L58.7048 384.645L57.6663 387.509L56.7564 390.281L55.9762 392.96L55.3235 395.543L54.8005 398.032L54.4038 400.423L54.1336 402.718L53.9909 404.913L53.9723 407.009L54.0802 409.005L54.3112 410.901L54.6665 412.695L55.1438 414.387L55.742 415.976L56.4611 417.463L57.298 418.848L58.2522 420.128" fill="#0E0C15"/>
<path d="M292.491 118.553L292.867 119.703L293.185 120.858L293.53 122.002L293.986 123.118L294.611 124.195L295.352 125.25L296.124 126.306L296.848 127.387L291.544 129.576L286.07 131.9L280.45 134.353L274.709 136.925L268.868 139.606L262.955 142.388L256.991 145.264L251.001 148.224L245.008 151.259L239.018 154.367L233.037 157.545L227.069 160.79L221.118 164.1L215.189 167.472L209.287 170.905L203.417 174.396L197.582 177.941L191.787 181.539L186.037 185.185L180.335 188.879L174.687 192.615L169.096 196.393L163.566 200.208L158.104 204.059L152.71 207.942L147.39 211.854L142.149 215.791L136.989 219.75L131.913 223.731L126.928 227.727L122.034 231.738L117.237 235.759L112.539 239.788L107.944 243.821L103.455 247.856L99.0741 251.89L94.8048 255.92L90.6499 259.942L86.6127 263.954L82.6942 267.952L78.8989 271.935L75.2289 275.898L71.6842 279.839L68.2681 283.756L64.9827 287.646L61.8303 291.506L58.812 295.334L55.9287 299.126L53.1827 302.88L50.5762 306.595L48.1092 310.267L45.7817 313.893L43.5969 317.473L41.5538 321.002L39.6534 324.481L37.8969 327.904L36.2852 331.272L34.8175 334.583L33.4946 337.833L32.3167 341.022L31.2826 344.147L30.3934 347.207L29.6481 350.2L29.0477 353.124L28.59 355.978L28.2762 358.76L28.1052 361.47L28.0757 364.106L28.1858 366.666L28.4364 369.149L28.8265 371.555L29.3539 373.882L30.0175 376.129L30.8184 378.295L31.7526 380.379" fill="#0E0C15"/>
<path d="M290.061 109.582L290.183 110.716L290.244 111.847L290.335 112.972L290.547 114.09L290.939 115.199L291.452 116.307L291.999 117.423L292.491 118.553L286.729 119.79L280.788 121.141L274.695 122.601L268.477 124.168L262.158 125.835L255.766 127.601L249.327 129.46L242.867 131.406L236.411 133.437L229.967 135.551L223.538 137.745L217.129 140.019L210.747 142.37L204.396 144.797L198.081 147.296L191.805 149.869L185.575 152.511L179.394 155.221L173.268 157.998L167.201 160.838L161.197 163.738L155.261 166.698L149.397 169.715L143.609 172.786L137.903 175.91L132.282 179.083L126.749 182.303L121.309 185.568L115.966 188.875L110.723 192.221L105.584 195.605L100.552 199.023L95.6323 202.472L90.8269 205.951L86.138 209.456L81.5702 212.985L77.1254 216.535L72.807 220.104L68.6173 223.689L64.5583 227.286L60.6344 230.895L56.8467 234.51L53.1963 238.132L49.6876 241.756L46.3194 245.381L43.0961 249.003L40.0179 252.619L37.0867 256.229L34.3047 259.828L31.6721 263.416L29.1898 266.988L26.8601 270.543L24.6829 274.078L22.6573 277.592L20.7874 281.081L19.0712 284.544L17.5097 287.979L16.1029 291.382L14.852 294.753L13.7558 298.089L12.8132 301.388L12.0264 304.648L11.3933 307.868L10.9139 311.044L10.5881 314.177L10.4159 317.263L10.3941 320.301L10.5238 323.289L10.8038 326.226L11.2321 329.112L11.8086 331.942L12.5308 334.717" fill="#0E0C15"/>
<path d="M289.641 100.824L289.506 101.9L289.31 102.962L289.146 104.024L289.105 105.1L289.249 106.198L289.518 107.316L289.82 108.446L290.062 109.582L284.05 109.854L277.858 110.219L271.511 110.677L265.039 111.228L258.467 111.872L251.824 112.611L245.138 113.442L238.436 114.369L231.742 115.389L225.064 116.501L218.41 117.706L211.781 119.003L205.184 120.39L198.625 121.866L192.106 123.429L185.635 125.079L179.214 126.815L172.851 128.636L166.547 130.538L160.309 132.521L154.14 134.584L148.046 136.725L142.029 138.942L136.096 141.232L130.25 143.596L124.497 146.03L118.837 148.532L113.278 151.1L107.819 153.734L102.469 156.429L97.2278 159.184L92.1009 161.998L87.0906 164.867L82.2013 167.791L77.435 170.764L72.7952 173.788L68.284 176.858L63.9046 179.971L59.6593 183.127L55.5523 186.322L51.5838 189.554L47.7568 192.82L44.0737 196.12L40.5356 199.449L37.1457 202.804L33.9039 206.185L30.8125 209.588L27.8726 213.012L25.0874 216.452L22.4558 219.908L19.9801 223.377L17.6602 226.855L15.4972 230.342L13.4922 233.834L11.6453 237.33L9.95624 240.827L8.42748 244.322L7.05775 247.814L5.84711 251.3L4.79448 254.777L3.90095 258.244L3.16656 261.698L2.59007 265.138L2.17061 268.562L1.90903 271.966L1.80448 275.35L1.85456 278.71L2.0594 282.047" fill="#0E0C15"/>
<path d="M291.235 92.6201L290.847 93.5954L290.403 94.5488L289.991 95.5088L289.701 96.5004L289.594 97.5454L289.609 98.6286L289.655 99.728L289.64 100.824L283.598 100.16L277.376 99.5668L271.002 99.0514L264.507 98.6188L257.914 98.2712L251.254 98.0151L244.554 97.8538L237.84 97.7928L231.14 97.8353L224.458 97.9824L217.802 98.2341L211.177 98.5882L204.586 99.0459L198.035 99.606L191.529 100.269L185.072 101.032L178.669 101.898L172.325 102.862L166.044 103.927L159.83 105.089L153.688 106.348L147.623 107.703L141.638 109.153L135.738 110.696L129.927 112.331L124.209 114.057L118.586 115.871L113.063 117.774L107.646 119.763L102.335 121.834L97.1347 123.989L92.0492 126.224L87.0803 128.539L82.2323 130.93L77.5086 133.396L72.9102 135.934L68.4404 138.543L64.1014 141.22L59.8974 143.965L55.8286 146.773L51.8993 149.645L48.1105 152.576L44.4645 155.564L40.9622 158.607L37.6061 161.704L34.397 164.851L31.3373 168.047L28.4289 171.289L25.671 174.574L23.0666 177.901L20.616 181.266L18.319 184.668L16.1777 188.103L14.1913 191.571L12.3618 195.067L10.688 198.59L9.17232 202.138L7.81349 205.708L6.61156 209.297L5.56658 212.904L4.6785 216.526L3.94625 220.161L3.37108 223.806" fill="#0E0C15"/>
<path d="M294.771 85.2831L294.149 86.1211L293.474 86.9307L292.831 87.7512L292.306 88.6229L291.954 89.572L291.717 90.5789L291.506 91.6064L291.237 92.6198L285.379 91.0812L279.349 89.5971L273.174 88.1773L266.881 86.8282L260.498 85.5599L254.049 84.3808L247.564 83.2999L241.069 82.3246L234.585 81.4638L228.124 80.7185L221.687 80.0875L215.281 79.5732L208.909 79.1733L202.579 78.89L196.291 78.7233L190.053 78.671L183.867 78.7353L177.738 78.9151L171.672 79.2093L165.67 79.6168L159.739 80.1388L153.882 80.774L148.103 81.5205L142.405 82.378L136.793 83.3467L131.271 84.4244L125.841 85.6111L120.507 86.9034L115.273 88.3015L110.142 89.8041L105.116 91.4081L100.2 93.1145L95.3966 94.9212L90.7088 96.8249L86.1377 98.8255L81.6875 100.921L77.3594 103.108L73.1565 105.386L69.0812 107.753L65.1354 110.208L61.3227 112.747L57.6429 115.369L54.0982 118.071L50.6919 120.852L47.4229 123.709L44.2945 126.64L41.3077 129.642L38.4626 132.715L35.7635 135.855L33.2082 139.059L30.8 142.326L28.5368 145.653L26.4218 149.037L24.4538 152.476L22.6341 155.969L20.9636 159.511L19.4435 163.102" fill="#0E0C15"/>
<path d="M300.094 79.0884L299.262 79.7596L298.385 80.3949L297.538 81.0465L296.798 81.7646L296.216 82.5841L295.736 83.4743L295.281 84.3896L294.769 85.2832L289.302 82.9676L283.674 80.6913L277.91 78.4673L272.036 76.3076L266.077 74.2241L260.057 72.2289L254.003 70.3351L247.938 68.5535L241.884 66.8961L235.849 65.3629L229.838 63.9573L223.853 62.678L217.901 61.5262L211.984 60.503L206.108 59.6073L200.275 58.8413L194.491 58.2038L188.758 57.696L183.082 57.3168L177.466 57.0662L171.912 56.9431L166.426 56.9496L161.011 57.0825L155.67 57.343L150.407 57.7298L145.226 58.243L140.128 58.8816L135.118 59.6422L130.199 60.527L125.372 61.5328L120.643 62.6584L116.012 63.9039L111.483 65.2681L107.06 66.7479L102.743 68.3432L98.5347 70.0518L94.4376 71.8715L90.4549 73.8002L86.5876 75.8379L82.8391 77.9824L79.2095 80.2315L75.7018 82.5819L72.3162 85.0336L69.056 87.5834L65.922 90.2292L62.9145 92.9686L60.0357 95.8006L57.2875 98.722L54.6701 101.731L52.1849 104.825" fill="#0E0C15"/>
<path d="M306.996 74.2665L305.988 74.7448L304.942 75.1839L303.924 75.6427L302.999 76.181L302.211 76.8392L301.51 77.5812L300.828 78.3494L300.095 79.0882L295.206 76.1222L290.172 73.1822L285.014 70.2859L279.754 67.4484L274.415 64.6839L269.02 62.0088L263.589 59.4372L258.147 56.9854L252.712 54.6644L247.291 52.4796L241.886 50.43L236.503 48.5176L231.145 46.7436L225.816 45.108L220.52 43.6108L215.259 42.2553L210.037 41.0392L204.859 39.9648L199.728 39.031L194.645 38.2377L189.617 37.586L184.644 37.0739L179.731 36.7034L174.881 36.4735L170.096 36.383L165.38 36.4321L160.736 36.6206L156.166 36.9453L151.672 37.4084L147.259 38.0067L142.928 38.74L138.68 39.6074L134.521 40.6077L130.451 41.7388L126.471 43.0006L122.586 44.391L118.796 45.9078L115.104 47.55L111.511 49.3163L108.019 51.2047L104.631 53.213L101.347 55.34L98.1695 57.5826L95.0983 59.9397" fill="#0E0C15"/>
<path d="M315.199 70.989L314.053 71.2593L312.879 71.487L311.73 71.7376L310.656 72.0776L309.693 72.5505L308.8 73.1161L307.92 73.7088L306.994 74.2668L302.849 70.7962L298.573 67.3452L294.187 63.9302L289.71 60.5707L285.159 57.2832L280.555 54.0861L275.916 50.9958L271.26 48.0308L266.605 45.2042L261.955 42.5204L257.313 39.9803L252.683 37.5863L248.069 35.3373L243.472 33.2364L238.897 31.2837L234.347 29.4792L229.824 27.8251L225.331 26.3214L220.871 24.968L216.448 23.7639L212.064 22.7113L207.722 21.809L203.424 21.0572L199.175 20.4568L194.974 20.0056L190.826 19.7049L186.733 19.5524L182.697 19.5491L178.72 19.6929L174.806 19.9828L170.955 20.4197L167.172 21.0005L163.456 21.7262L159.81 22.5936L156.237 23.6026L152.738 24.7512L149.316 26.0381L145.97 27.4623L142.704 29.0205" fill="#0E0C15"/>
<path d="M324.393 69.3721L323.154 69.4255L321.897 69.4343L320.659 69.4691L319.478 69.5988L318.378 69.8701L317.326 70.2373L316.282 70.634L315.201 70.9892L311.931 67.1808L308.55 63.3855L305.073 59.624L301.514 55.9158L297.888 52.2796L294.211 48.7349L290.496 45.2992L286.759 41.9931L283.011 38.8309L279.258 35.818L275.502 32.9533L271.745 30.2411L267.991 27.6803L264.242 25.2722L260.5 23.0188L256.768 20.9211L253.048 18.9794L249.343 17.1934L245.655 15.5643L241.987 14.0922L238.341 12.7769L234.719 11.6186L231.123 10.6172L227.557 9.77384L224.021 9.08624L220.519 8.55667L217.051 8.18183L213.62 7.96173L210.229 7.89632L206.879 7.9846L203.572 8.2254L200.31 8.6177L197.094 9.16143L193.927 9.85448" fill="#0E0C15"/>
<path d="M334.22 69.4666L332.934 69.301L331.641 69.0928L330.363 68.912L329.119 68.8281L327.922 68.888L326.754 69.046L325.586 69.2301L324.39 69.3718L322.097 65.3999L319.71 61.4401L317.243 57.513L314.703 53.6381L312.102 49.8362L309.451 46.127L306.759 42.53L304.034 39.0638L301.288 35.7446L298.524 32.5781L295.741 29.5629L292.945 26.7026L290.135 23.998L287.313 21.4493L284.484 19.0575L281.646 16.8247L278.804 14.75L275.958 12.8355L273.111 11.08L270.264 9.48472L267.42 8.04965L264.581 6.77362L261.748 5.65782L258.921 4.70216L256.105 3.90673L253.3 3.27034L250.509 2.79198L247.731 2.47162L244.971 2.30927L242.228 2.30165L239.505 2.45093" fill="#0E0C15"/>
<path d="M344.321 71.2625L343.036 70.8855L341.755 70.4693L340.482 70.0813L339.223 69.7882L337.976 69.6346L336.735 69.5768L335.487 69.543L334.223 69.4668L332.968 65.5113L331.64 61.5688L330.245 57.6602L328.787 53.8061L327.273 50.0249L325.709 46.3375L324.098 42.7634L322.446 39.32L320.758 36.0259L319.036 32.8823L317.281 29.8933L315.494 27.0569L313.679 24.3763L311.834 21.8526L309.962 19.4848L308.064 17.276L306.141 15.2253L304.196 13.3336L302.228 11.601L300.242 10.0276L298.236 8.61317L296.212 7.35787L294.174 6.26165L292.12 5.32455L290.053 4.54654L287.973 3.92652L285.885 3.46448L283.786 3.15828" fill="#0E0C15"/>
<path d="M354.309 74.6874L353.072 74.1143L351.85 73.5063L350.631 72.9255L349.401 72.4351L348.151 72.0755L346.884 71.8031L345.604 71.5547L344.319 71.2626L344.127 67.5L343.882 63.7559L343.583 60.0478L343.231 56.3963L342.828 52.8211L342.371 49.3385L341.864 45.9682L341.305 42.7286L340.694 39.635L340.033 36.6907L339.323 33.8957L338.564 31.2522L337.757 28.7612L336.902 26.4228L336.002 24.238L335.057 22.2079L334.066 20.3326L333.031 18.6121L331.954 17.0462L330.835 15.6362L329.677 14.3798L328.477 13.2792L327.239 12.3323L325.964 11.5401L324.651 10.9016L323.304 10.4176" fill="#0E0C15"/>
<path d="M391.094 39.4908L390.971 39.5114L390.766 39.6651L390.477 39.955L390.107 40.3788L389.652 40.9389L389.114 41.6341L388.492 42.4666L387.787 43.4354L386.997 44.5425L386.123 45.7869L385.164 47.1686L384.122 48.6886L382.997 50.3449L381.787 52.1385L380.495 54.0683L379.12 56.1343L377.663 58.3355L376.124 60.6706L374.512 63.1267L372.837 65.6907L371.105 68.3474L369.329 71.0824L365.675 76.7291L363.818 79.6113L362.675 78.8637L361.559 78.0868L360.437 77.336L359.283 76.6659L358.076 76.1134L356.83 75.6383L355.566 75.1828L354.308 74.687L355.165 71.2873L355.989 67.9115L356.773 64.5793L357.512 61.3059L358.202 58.1088L358.839 55.0054L359.417 52.0132L359.934 49.1474L360.384 46.4221L360.766 43.8418L361.083 41.4042L361.333 39.1126L361.518 36.9671L361.636 34.9676L361.689 33.1162L361.677 31.4109L361.6 29.8537L361.458 28.4448L361.253 27.183L360.985 26.0682L360.654 25.1006L360.262 24.2801L359.807 23.6056L359.292 23.0771L358.717 22.6946" fill="#0E0C15"/>
<path d="M420.687 60.7101L417.176 57.8388L413.607 55.0275L409.983 52.2771L406.304 49.59L402.574 46.9661L398.795 44.4065L394.968 41.9144L391.096 39.491L387.178 37.1362L383.221 34.8523L379.223 32.6402L375.189 30.5012L371.118 28.4363L367.015 26.4455L362.881 24.532L358.718 22.6949L354.53 20.9372L350.316 19.258L349.506 18.9486L345.183 17.3173L340.838 15.7678L336.476 14.3033L332.098 12.9216L327.706 11.626L323.304 10.4176M420.687 60.7101L421.345 61.2658L424.869 64.257L428.33 67.3059L431.726 70.4103L435.056 73.5704L438.319 76.7827L441.51 80.0462L444.631 83.3599L445.649 84.4714L448.757 87.8995L451.787 91.3755L454.74 94.8973L457.612 98.4627L460.403 102.07L461.581 103.614L464.34 107.329L467.013 111.084L469.598 114.876L473.331 120.606L475.778 124.535L478.132 128.496L480.39 132.485L481.612 134.668L483.811 138.755L485.909 142.868L489.092 149.453L491.017 153.678L492.838 157.923L493.935 160.561L495.675 164.889L497.306 169.233L498.304 172.047L499.847 176.468L501.276 180.899L502.165 183.877L503.499 188.381L504.716 192.89L505.488 196.02L506.602 200.593L507.594 205.167L508.238 208.436L509.122 213.066L509.881 217.694L510.389 221.09L511.032 225.765L511.55 230.432L511.915 233.941L512.31 238.649L512.524 242.207L512.793 246.951L512.93 251.677L512.992 255.324L513 260.076L512.906 263.754L512.779 268.527L512.517 273.275L512.266 277.017L511.866 281.776L511.457 285.529L510.919 290.296L510.242 295.028L509.672 298.818L508.854 303.548L508.128 307.33L507.166 312.051L506.284 315.819L505.177 320.523M420.687 60.7101L419.926 60.2731L419.062 59.956L418.094 59.7577L417.024 59.6814L415.852 59.7272L414.576 59.8939L413.197 60.1849L411.717 60.599L410.134 61.1383L408.449 61.8019L406.663 62.5919L404.775 63.5062L402.788 64.5457L400.701 65.7117L398.516 67.0029L396.234 68.4184L393.855 69.9603L391.381 71.6253L388.825 73.4047L386.199 75.2877L383.517 77.2622L380.792 79.3183L378.038 81.4421L375.269 83.6236L372.499 85.8509M323.304 10.4176L318.893 9.29521L317.423 8.93996L312.917 7.88517L308.408 6.92081L303.897 6.04579L299.386 5.26233L294.879 4.57041L292.951 4.28599L288.364 3.67468L283.784 3.15818L279.215 2.73758L272.388 2.24832L267.766 2.01294L263.161 1.87674L258.577 1.8375L256.068 1.82227L251.429 1.88219L246.815 2.04237L244.167 2.1862L239.507 2.451L234.878 2.81713L230.284 3.28458L227.438 3.60169L222.81 4.18031L218.22 4.86135L215.269 5.35058L210.654 6.14605L206.085 7.04721L203.044 7.71082L198.46 8.72966L193.926 9.85421L190.808 10.6954L186.27 11.942L181.788 13.2932L178.61 14.3142L174.133 15.7896L169.719 17.3718L166.497 18.5726L162.096 20.2801L157.764 22.0934L154.512 23.474L150.205 25.4147L146.982 26.9522L142.705 29.0204L138.506 31.1953L135.281 32.9083L131.123 35.2108L127.944 37.0763L123.833 39.5052L119.809 42.0408L116.653 44.0741L112.686 46.7362L109.595 48.9134L105.69 51.6996L101.88 54.5905L98.8358 56.9268L95.0983 59.9397M323.304 10.4176L324.651 10.9016L325.964 11.5401L327.239 12.3323L328.477 13.2792L329.677 14.3798L330.835 15.6362L331.954 17.0462L333.031 18.6121L334.066 20.3326L335.057 22.2079L336.002 24.238L336.902 26.4228L337.757 28.7612L338.564 31.2522L339.323 33.8957L340.033 36.6907L340.694 39.635L341.305 42.7286L341.864 45.9682L342.371 49.3385L342.828 52.8211L343.231 56.3963L343.583 60.0478L343.882 63.7559L344.127 67.5L344.319 71.2626L345.604 71.5547L346.884 71.8031L348.151 72.0755L349.401 72.4351L350.631 72.9255L351.85 73.5063L353.072 74.1143L354.309 74.6874M95.0983 59.9397L92.1365 62.41L88.4775 65.545L85.6051 68.1427L82.0299 71.3986L78.5614 74.7537L75.7664 77.4921L72.3907 80.9627L69.7003 83.8176L66.4214 87.4015L63.8411 90.3665L60.6648 94.0605L57.6071 97.8493L55.1325 100.931L52.1849 104.825M95.0983 59.9397L98.1695 57.5826L101.347 55.34L104.631 53.213L108.019 51.2047L111.511 49.3163L115.104 47.55L118.796 45.9078L122.586 44.391L126.471 43.0006L130.451 41.7388L134.521 40.6077L138.68 39.6074L142.928 38.74L147.259 38.0067L151.672 37.4084L156.166 36.9453L160.736 36.6206L165.38 36.4321L170.096 36.383L174.881 36.4735L179.731 36.7034L184.644 37.0739L189.617 37.586L194.645 38.2377L199.728 39.031L204.859 39.9648L210.037 41.0392L215.259 42.2553L220.52 43.6108L225.816 45.108L231.145 46.7436L236.503 48.5176L241.886 50.43L247.291 52.4796L252.712 54.6644L258.147 56.9854L263.589 59.4372L269.02 62.0088L274.415 64.6839L279.754 67.4484L285.014 70.2859L290.172 73.1822L295.206 76.1222L300.095 79.0882L300.828 78.3494L301.51 77.5812L302.211 76.8392L302.999 76.181L303.924 75.6427L304.942 75.1839L305.988 74.7448L306.996 74.2665M52.1849 104.825L49.8323 108.002L47.0003 111.996L44.7752 115.262L42.0641 119.355L39.9709 122.701L37.3818 126.887L34.9224 131.157L32.9643 134.582L30.6335 138.938L28.817 142.428L26.6192 146.865L24.9476 150.41L22.8859 154.923L21.3637 158.518L19.4415 163.102L17.6577 167.757L16.288 171.385L14.647 176.103L13.4331 179.761L11.9359 184.535L10.8778 188.213L9.5266 193.036L8.31928 197.92L7.42142 201.595L6.36221 206.519L5.62344 210.195L4.71248 215.152L4.1328 218.821L3.37108 223.806M52.1849 104.825L54.6701 101.731L57.2875 98.722L60.0357 95.8006L62.9145 92.9686L65.922 90.2292L69.056 87.5834L72.3162 85.0336L75.7018 82.5819L79.2095 80.2315L82.8391 77.9824L86.5876 75.8379L90.4549 73.8002L94.4376 71.8715L98.5347 70.0518L102.743 68.3432L107.06 66.7479L111.483 65.2681L116.012 63.9039L120.643 62.6584L125.372 61.5328L130.199 60.527L135.118 59.6422L140.128 58.8816L145.226 58.243L150.407 57.7298L155.67 57.343L161.011 57.0825L166.426 56.9496L171.912 56.9431L177.466 57.0662L183.082 57.3168L188.758 57.696L194.491 58.2038L200.275 58.8413L206.108 59.6073L211.984 60.503L217.901 61.5262L223.853 62.678L229.838 63.9573L235.849 65.3629L241.884 66.8961L247.938 68.5535L254.003 70.3351L260.057 72.2289L266.077 74.2241L272.036 76.3076L277.91 78.4673L283.674 80.6913L289.302 82.9676L294.769 85.2832L295.281 84.3896L295.736 83.4743L296.216 82.5841L296.798 81.7646L297.538 81.0465L298.385 80.3949L299.262 79.7596L300.094 79.0884M3.37108 223.806L2.75541 228.838L2.33808 232.464L1.87172 237.513L1.61453 241.11L1.29636 246.169L1.12417 251.266L1.02614 254.792L1 259.888L1.05773 263.365L1.17651 268.454L1.44241 273.57L1.65052 276.948L2.05801 282.047L2.96465 290.428L3.65547 295.518L4.15454 298.702L4.98164 303.756L5.94926 308.821L6.58122 311.863L7.67967 316.881L8.91639 321.902L9.67152 324.79L11.0325 329.756L12.5308 334.717M3.37108 223.806L3.94625 220.161L4.6785 216.526L5.56658 212.904L6.61156 209.297L7.81349 205.708L9.17232 202.138L10.688 198.59L12.3618 195.067L14.1913 191.571L16.1777 188.103L18.319 184.668L20.616 181.266L23.0666 177.901L25.671 174.574L28.4289 171.289L31.3373 168.047L34.397 164.851L37.6061 161.704L40.9622 158.607L44.4645 155.564L48.1105 152.576L51.8993 149.645L55.8286 146.773L59.8974 143.965L64.1014 141.22L68.4404 138.543L72.9102 135.934L77.5086 133.396L82.2323 130.93L87.0803 128.539L92.0492 126.224L97.1347 123.989L102.335 121.834L107.646 119.763L113.063 117.774L118.586 115.871L124.209 114.057L129.927 112.331L135.738 110.696L141.638 109.153L147.623 107.703L153.688 106.348L159.83 105.089L166.044 103.927L172.325 102.862L178.669 101.898L185.072 101.032L191.529 100.269L198.035 99.606L204.586 99.0459L211.177 98.5882L217.802 98.2341L224.458 97.9824L231.14 97.8353L237.84 97.7928L244.554 97.8538L251.254 98.0151L257.914 98.2712L264.507 98.6188L271.002 99.0514L277.376 99.5668L283.598 100.16L289.64 100.824L289.655 99.728L289.609 98.6286L289.594 97.5454L289.701 96.5004L289.991 95.5088L290.403 94.5488L290.847 93.5954L291.235 92.6201M12.5308 334.717L13.4004 337.435L15.0153 342.33L16.7653 347.215L17.7351 349.751L19.5941 354.561L21.5827 359.354L23.701 364.128L24.7319 366.404L26.9471 371.09L29.2877 375.749L31.7526 380.379M12.5308 334.717L11.8086 331.942L11.2321 329.112L10.8038 326.226L10.5238 323.289L10.3941 320.301L10.4159 317.263L10.5881 314.177L10.9139 311.044L11.3933 307.868L12.0264 304.648L12.8132 301.388L13.7558 298.089L14.852 294.753L16.1029 291.382L17.5097 287.979L19.0712 284.544L20.7874 281.081L22.6573 277.592L24.6829 274.078L26.8601 270.543L29.1898 266.988L31.6721 263.416L34.3047 259.828L37.0867 256.229L40.0179 252.619L43.0961 249.003L46.3194 245.381L49.6876 241.756L53.1963 238.132L56.8467 234.51L60.6344 230.895L64.5583 227.286L68.6173 223.689L72.807 220.104L77.1254 216.535L81.5702 212.985L86.138 209.456L90.8269 205.951L95.6323 202.472L100.552 199.023L105.584 195.605L110.723 192.221L115.966 188.875L121.309 185.568L126.749 182.303L132.282 179.083L137.903 175.91L143.609 172.786L149.397 169.715L155.261 166.698L161.197 163.738L167.201 160.838L173.268 157.998L179.394 155.221L185.575 152.511L191.805 149.869L198.081 147.296L204.396 144.797L210.747 142.37L217.129 140.019L223.538 137.745L229.967 135.551L236.411 133.437L242.867 131.406L249.327 129.46L255.766 127.601L262.158 125.835L268.477 124.168L274.695 122.601L280.788 121.141L286.729 119.79L292.491 118.553M31.7526 380.379L32.8194 382.381L35.3692 386.912L38.0389 391.407L40.8262 395.865L41.9029 397.579L44.761 401.927L47.7315 406.231L50.8119 410.487L51.8711 411.904L55.0094 416.042L58.2522 420.128M31.7526 380.379L30.8184 378.295L30.0175 376.129L29.3539 373.882L28.8265 371.555L28.4364 369.149L28.1858 366.666L28.0757 364.106L28.1052 361.47L28.2762 358.76L28.59 355.978L29.0477 353.124L29.6481 350.2L30.3934 347.207L31.2826 344.147L32.3167 341.022L33.4946 337.833L34.8175 334.583L36.2852 331.272L37.8969 327.904L39.6534 324.481L41.5538 321.002L43.5969 317.473L45.7817 313.893L48.1092 310.267L50.5762 306.595L53.1827 302.88L55.9287 299.126L58.812 295.334L61.8303 291.506L64.9827 287.646L68.2681 283.756L71.6842 279.839L75.2289 275.898L78.8989 271.935L82.6942 267.952L86.6127 263.954L90.6499 259.942L94.8048 255.92L99.0741 251.89L103.455 247.856L107.944 243.821L112.539 239.788L117.237 235.759L122.034 231.738L126.928 227.727L131.913 223.731L136.989 219.75L142.149 215.791L147.39 211.854L152.71 207.942L158.104 204.059L163.566 200.208L169.096 196.393L174.687 192.615L180.335 188.879L186.037 185.185L191.787 181.539L197.582 177.941L203.417 174.396L209.287 170.905L215.189 167.472L221.118 164.1L227.069 160.79L233.037 157.545L239.018 154.367L245.008 151.259L251.001 148.224L256.991 145.264L262.955 142.388L268.868 139.606L274.709 136.925L280.45 134.353L286.07 131.9L291.544 129.576L296.848 127.387M58.2522 420.128L61.5975 424.16L65.0441 428.133L68.5877 432.046L69.4834 433.021L73.0619 436.806L76.7319 440.524L80.4912 444.175L84.3378 447.756L88.2693 451.263M58.2522 420.128L57.298 418.848L56.4611 417.463L55.742 415.976L55.1438 414.387L54.6665 412.695L54.3112 410.901L54.0802 409.005L53.9723 407.009L53.9909 404.913L54.1336 402.718L54.4038 400.423L54.8005 398.032L55.3235 395.543L55.9762 392.96L56.7564 390.281L57.6663 387.509L58.7048 384.645L59.8707 381.691L61.1663 378.649L62.5895 375.518L64.1411 372.303L65.8203 369.003L67.628 365.621L69.5622 362.159L71.6217 358.619L73.8076 355.002L76.1177 351.311L78.5498 347.55L81.1051 343.719L83.7813 339.821L86.5774 335.859L89.4912 331.835L92.5215 327.752L95.6674 323.612L98.9255 319.418L102.295 315.175L105.773 310.884L109.358 306.547L113.048 302.168L116.84 297.752L120.731 293.3L124.719 288.816L128.802 284.302L132.977 279.764L137.239 275.204L141.588 270.624L146.02 266.029L150.53 261.421L155.118 256.806L159.777 252.184L164.506 247.563L169.302 242.943L174.158 238.328L179.074 233.723L184.045 229.131L189.067 224.556L194.136 219.999L199.249 215.467L204.402 210.96L209.59 206.485L214.81 202.043L220.056 197.638L225.327 193.275L230.617 188.954L235.923 184.682L241.239 180.46L246.565 176.291L251.891 172.18L257.217 168.128L262.539 164.139L267.848 160.219L273.126 156.377L278.352 152.629L283.505 148.986L288.564 145.463L293.508 142.07L298.315 138.823L302.967 135.732M88.2693 451.263L92.2826 454.696L96.3753 458.051L96.8995 458.468L100.993 461.685L105.159 464.82L109.395 467.872L113.697 470.839L118.063 473.72L122.489 476.511L126.973 479.211L131.512 481.818L136.101 484.329L140.74 486.745L145.424 489.063L150.149 491.281L154.913 493.399L159.712 495.414L160.338 495.672M88.2693 451.263L87.701 450.604L87.2313 449.825L86.8652 448.925L86.6004 447.905L86.4381 446.765L86.3814 445.504L86.4283 444.122L86.582 442.619L86.8413 440.997L87.2074 439.253L87.6803 437.391L88.26 435.409L88.9476 433.309L89.742 431.091L90.6453 428.755L91.6576 426.304L92.7767 423.736L94.0047 421.055L95.3396 418.261L96.7812 415.355L98.3307 412.337L99.9859 409.212L101.747 405.979L103.613 402.64L105.585 399.198L107.66 395.652L109.838 392.007L112.116 388.266L114.496 384.428L116.975 380.496L119.552 376.473L122.225 372.362L124.994 368.164L127.855 363.884L130.809 359.524L133.852 355.086L136.983 350.574L140.2 345.991L143.502 341.338L146.884 336.622L150.347 331.843L153.886 327.005L157.5 322.114L161.186 317.171L164.942 312.181L168.765 307.146L172.65 302.072L176.598 296.96L180.605 291.817L184.667 286.644L188.781 281.448L192.944 276.229L197.155 270.994L201.407 265.746L205.7 260.49L210.029 255.229L214.391 249.968L218.784 244.709L223.202 239.458L227.644 234.219L232.105 228.995L236.582 223.792L241.072 218.612L245.571 213.459L250.076 208.338L254.583 203.254L259.088 198.208L263.59 193.206L268.083 188.252L272.563 183.347L277.03 178.498L281.475 173.709L285.883 168.996L290.239 164.376L294.523 159.866L298.72 155.482L302.81 151.242L306.78 147.161L310.611 143.257L309.516 142.403L308.388 141.589L307.288 140.764L306.275 139.878L305.391 138.896L304.587 137.847L303.802 136.777L302.967 135.732M160.338 495.672L165.258 497.618L170.206 499.456L175.181 501.187L180.178 502.808L185.194 504.319L190.226 505.72L195.27 507.008L196.563 507.319L201.703 508.515M160.338 495.672L161.025 495.786L161.772 495.757L162.582 495.581L163.453 495.261L164.384 494.793L165.376 494.179L166.43 493.416L167.543 492.505L168.717 491.445L169.95 490.235L171.244 488.878L172.595 487.369L174.004 485.713L175.471 483.909L176.995 481.955L178.576 479.852L180.212 477.602L181.903 475.204L183.648 472.661L185.445 469.972L187.296 467.14L189.197 464.164L191.148 461.046L193.148 457.787L195.197 454.39L197.291 450.856L199.431 447.186L201.615 443.382L203.842 439.448L206.11 435.385L208.418 431.194L210.765 426.879L213.148 422.443L215.566 417.887L218.018 413.214L220.502 408.43L223.016 403.535L225.558 398.533L228.127 393.428L230.721 388.223L233.337 382.921L235.976 377.527L238.632 372.043L241.306 366.475L243.995 360.825L246.698 355.099L249.411 349.3L252.133 343.432L254.863 337.5L257.597 331.509L260.334 325.461L263.071 319.363L265.807 313.221L268.54 307.036L271.268 300.814L273.987 294.56L276.696 288.281L279.394 281.978L282.077 275.658L284.745 269.326L287.394 262.986L290.022 256.643L292.628 250.303L295.211 243.97L297.766 237.65L300.294 231.347L302.791 225.066L305.256 218.811L307.687 212.587L310.083 206.4L312.44 200.254L314.757 194.157L317.027 188.129L319.241 182.193L321.393 176.372L323.475 170.688L325.479 165.164L327.396 159.823L329.221 154.686M201.703 508.515L206.848 509.596L211.995 510.559L217.14 511.407L222.28 512.137L224.036 512.377L229.251 513.001L234.454 513.505L239.639 513.891L241.665 514.001L246.911 514.27L252.134 514.418L257.33 514.445L259.602 514.406L264.842 514.311L270.049 514.091L275.217 513.75L277.711 513.549L282.909 513.08L288.06 512.49L293.163 511.776L295.854 511.396L300.97 510.55L306.03 509.581L308.83 509.024L313.891 507.922L318.887 506.699L321.781 505.959L326.766 504.602L331.682 503.123L334.651 502.201L339.542 500.586L344.356 498.852L347.385 497.746L352.164 495.878L355.192 494.604L359.929 492.6L364.577 490.48L367.635 489.025L372.23 486.771L376.732 484.405L379.801 482.769L384.24 480.271L387.276 478.477L391.643 475.852L395.905 473.116L398.927 471.148M201.703 508.515L203.123 508.696L204.581 508.725L206.077 508.602L207.611 508.325L209.182 507.895L210.788 507.308L212.43 506.565L214.106 505.666L215.816 504.61L217.558 503.399L219.331 502.029L221.135 500.502L222.969 498.819L224.831 496.978L226.722 494.981L228.638 492.827L230.579 490.517L232.545 488.052L234.534 485.433L236.544 482.662L238.574 479.738L240.624 476.663L242.691 473.437L244.776 470.063L246.874 466.543L248.986 462.877L251.111 459.069L253.247 455.12L255.391 451.031L257.543 446.807L259.702 442.447L261.865 437.955L264.031 433.335L266.199 428.59L268.366 423.72L270.532 418.73L272.695 413.624L274.853 408.405L277.004 403.075L279.147 397.639L281.281 392.099L283.402 386.461L285.511 380.728L287.605 374.905L289.683 368.995L291.744 363.002L293.783 356.931L295.803 350.785L297.8 344.572L299.772 338.293L301.718 331.955L303.637 325.562L305.528 319.118L307.388 312.629L309.215 306.1L311.01 299.535L312.77 292.939L314.494 286.319L316.179 279.678L317.828 273.022L319.435 266.357L321.001 259.686L322.526 253.015L324.005 246.35L325.441 239.696L326.831 233.058L328.173 226.439L329.468 219.848L330.715 213.287L331.911 206.762L333.056 200.28L334.149 193.865L335.185 187.541L336.164 181.333L337.081 175.264L337.936 169.359L338.726 163.641L339.447 158.136M398.927 471.148L403.108 468.287L406.078 466.167L410.171 463.184L414.154 460.097L417.082 457.813L420.968 454.61L423.825 452.183L427.609 448.867L430.389 446.302L434.067 442.875L437.622 439.353L440.327 436.646L443.768 433.02L446.379 430.187L449.7 426.463L452.21 423.509L455.409 419.689L458.476 415.784L460.882 412.712L463.822 408.72L466.114 405.541L468.922 401.468L471.093 398.19L473.765 394.04L475.812 390.669L478.346 386.447L480.745 382.153L482.657 378.704L484.915 374.346L486.692 370.821L488.806 366.407L490.445 362.813L492.414 358.347L493.91 354.693L495.735 350.181L497.42 345.614L498.764 341.923L500.302 337.318L501.495 333.586L502.889 328.95L503.931 325.182L505.177 320.523M398.927 471.148L401.873 469.042L404.741 466.801L407.529 464.424L410.236 461.914L412.859 459.269L415.394 456.493L417.843 453.584L420.2 450.546L422.464 447.378L424.635 444.082L426.708 440.66L428.684 437.113L430.559 433.444L432.334 429.653L434.005 425.742L435.571 421.715L437.03 417.572L438.381 413.317L439.622 408.949L440.753 404.475L441.772 399.894L442.678 395.211L443.469 390.428L444.144 385.547L444.703 380.571L445.144 375.503L445.468 370.348L445.672 365.107L445.757 359.785L445.722 354.384L445.567 348.909L445.292 343.361L444.894 337.747L444.375 332.069L443.735 326.331L442.974 320.537L442.091 314.69L441.089 308.796L439.966 302.858L438.723 296.88L437.361 290.868L435.879 284.823L434.279 278.753L432.564 272.659L430.732 266.547L428.785 260.422L426.725 254.288L424.552 248.149L422.268 242.011L419.875 235.876L417.373 229.751L414.766 223.639L412.055 217.546L409.241 211.475L406.326 205.431L403.314 199.419L400.208 193.447L397.022 187.533L393.772 181.701L390.475 175.974L387.148 170.373L383.808 164.923L380.472 159.644L377.154 154.559L376.233 155.154L375.35 155.796L374.455 156.409L373.491 156.918L372.424 157.274L371.287 157.528L370.122 157.758L368.98 158.044M505.177 320.523L506.064 316.729L506.804 312.885L507.392 308.995L507.832 305.062L508.118 301.085L508.251 297.07L508.23 293.017L508.054 288.929L507.723 284.808L507.235 280.657L506.593 276.478L505.793 272.276L504.836 268.05L503.722 263.805L502.451 259.543L501.022 255.266L499.437 250.978L497.694 246.681L495.796 242.379L493.743 238.074L491.535 233.769L489.174 229.466L486.658 225.169L483.991 220.883L481.173 216.607L478.206 212.345L475.09 208.102L471.828 203.879L468.421 199.681L464.872 195.51L461.182 191.368L457.353 187.26L453.386 183.188L449.287 179.154L445.055 175.162L440.694 171.215L436.206 167.317L431.596 163.468L426.868 159.676L422.042 155.95L417.143 152.305L412.192 148.753L407.217 145.307L402.239 141.981L397.284 138.787L392.374 135.739M363.821 79.6117L365.006 80.2927L366.207 80.9389L367.387 81.5992L368.506 82.325L369.541 83.1488L370.523 84.0412L371.495 84.9565L372.5 85.8511L373.567 86.6923L374.661 87.5052L375.729 88.3279L376.718 89.1986L377.597 90.1455L378.402 91.1469L379.192 92.1679L380.025 93.1759M386.112 101.313L385.486 100.23L384.907 99.1414L384.308 98.0702L383.619 97.035L382.797 96.05L381.88 95.0954L380.935 94.1452L380.026 93.1754L383.589 91.7164L387.166 90.3172L390.739 88.9846L394.289 87.7271L397.8 86.5524L401.254 85.4693L404.635 84.4842L407.924 83.6049L411.108 82.8388L414.183 82.1851L417.147 81.6456L420.001 81.2174L422.742 80.9025L425.368 80.6987L427.878 80.6061L430.274 80.6246L432.551 80.7532L434.709 80.9919L436.75 81.3395L438.673 81.7939L440.475 82.355L442.157 83.0208L443.719 83.7923L445.161 84.6662L446.481 85.6436L447.68 86.7224L448.759 87.8993M386.112 101.313L386.831 102.379L387.591 103.43L388.32 104.482L388.946 105.545L389.418 106.63L389.788 107.732L390.135 108.846L390.531 109.965M386.112 101.313L390.322 100.711L394.557 100.182L398.797 99.731L403.021 99.3627L407.21 99.0794L411.341 98.8865L415.394 98.7874L419.351 98.7852L423.194 98.8843L426.92 99.0827L430.524 99.3801L434.007 99.7779L437.366 100.271L440.6 100.863L443.708 101.551L446.687 102.333L449.537 103.21L452.255 104.18L454.843 105.241L457.298 106.393L459.621 107.634L461.809 108.963L463.861 110.378L465.78 111.879L467.563 113.463L469.21 115.129L470.72 116.877L472.094 118.702M390.531 109.965L391.03 111.086L391.576 112.201L392.09 113.312L392.492 114.413L392.73 115.506L392.857 116.598L392.955 117.696L393.107 118.809M390.531 109.965L395.213 110.275L399.93 110.674L404.662 111.164L409.382 111.745L414.069 112.414L418.7 113.173L423.252 114.021L427.705 114.958L432.038 115.983L436.247 117.094L440.327 118.292L444.28 119.572L448.102 120.936L451.791 122.381L455.344 123.907L458.761 125.512L462.04 127.193L465.179 128.951L468.177 130.782L471.033 132.687L473.747 134.662L476.316 136.706L478.739 138.817L481.018 140.994L483.149 143.235L485.132 145.539L486.97 147.903L488.659 150.325L490.201 152.804L491.594 155.337L492.84 157.923M393.107 118.809L393.365 119.941L393.676 121.08L393.954 122.208L394.117 123.307L394.11 124.367L393.987 125.406L393.834 126.446L393.734 127.51M393.107 118.809L398.069 120.052L403.076 121.406L408.101 122.862L413.121 124.417L418.11 126.068L423.043 127.807L427.9 129.633L432.654 131.537L437.288 133.518L441.792 135.573L446.167 137.699L450.41 139.896L454.518 142.16L458.489 144.491L462.321 146.886L466.011 149.344L469.558 151.862L472.96 154.439L476.216 157.072L479.324 159.76L482.283 162.499L485.092 165.29L487.75 168.128L490.255 171.013L492.607 173.941L494.805 176.911L496.848 179.921L498.736 182.969L500.469 186.051L502.047 189.167L503.469 192.314L504.734 195.489L505.843 198.69L506.797 201.918L507.595 205.167M392.374 135.739L392.725 134.765L393.126 133.824L393.494 132.878L393.748 131.891L393.831 130.835L393.8 129.732L393.739 128.613L393.731 127.51L398.772 129.679L403.86 131.975L408.969 134.389L414.076 136.912L419.155 139.535L424.181 142.249L429.132 145.045L433.981 147.913L438.709 150.847L443.309 153.842L447.78 156.896L452.119 160.007L456.323 163.173L460.39 166.39L464.316 169.656L468.1 172.97L471.741 176.328L475.236 179.728L478.582 183.168L481.78 186.645L484.827 190.156L487.722 193.699L490.464 197.272L493.052 200.87L495.483 204.494L497.758 208.139L499.876 211.804L501.836 215.486L503.639 219.181L505.283 222.888L506.768 226.605L508.094 230.328L509.261 234.056L510.269 237.786L511.118 241.516L511.809 245.242L512.342 248.965L512.718 252.678L512.937 256.383L512.999 260.076M392.374 135.739L392.129 136.77L391.937 137.827L391.716 138.863L391.388 139.834L390.897 140.71L390.294 141.526L389.66 142.332L389.071 143.178M383.937 149.537L384.744 148.851L385.589 148.214L386.403 147.561L387.115 146.831L387.677 145.982L388.142 145.052L388.583 144.098L389.073 143.178L393.643 147.026L398.255 151.037L402.887 155.196L407.515 159.484L412.116 163.887L416.67 168.385L421.154 172.961L425.545 177.602L429.824 182.29L433.987 187.021L438.029 191.79L441.948 196.595L445.743 201.431L449.41 206.294L452.947 211.184L456.352 216.093L459.624 221.019L462.757 225.961L465.754 230.911L468.611 235.869L471.328 240.829L473.903 245.79L476.333 250.747L478.618 255.696L480.757 260.635L482.747 265.56L484.591 270.467L486.287 275.354L487.834 280.216L489.231 285.052L490.479 289.856L491.576 294.628L492.523 299.363L493.319 304.058L493.967 308.71L494.464 313.317L494.812 317.876L495.012 322.383L495.063 326.837L494.966 331.233L494.722 335.571L494.332 339.847L493.797 344.059L493.118 348.204L492.296 352.28L491.333 356.286L490.23 360.217L488.988 364.074L487.608 367.853L486.093 371.551L484.442 375.169L482.659 378.704M377.153 154.559L378.145 154.064L379.17 153.621L380.164 153.158L381.071 152.603L381.848 151.91L382.541 151.122L383.214 150.309L383.934 149.537L387.968 154.072L392.033 158.789L396.113 163.665L400.185 168.682L404.231 173.82L408.229 179.057L412.16 184.374L416.005 189.752L419.747 195.172L423.38 200.629L426.901 206.117L430.309 211.632L433.602 217.171L436.776 222.73L439.83 228.303L442.763 233.889L445.571 239.482L448.252 245.078L450.808 250.673L453.233 256.263L455.529 261.844L457.694 267.413L459.727 272.963L461.624 278.494L463.388 284.001L465.015 289.478L466.506 294.923L467.861 300.333L469.078 305.702L470.158 311.029L471.1 316.308L471.905 321.539L472.57 326.713L473.099 331.832L473.489 336.89L473.742 341.885L473.858 346.812L473.839 351.67L473.683 356.456L473.392 361.164L472.966 365.795L472.406 370.345L471.715 374.81L470.891 379.19L469.939 383.48L468.857 387.678L467.648 391.784L466.312 395.793L464.851 399.704L463.268 403.515L461.563 407.223L459.737 410.829L457.795 414.329L455.736 417.721L453.563 421.005L451.277 424.178L448.881 427.24L446.377 430.187M359.728 159.842L360.976 159.78L362.236 159.773L363.473 159.74L364.658 159.599L365.77 159.294L366.836 158.879L367.894 158.435L368.983 158.044L371.431 163.513L373.882 169.188L376.322 175.044L378.74 181.057L381.122 187.202L383.456 193.457L385.73 199.794L387.931 206.193L390.048 212.629L392.078 219.095L394.021 225.585L395.874 232.095L397.636 238.621L399.305 245.158L400.881 251.7L402.362 258.242L403.748 264.78L405.036 271.308L406.227 277.823L407.319 284.319L408.314 290.79L409.209 297.234L410.004 303.643L410.7 310.014L411.293 316.344L411.786 322.626L412.178 328.856L412.47 335.03L412.66 341.143L412.75 347.192L412.739 353.172L412.628 359.078L412.417 364.906L412.106 370.654L411.697 376.316L411.189 381.89L410.584 387.371L409.882 392.755L409.085 398.04L408.192 403.222L407.206 408.298L406.126 413.264L404.956 418.117L403.694 422.856L402.344 427.476L400.907 431.975L399.382 436.352L397.773 440.602L396.08 444.723L394.305 448.715L392.45 452.575L390.516 456.299L388.505 459.888L386.42 463.339L384.26 466.651L382.029 469.821L379.728 472.849L377.36 475.733L374.925 478.473L372.426 481.066L369.865 483.513L367.245 485.814L364.566 487.967L361.831 489.971L359.042 491.824L356.201 493.53L353.31 495.085L350.371 496.49L347.387 497.747M349.75 159.877L351.055 160.04L352.358 160.26L353.647 160.451L354.905 160.53L356.124 160.442L357.318 160.243L358.511 160.015L359.725 159.842L361.185 165.516L362.625 171.401L364.038 177.474L365.418 183.709L366.753 190.081L368.04 196.566L369.268 203.136L370.43 209.768L371.52 216.438L372.534 223.138L373.473 229.864L374.336 236.61L375.123 243.369L375.833 250.139L376.464 256.914L377.018 263.688L377.492 270.456L377.888 277.213L378.202 283.955L378.439 290.675L378.597 297.369L378.674 304.032L378.672 310.659L378.591 317.245L378.43 323.785L378.189 330.274L377.871 336.708L377.475 343.081L377.001 349.391L376.449 355.63L375.822 361.795L375.118 367.882L374.337 373.887L373.484 379.804L372.557 385.632L371.557 391.363L370.486 396.997L369.343 402.528L368.132 407.954L366.851 413.269L365.505 418.471L364.09 423.557L362.613 428.523L361.071 433.366L359.468 438.084L357.804 442.675L356.08 447.133L354.3 451.459L352.462 455.647L350.571 459.698L348.626 463.607L346.629 467.375L344.583 471L342.489 474.477L340.348 477.807L338.163 480.988L335.934 484.018L333.663 486.896L331.354 489.621L329.007 492.193L326.623 494.609L324.205 496.871L321.756 498.977L319.274 500.925L316.764 502.718L314.227 504.352L311.664 505.829L309.077 507.148L306.469 508.311L303.84 509.318L301.195 510.167L298.531 510.859L295.853 511.396M339.447 158.136L340.756 158.522L342.054 158.96L343.342 159.369L344.623 159.666L345.9 159.8L347.178 159.824L348.46 159.822L349.752 159.877L350.14 165.563L350.486 171.463L350.786 177.553L351.038 183.808L351.239 190.202L351.386 196.711L351.476 203.309L351.507 209.969L351.476 216.671L351.384 223.404L351.228 230.166L351.011 236.949L350.733 243.748L350.392 250.559L349.991 257.377L349.528 264.196L349.004 271.01L348.42 277.816L347.776 284.607L347.072 291.377L346.309 298.123L345.489 304.84L344.611 311.52L343.676 318.162L342.685 324.758L341.639 331.302L340.538 337.793L339.385 344.223L338.179 350.589L336.921 356.886L335.614 363.109L334.257 369.254L332.853 375.315L331.4 381.29L329.903 387.173L328.361 392.96L326.777 398.648L325.15 404.232L323.483 409.71L321.777 415.077L320.033 420.328L318.252 425.462L316.438 430.475L314.59 435.363L312.709 440.125L310.799 444.756L308.859 449.254L306.892 453.617L304.899 457.841L302.882 461.925L300.843 465.865L298.782 469.662L296.702 473.312L294.603 476.813L292.488 480.164L290.358 483.363L288.214 486.409L286.058 489.301L283.893 492.036L281.718 494.615L279.535 497.037L277.347 499.302L275.156 501.407L272.96 503.354L270.763 505.14L268.568 506.766L266.372 508.233L264.181 509.539L261.993 510.685L259.81 511.674L257.635 512.502L255.469 513.171L253.312 513.682L251.166 514.035L249.032 514.23L246.912 514.27M339.447 158.136L338.128 157.857L336.807 157.634L335.497 157.387L334.212 157.036L332.958 156.53L331.721 155.919L330.482 155.278L329.221 154.686M329.221 154.686L327.926 154.194L326.618 153.752L325.328 153.291L324.086 152.738L322.909 152.044L321.774 151.253L320.643 150.435L319.48 149.66M310.612 143.257L311.631 144.185L312.61 145.148L313.598 146.087L314.649 146.942L315.8 147.676L317.019 148.332L318.262 148.972L319.481 149.66L156.887 415.533L150.179 426.873L146.082 433.837L144.15 437.135L142.297 440.306L140.524 443.349L138.829 446.265L137.218 449.051L135.687 451.706L134.237 454.229L132.871 456.62L131.588 458.877L130.39 460.998L129.275 462.984L128.244 464.835L127.297 466.55L126.435 468.128L125.657 469.571L124.964 470.876L124.355 472.045L123.83 473.077L123.39 473.973L123.032 474.733L122.759 475.357L122.568 475.846L122.46 476.201L122.434 476.423L122.491 476.511M302.967 135.732L302.04 134.744L301.071 133.791L300.132 132.832L299.297 131.829L298.613 130.759L298.029 129.64L297.466 128.506L296.848 127.387M296.848 127.387L296.124 126.306L295.352 125.25L294.611 124.195L293.986 123.118L293.53 122.002L293.185 120.858L292.867 119.703L292.491 118.553M292.491 118.553L291.999 117.423L291.452 116.307L290.939 115.199L290.547 114.09L290.335 112.972L290.244 111.847L290.183 110.716L290.061 109.582M289.641 100.824L289.506 101.9L289.31 102.962L289.146 104.024L289.105 105.1L289.249 106.198L289.518 107.316L289.82 108.446L290.062 109.582L284.05 109.854L277.858 110.219L271.511 110.677L265.039 111.228L258.467 111.872L251.824 112.611L245.138 113.442L238.436 114.369L231.742 115.389L225.064 116.501L218.41 117.706L211.781 119.003L205.184 120.39L198.625 121.866L192.106 123.429L185.635 125.079L179.214 126.815L172.851 128.636L166.547 130.538L160.309 132.521L154.14 134.584L148.046 136.725L142.029 138.942L136.096 141.232L130.25 143.596L124.497 146.03L118.837 148.532L113.278 151.1L107.819 153.734L102.469 156.429L97.2278 159.184L92.1009 161.998L87.0906 164.867L82.2013 167.791L77.435 170.764L72.7952 173.788L68.284 176.858L63.9046 179.971L59.6593 183.127L55.5523 186.322L51.5838 189.554L47.7568 192.82L44.0737 196.12L40.5356 199.449L37.1457 202.804L33.9039 206.185L30.8125 209.588L27.8726 213.012L25.0874 216.452L22.4558 219.908L19.9801 223.377L17.6602 226.855L15.4972 230.342L13.4922 233.834L11.6453 237.33L9.95624 240.827L8.42748 244.322L7.05775 247.814L5.84711 251.3L4.79448 254.777L3.90095 258.244L3.16656 261.698L2.59007 265.138L2.17061 268.562L1.90903 271.966L1.80448 275.35L1.85456 278.71L2.0594 282.047M294.771 85.2831L294.149 86.1211L293.474 86.9307L292.831 87.7512L292.306 88.6229L291.954 89.572L291.717 90.5789L291.506 91.6064L291.237 92.6198L285.379 91.0812L279.349 89.5971L273.174 88.1773L266.881 86.8282L260.498 85.5599L254.049 84.3808L247.564 83.2999L241.069 82.3246L234.585 81.4638L228.124 80.7185L221.687 80.0875L215.281 79.5732L208.909 79.1733L202.579 78.89L196.291 78.7233L190.053 78.671L183.867 78.7353L177.738 78.9151L171.672 79.2093L165.67 79.6168L159.739 80.1388L153.882 80.774L148.103 81.5205L142.405 82.378L136.793 83.3467L131.271 84.4244L125.841 85.6111L120.507 86.9034L115.273 88.3015L110.142 89.8041L105.116 91.4081L100.2 93.1145L95.3966 94.9212L90.7088 96.8249L86.1377 98.8255L81.6875 100.921L77.3594 103.108L73.1565 105.386L69.0812 107.753L65.1354 110.208L61.3227 112.747L57.6429 115.369L54.0982 118.071L50.6919 120.852L47.4229 123.709L44.2945 126.64L41.3077 129.642L38.4626 132.715L35.7635 135.855L33.2082 139.059L30.8 142.326L28.5368 145.653L26.4218 149.037L24.4538 152.476L22.6341 155.969L20.9636 159.511L19.4435 163.102M315.199 70.989L314.053 71.2593L312.879 71.487L311.73 71.7376L310.656 72.0776L309.693 72.5505L308.8 73.1161L307.92 73.7088L306.994 74.2668L302.849 70.7962L298.573 67.3452L294.187 63.9302L289.71 60.5707L285.159 57.2832L280.555 54.0861L275.916 50.9958L271.26 48.0308L266.605 45.2042L261.955 42.5204L257.313 39.9803L252.683 37.5863L248.069 35.3373L243.472 33.2364L238.897 31.2837L234.347 29.4792L229.824 27.8251L225.331 26.3214L220.871 24.968L216.448 23.7639L212.064 22.7113L207.722 21.809L203.424 21.0572L199.175 20.4568L194.974 20.0056L190.826 19.7049L186.733 19.5524L182.697 19.5491L178.72 19.6929L174.806 19.9828L170.955 20.4197L167.172 21.0005L163.456 21.7262L159.81 22.5936L156.237 23.6026L152.738 24.7512L149.316 26.0381L145.97 27.4623L142.704 29.0205M324.393 69.3721L323.154 69.4255L321.897 69.4343L320.659 69.4691L319.478 69.5988L318.378 69.8701L317.326 70.2373L316.282 70.634L315.201 70.9892L311.931 67.1808L308.55 63.3855L305.073 59.624L301.514 55.9158L297.888 52.2796L294.211 48.7349L290.496 45.2992L286.759 41.9931L283.011 38.8309L279.258 35.818L275.502 32.9533L271.745 30.2411L267.991 27.6803L264.242 25.2722L260.5 23.0188L256.768 20.9211L253.048 18.9794L249.343 17.1934L245.655 15.5643L241.987 14.0922L238.341 12.7769L234.719 11.6186L231.123 10.6172L227.557 9.77384L224.021 9.08624L220.519 8.55667L217.051 8.18183L213.62 7.96173L210.229 7.89632L206.879 7.9846L203.572 8.2254L200.31 8.6177L197.094 9.16143L193.927 9.85448M334.22 69.4666L332.934 69.301L331.641 69.0928L330.363 68.912L329.119 68.8281L327.922 68.888L326.754 69.046L325.586 69.2301L324.39 69.3718L322.097 65.3999L319.71 61.4401L317.243 57.513L314.703 53.6381L312.102 49.8362L309.451 46.127L306.759 42.53L304.034 39.0638L301.288 35.7446L298.524 32.5781L295.741 29.5629L292.945 26.7026L290.135 23.998L287.313 21.4493L284.484 19.0575L281.646 16.8247L278.804 14.75L275.958 12.8355L273.111 11.08L270.264 9.48472L267.42 8.04965L264.581 6.77362L261.748 5.65782L258.921 4.70216L256.105 3.90673L253.3 3.27034L250.509 2.79198L247.731 2.47162L244.971 2.30927L242.228 2.30165L239.505 2.45093M344.321 71.2625L343.036 70.8855L341.755 70.4693L340.482 70.0813L339.223 69.7882L337.976 69.6346L336.735 69.5768L335.487 69.543L334.223 69.4668L332.968 65.5113L331.64 61.5688L330.245 57.6602L328.787 53.8061L327.273 50.0249L325.709 46.3375L324.098 42.7634L322.446 39.32L320.758 36.0259L319.036 32.8823L317.281 29.8933L315.494 27.0569L313.679 24.3763L311.834 21.8526L309.962 19.4848L308.064 17.276L306.141 15.2253L304.196 13.3336L302.228 11.601L300.242 10.0276L298.236 8.61317L296.212 7.35787L294.174 6.26165L292.12 5.32455L290.053 4.54654L287.973 3.92652L285.885 3.46448L283.786 3.15828M391.094 39.4908L390.971 39.5114L390.766 39.6651L390.477 39.955L390.107 40.3788L389.652 40.9389L389.114 41.6341L388.492 42.4666L387.787 43.4354L386.997 44.5425L386.123 45.7869L385.164 47.1686L384.122 48.6886L382.997 50.3449L381.787 52.1385L380.495 54.0683L379.12 56.1343L377.663 58.3355L376.124 60.6706L374.512 63.1267L372.837 65.6907L371.105 68.3474L369.329 71.0824L365.675 76.7291L363.818 79.6113L362.675 78.8637L361.559 78.0868L360.437 77.336L359.283 76.6659L358.076 76.1134L356.83 75.6383L355.566 75.1828L354.308 74.687L355.165 71.2873L355.989 67.9115L356.773 64.5793L357.512 61.3059L358.202 58.1088L358.839 55.0054L359.417 52.0132L359.934 49.1474L360.384 46.4221L360.766 43.8418L361.083 41.4042L361.333 39.1126L361.518 36.9671L361.636 34.9676L361.689 33.1162L361.677 31.4109L361.6 29.8537L361.458 28.4448L361.253 27.183L360.985 26.0682L360.654 25.1006L360.262 24.2801L359.807 23.6056L359.292 23.0771L358.717 22.6946" stroke="url(#paint0_angular_1019_28542)" stroke-width="2" stroke-linecap="round" stroke-linejoin="round"/>
<defs>
<radialGradient id="paint0_angular_1019_28542" cx="0" cy="0" r="1" gradientUnits="userSpaceOnUse" gradientTransform="translate(257 258.133) rotate(90) scale(256.311 256)">
<stop offset="0.0993526" stop-color="#FFC876"/>
<stop offset="0.427081" stop-color="#79FFF7"/>
<stop offset="0.718753" stop-color="#9F53FF"/>
<stop offset="1" stop-color="#FF98E2"/>
</radialGradient>
</defs>
</svg>
