<svg width="32" height="24" viewBox="0 0 32 24" fill="none" xmlns="http://www.w3.org/2000/svg">
  <path id="Vector"
    d="M26.8047 2.26058C24.772 1.32999 22.6262 0.669803 20.422 0.296875C20.1204 0.836074 19.8475 1.39084 19.6044 1.95884C17.2565 1.60504 14.8689 1.60504 12.521 1.95884C12.2778 1.3909 12.0049 0.836139 11.7034 0.296875C9.49777 0.672952 7.35054 1.33471 5.31587 2.26544C1.27653 8.24172 0.181532 14.0696 0.729033 19.8147C3.09457 21.5624 5.74228 22.8916 8.55708 23.7445C9.19088 22.8921 9.75172 21.9877 10.2336 21.0411C9.31831 20.6992 8.43484 20.2774 7.59347 19.7806C7.81491 19.62 8.03148 19.4545 8.24074 19.2939C10.6889 20.4453 13.361 21.0422 16.0664 21.0422C18.7717 21.0422 21.4438 20.4453 23.892 19.2939C24.1037 19.4667 24.3202 19.6322 24.5392 19.7806C23.6962 20.2782 22.8112 20.7008 21.8942 21.0435C22.3755 21.9897 22.9364 22.8933 23.5708 23.7445C26.388 22.8951 29.0377 21.5665 31.4037 19.8171C32.0461 13.1546 30.3062 7.38032 26.8047 2.26058ZM10.9271 16.2815C9.40144 16.2815 8.14098 14.8969 8.14098 13.1936C8.14098 11.4902 9.35764 10.0935 10.9223 10.0935C12.4869 10.0935 13.7376 11.4902 13.7109 13.1936C13.6841 14.8969 12.482 16.2815 10.9271 16.2815ZM21.2056 16.2815C19.6774 16.2815 18.4218 14.8969 18.4218 13.1936C18.4218 11.4902 19.6385 10.0935 21.2056 10.0935C22.7726 10.0935 24.0136 11.4902 23.9869 13.1936C23.9601 14.8969 22.7605 16.2815 21.2056 16.2815Z"
    fill="#5865F2" />
</svg>
