<svg width="22" height="32" viewBox="0 0 22 32" fill="none" xmlns="http://www.w3.org/2000/svg">
  <g id="Frame" clip-path="url(#clip0_1017_23422)">
    <path id="Vector"
      d="M11 15.9414C11 14.5739 11.5432 13.2624 12.5102 12.2954C13.4772 11.3284 14.7887 10.7852 16.1562 10.7852C17.5238 10.7852 18.8353 11.3284 19.8023 12.2954C20.7693 13.2624 21.3125 14.5739 21.3125 15.9414C21.3125 17.3089 20.7693 18.6204 19.8023 19.5874C18.8353 20.5544 17.5238 21.0977 16.1562 21.0977C14.7887 21.0977 13.4772 20.5544 12.5102 19.5874C11.5432 18.6204 11 17.3089 11 15.9414Z"
      fill="#1ABCFE" />
    <path id="Vector_2"
      d="M0.6875 26.2539C0.6875 24.8864 1.23075 23.5749 2.19773 22.6079C3.16472 21.6409 4.47623 21.0977 5.84375 21.0977H11V26.2539C11 27.6214 10.4568 28.9329 9.48977 29.8999C8.52278 30.8669 7.21127 31.4102 5.84375 31.4102C4.47623 31.4102 3.16472 30.8669 2.19773 29.8999C1.23075 28.9329 0.6875 27.6214 0.6875 26.2539H0.6875Z"
      fill="#0ACF83" />
    <path id="Vector_3"
      d="M11 0.472656V10.7852H16.1562C17.5238 10.7852 18.8353 10.2419 19.8023 9.27493C20.7693 8.30794 21.3125 6.99643 21.3125 5.62891C21.3125 4.26138 20.7693 2.94987 19.8023 1.98289C18.8353 1.0159 17.5238 0.472656 16.1562 0.472656L11 0.472656Z"
      fill="#FF7262" />
    <path id="Vector_4"
      d="M0.6875 5.62891C0.6875 6.99643 1.23075 8.30794 2.19773 9.27493C3.16472 10.2419 4.47623 10.7852 5.84375 10.7852H11V0.472656H5.84375C4.47623 0.472656 3.16472 1.0159 2.19773 1.98289C1.23075 2.94987 0.6875 4.26138 0.6875 5.62891H0.6875Z"
      fill="#F24E1E" />
    <path id="Vector_5"
      d="M0.6875 15.9414C0.6875 17.3089 1.23075 18.6204 2.19773 19.5874C3.16472 20.5544 4.47623 21.0977 5.84375 21.0977H11V10.7852H5.84375C4.47623 10.7852 3.16472 11.3284 2.19773 12.2954C1.23075 13.2624 0.6875 14.5739 0.6875 15.9414H0.6875Z"
      fill="#A259FF" />
  </g>
  <defs>
    <clipPath id="clip0_1017_23422">
      <rect width="20.625" height="30.9375" fill="white" transform="translate(0.6875 0.472656)" />
    </clipPath>
  </defs>
</svg>
