<svg width="34" height="41" viewBox="0 0 34 41" fill="none" xmlns="http://www.w3.org/2000/svg">
  <g filter="url(#filter0_dd_1020_28868)">
    <path
      d="M7.50781 3.51562H7.50781C7.10895 3.51563 6.71928 3.63535 6.38923 3.85931C6.05918 4.08326 5.80395 4.40113 5.65659 4.77177C5.50922 5.14241 5.47651 5.54875 5.56267 5.93819C5.64884 6.32763 5.84992 6.68224 6.13988 6.95611L6.13991 6.95613L11.9892 12.4805H7.50781C6.97945 12.4805 6.47273 12.6904 6.09913 13.064C5.72552 13.4376 5.51563 13.9443 5.51562 14.4726V23.4375C5.51562 23.7087 5.57098 23.977 5.67833 24.2261C5.78568 24.4751 5.94274 24.6996 6.13991 24.8858L15.632 33.8506C15.6321 33.8506 15.6321 33.8506 15.6321 33.8507C15.915 34.1179 16.27 34.2964 16.6532 34.3641C17.0365 34.4319 17.4312 34.3859 17.7886 34.2318C18.146 34.0778 18.4504 33.8224 18.6643 33.4973C18.8782 33.1722 18.9922 32.7915 18.9922 32.4023C18.9922 32.4023 18.9922 32.4023 18.9922 32.4023V25.4297H26.4922C26.8911 25.4297 27.2807 25.31 27.6108 25.086C27.9408 24.862 28.196 24.5442 28.3434 24.1735C28.4908 23.8029 28.5235 23.3966 28.4373 23.0071C28.3512 22.6177 28.1501 22.2631 27.8601 21.9892L27.8601 21.9892L22.0108 16.4648H26.4922C27.0206 16.4648 27.5273 16.2549 27.9009 15.8813C28.2745 15.5077 28.4844 15.001 28.4844 14.4727V5.50781C28.4844 4.97945 28.2745 4.47273 27.9009 4.09913C27.5273 3.72552 27.0206 3.51563 26.4922 3.51562H7.50781Z"
      stroke="white" stroke-width="1.875" stroke-linejoin="round" shape-rendering="crispEdges" />
  </g>
  <path
    d="M27.5469 14.4727V5.50781C27.5469 5.22809 27.4358 4.95983 27.238 4.76204C27.0402 4.56425 26.7719 4.45313 26.4922 4.45312H7.50781C7.29665 4.45313 7.09035 4.51651 6.91562 4.63507C6.74089 4.75364 6.60577 4.92192 6.52775 5.11814C6.44974 5.31436 6.43242 5.52948 6.47803 5.73566C6.52365 5.94183 6.6301 6.12957 6.78362 6.27456L14.3472 13.418H7.50781C7.22809 13.418 6.95983 13.5291 6.76204 13.7269C6.56425 13.9247 6.45313 14.1929 6.45313 14.4727V23.4375C6.45312 23.5811 6.48243 23.7231 6.53926 23.855C6.59609 23.9868 6.67924 24.1057 6.78362 24.2042L16.2758 33.1691C16.4256 33.3106 16.6135 33.4051 16.8164 33.441C17.0193 33.4768 17.2283 33.4525 17.4175 33.3709C17.6067 33.2894 17.7679 33.1542 17.8811 32.982C17.9944 32.8099 18.0547 32.6084 18.0547 32.4023V24.4922H26.4922C26.7033 24.4922 26.9096 24.4288 27.0844 24.3102C27.2591 24.1917 27.3942 24.0234 27.4722 23.8272C27.5503 23.631 27.5676 23.4158 27.522 23.2097C27.4763 23.0035 27.3699 22.8157 27.2164 22.6708L19.6528 15.5273H26.4922C26.7719 15.5273 27.0402 15.4162 27.238 15.2184C27.4358 15.0206 27.5469 14.7524 27.5469 14.4727Z"
    fill="url(#paint0_linear_1020_28868)" />
  <defs>
    <filter id="filter0_dd_1020_28868" x="0.828125" y="0.703125" width="32.3438" height="40.2539"
      filterUnits="userSpaceOnUse" color-interpolation-filters="sRGB">
      <feFlood flood-opacity="0" result="BackgroundImageFix" />
      <feColorMatrix in="SourceAlpha" type="matrix" values="0 0 0 0 0 0 0 0 0 0 0 0 0 0 0 0 0 0 127 0"
        result="hardAlpha" />
      <feOffset dy="0.9375" />
      <feGaussianBlur stdDeviation="0.46875" />
      <feComposite in2="hardAlpha" operator="out" />
      <feColorMatrix type="matrix" values="0 0 0 0 0 0 0 0 0 0 0 0 0 0 0 0 0 0 0.1 0" />
      <feBlend mode="normal" in2="BackgroundImageFix" result="effect1_dropShadow_1020_28868" />
      <feColorMatrix in="SourceAlpha" type="matrix" values="0 0 0 0 0 0 0 0 0 0 0 0 0 0 0 0 0 0 127 0"
        result="hardAlpha" />
      <feOffset dy="1.875" />
      <feGaussianBlur stdDeviation="1.875" />
      <feComposite in2="hardAlpha" operator="out" />
      <feColorMatrix type="matrix" values="0 0 0 0 0 0 0 0 0 0 0 0 0 0 0 0 0 0 0.2 0" />
      <feBlend mode="normal" in2="effect1_dropShadow_1020_28868" result="effect2_dropShadow_1020_28868" />
      <feBlend mode="normal" in="SourceGraphic" in2="effect2_dropShadow_1020_28868" result="shape" />
    </filter>
    <linearGradient id="paint0_linear_1020_28868" x1="17" y1="4.45312" x2="17" y2="33.4571"
      gradientUnits="userSpaceOnUse">
      <stop stop-color="#0788FF" />
      <stop offset="1" stop-color="#9900FF" />
    </linearGradient>
  </defs>
</svg>
