<svg width="42" height="43" viewBox="0 0 42 43" fill="none" xmlns="http://www.w3.org/2000/svg">
  <g filter="url(#filter0_dd_1020_29175)">
    <path
      d="M25.1963 4.54927L7.98833 5.81652C6.60077 5.93665 6.11719 6.84192 6.11719 7.92714V26.7486C6.11719 27.5942 6.41862 28.3169 7.14338 29.2831L11.1885 34.5314C11.853 35.3765 12.4568 35.5573 13.7256 35.4968L33.7092 34.29C35.3994 34.17 35.8828 33.3851 35.8828 32.0581V10.8834C35.8828 10.1597 35.5807 9.97891 34.6743 9.315L29.1814 5.45423C27.8532 4.48945 27.3095 4.36804 25.1963 4.54927Z"
      fill="white" />
    <path
      d="M7.91948 4.88155L7.91947 4.88148L7.90747 4.88252C7.00888 4.96031 6.27896 5.31118 5.79348 5.93297C5.32698 6.53046 5.17969 7.25924 5.17969 7.92714V26.7486C5.17969 27.8746 5.60352 28.7927 6.39344 29.8457L6.39338 29.8457L6.40084 29.8554L10.446 35.1037L10.4459 35.1037L10.4515 35.1109C10.8537 35.6224 11.3033 36.0133 11.909 36.2344C12.4825 36.4437 13.1043 36.465 13.7702 36.4332L13.7702 36.4333L13.7821 36.4326L33.7657 35.2258L33.7657 35.2259L33.7756 35.2252C34.7393 35.1567 35.5703 34.8856 36.1333 34.2463C36.6887 33.6157 36.8203 32.8089 36.8203 32.0581V10.8834C36.8203 10.3501 36.6955 9.88952 36.328 9.464C36.0829 9.18019 35.7238 8.91912 35.3708 8.66252C35.3231 8.62784 35.2755 8.59325 35.2283 8.5587L35.2209 8.55328L35.2134 8.548L29.7264 4.69139C29.0381 4.19185 28.4454 3.82879 27.6904 3.65768C26.9673 3.49381 26.171 3.52487 25.1218 3.61472L7.91948 4.88155Z"
      stroke="white" stroke-width="1.875" />
  </g>
  <path fill-rule="evenodd" clip-rule="evenodd"
    d="M11.25 9.91853C12.2151 10.7026 12.5771 10.6428 14.3894 10.5219L31.4745 9.496C31.8369 9.496 31.5356 9.1345 31.4147 9.07444L28.5773 7.02315C28.0336 6.60104 27.3092 6.11765 25.9209 6.23857L9.37736 7.4452C8.77401 7.50503 8.65352 7.8067 8.89378 8.04849L11.25 9.91853ZM12.2757 13.9002V31.8768C12.2757 32.8429 12.7585 33.2043 13.8451 33.1446L32.6217 32.0581C33.7089 31.9983 33.83 31.3338 33.83 30.549V12.6931C33.83 11.9095 33.5286 11.487 32.8631 11.5473L13.2414 12.6931C12.5172 12.7539 12.2757 13.1161 12.2757 13.9002H12.2757ZM30.8119 14.8645C30.9323 15.408 30.8119 15.951 30.2674 16.0121L29.3628 16.1923V29.4638C28.5773 29.8859 27.8529 30.1273 27.2493 30.1273C26.283 30.1273 26.0409 29.8254 25.3171 28.9211L19.3994 19.631V28.6194L21.272 29.042C21.272 29.042 21.272 30.1273 19.7612 30.1273L15.5962 30.3689C15.4752 30.1273 15.5962 29.5246 16.0187 29.4038L17.1056 29.1026V17.2182L15.5965 17.0972C15.4755 16.5538 15.7769 15.7702 16.6228 15.7094L21.0908 15.4082L27.2493 24.8192V16.4939L25.6791 16.3137C25.5586 15.6494 26.0409 15.1669 26.6448 15.1071L30.8119 14.8645ZM7.98833 5.81652L25.1963 4.54927C27.3095 4.36804 27.8532 4.48945 29.1814 5.45423L34.6743 9.31501C35.5807 9.97891 35.8828 10.1597 35.8828 10.8834V32.0581C35.8828 33.3851 35.3994 34.17 33.7092 34.29L13.7256 35.4968C12.4568 35.5573 11.853 35.3765 11.1885 34.5314L7.14338 29.2831C6.41862 28.3169 6.11719 27.5942 6.11719 26.7486V7.92714C6.11719 6.84192 6.60077 5.93665 7.98833 5.81652V5.81652Z"
    fill="black" />
  <defs>
    <filter id="filter0_dd_1020_29175" x="0.492188" y="0.728516" width="41.0156" height="42.2793"
      filterUnits="userSpaceOnUse" color-interpolation-filters="sRGB">
      <feFlood flood-opacity="0" result="BackgroundImageFix" />
      <feColorMatrix in="SourceAlpha" type="matrix" values="0 0 0 0 0 0 0 0 0 0 0 0 0 0 0 0 0 0 127 0"
        result="hardAlpha" />
      <feOffset dy="0.9375" />
      <feGaussianBlur stdDeviation="0.46875" />
      <feComposite in2="hardAlpha" operator="out" />
      <feColorMatrix type="matrix" values="0 0 0 0 0 0 0 0 0 0 0 0 0 0 0 0 0 0 0.1 0" />
      <feBlend mode="normal" in2="BackgroundImageFix" result="effect1_dropShadow_1020_29175" />
      <feColorMatrix in="SourceAlpha" type="matrix" values="0 0 0 0 0 0 0 0 0 0 0 0 0 0 0 0 0 0 127 0"
        result="hardAlpha" />
      <feOffset dy="1.875" />
      <feGaussianBlur stdDeviation="1.875" />
      <feComposite in2="hardAlpha" operator="out" />
      <feColorMatrix type="matrix" values="0 0 0 0 0 0 0 0 0 0 0 0 0 0 0 0 0 0 0.2 0" />
      <feBlend mode="normal" in2="effect1_dropShadow_1020_29175" result="effect2_dropShadow_1020_29175" />
      <feBlend mode="normal" in="SourceGraphic" in2="effect2_dropShadow_1020_29175" result="shape" />
    </filter>
  </defs>
</svg>
