<svg width="42" height="42" viewBox="0 0 42 42" fill="none" xmlns="http://www.w3.org/2000/svg">
  <g id="photoshop 1" filter="url(#filter0_dd_1017_23430)">
    <g clip-path="url(#clip0_1017_23430)">
      <rect x="6.11719" y="4.11719" width="29.7656" height="29.7656" rx="5.15625" fill="white" />
      <g id="Layer 2">
        <g id="Surfaces">
          <g id="Photo Surface">
            <g id="Outline no shadow">
              <path id="Vector"
                d="M30.6118 4.11719H11.3882C8.47709 4.11719 6.11719 6.5376 6.11719 9.52334V28.4767C6.11719 31.4624 8.47709 33.8828 11.3882 33.8828H30.6118C33.5229 33.8828 35.8828 31.4624 35.8828 28.4767V9.52334C35.8828 6.5376 33.5229 4.11719 30.6118 4.11719Z"
                fill="#001E36" />
            </g>
          </g>
        </g>
        <g id="Outlined Mnemonics &#38; Logos">
          <g id="Ps">
            <path id="Vector_2"
              d="M12.0938 25.8011V12.7146C12.0938 12.6192 12.1337 12.5712 12.2136 12.5712C12.4263 12.5712 12.6206 12.568 12.9136 12.561C13.2062 12.5543 13.5224 12.5474 13.862 12.5405C14.2015 12.5338 14.561 12.5269 14.9403 12.52C15.3197 12.5133 15.6957 12.5099 16.0685 12.5098C17.08 12.5098 17.9319 12.6395 18.6243 12.8989C19.2489 13.1156 19.8185 13.4724 20.2917 13.9434C20.6928 14.3516 21.0027 14.8442 21.2002 15.3872C21.387 15.9156 21.4816 16.4737 21.4798 17.0358C21.4798 18.1283 21.2335 19.0294 20.741 19.7391C20.2452 20.4518 19.5483 20.9915 18.7442 21.2854C17.9055 21.6063 16.9736 21.7152 15.9487 21.7152C15.6557 21.7152 15.4494 21.7117 15.3297 21.7049C15.2099 21.6982 15.0302 21.6948 14.7906 21.6947V25.7807C14.7941 25.8057 14.7918 25.8312 14.784 25.8552C14.7762 25.8792 14.7631 25.901 14.7456 25.9189C14.7282 25.9368 14.7069 25.9503 14.6835 25.9583C14.6601 25.9663 14.6353 25.9686 14.6108 25.965H12.2335C12.1403 25.965 12.0938 25.9106 12.0938 25.8011ZM14.7906 15.0288V19.2971C14.9634 19.3108 15.1231 19.3177 15.2698 19.3176H15.9287C16.4135 19.3159 16.8952 19.237 17.3564 19.0838C17.752 18.9633 18.1055 18.7287 18.3748 18.408C18.6343 18.0941 18.7641 17.6572 18.7642 17.0973C18.7747 16.7011 18.6742 16.3102 18.4746 15.9708C18.2647 15.6427 17.9615 15.3889 17.606 15.2438C17.1418 15.0588 16.6461 14.9717 16.1483 14.9878C15.8288 14.9878 15.546 14.9913 15.2997 14.9981C15.0533 15.0051 14.8835 15.0154 14.7906 15.0288Z"
              fill="#31A8FF" />
            <path id="Vector_3"
              d="M29.1999 18.5218C28.8247 18.324 28.425 18.1794 28.0118 18.0917C27.5566 17.9846 27.0912 17.9296 26.6241 17.9279C26.3714 17.9208 26.1191 17.9519 25.8753 18.02C25.7201 18.0555 25.5821 18.1462 25.4859 18.276C25.4208 18.3799 25.3862 18.5007 25.3861 18.6242C25.3897 18.744 25.4318 18.8592 25.5059 18.9519C25.6225 19.0918 25.765 19.2066 25.9252 19.2898C26.2099 19.447 26.5032 19.5872 26.8038 19.7096C27.4739 19.9397 28.1143 20.2526 28.7107 20.6414C29.117 20.9044 29.4532 21.2669 29.6891 21.6961C29.8875 22.1026 29.9869 22.5524 29.9787 23.0069C29.9906 23.607 29.8234 24.1965 29.4995 24.6964C29.1526 25.2039 28.6709 25.5984 28.1117 25.833C27.5058 26.106 26.757 26.2426 25.8653 26.2427C25.2988 26.2485 24.7333 26.1936 24.178 26.0788C23.7405 25.9965 23.3146 25.859 22.9101 25.6692C22.8664 25.6461 22.8301 25.6107 22.8053 25.5672C22.7806 25.5237 22.7684 25.4738 22.7703 25.4235V23.2117C22.7679 23.19 22.7713 23.1681 22.7801 23.1482C22.7889 23.1284 22.8027 23.1114 22.8202 23.099C22.8374 23.0891 22.8571 23.0847 22.8767 23.0866C22.8963 23.0884 22.9149 23.0963 22.93 23.1093C23.4078 23.3982 23.9265 23.6089 24.4676 23.7339C24.9444 23.8565 25.4336 23.9218 25.9252 23.9284C26.391 23.9284 26.7338 23.867 26.9535 23.7441C27.0528 23.6975 27.1367 23.6224 27.1952 23.5279C27.2537 23.4334 27.2842 23.3236 27.283 23.2117C27.283 23.0344 27.1832 22.8637 26.9835 22.6997C26.7839 22.5358 26.3778 22.3378 25.7654 22.1057C25.1385 21.8819 24.544 21.5719 23.9983 21.1842C23.608 20.9057 23.2866 20.5375 23.0598 20.109C22.8634 19.7054 22.7642 19.2595 22.7703 18.8085C22.7692 18.2666 22.9143 17.735 23.1896 17.2725C23.5035 16.7632 23.9542 16.3578 24.4875 16.1052C25.0731 15.805 25.8053 15.6548 26.684 15.6546C27.1986 15.6504 27.7127 15.688 28.2215 15.7673C28.59 15.8152 28.9502 15.9151 29.2919 16.0642C29.319 16.0722 29.344 16.0865 29.3647 16.1061C29.3855 16.1256 29.4016 16.1498 29.4117 16.1768C29.4252 16.2269 29.4319 16.2786 29.4317 16.3304V18.3989C29.4331 18.423 29.4283 18.447 29.4178 18.4686C29.4072 18.4901 29.3914 18.5085 29.3718 18.5218C29.3451 18.5354 29.3157 18.5425 29.2859 18.5425C29.2561 18.5425 29.2266 18.5354 29.1999 18.5218Z"
              fill="#31A8FF" />
          </g>
        </g>
      </g>
    </g>
    <rect x="5.17969" y="3.17969" width="31.6406" height="31.6406" rx="6.09375" stroke="white" stroke-width="1.875" />
  </g>
  <defs>
    <filter id="filter0_dd_1017_23430" x="0.492188" y="0.367188" width="41.0156" height="41.0156"
      filterUnits="userSpaceOnUse" color-interpolation-filters="sRGB">
      <feFlood flood-opacity="0" result="BackgroundImageFix" />
      <feColorMatrix in="SourceAlpha" type="matrix" values="0 0 0 0 0 0 0 0 0 0 0 0 0 0 0 0 0 0 127 0"
        result="hardAlpha" />
      <feOffset dy="0.9375" />
      <feGaussianBlur stdDeviation="0.46875" />
      <feComposite in2="hardAlpha" operator="out" />
      <feColorMatrix type="matrix" values="0 0 0 0 0 0 0 0 0 0 0 0 0 0 0 0 0 0 0.1 0" />
      <feBlend mode="normal" in2="BackgroundImageFix" result="effect1_dropShadow_1017_23430" />
      <feColorMatrix in="SourceAlpha" type="matrix" values="0 0 0 0 0 0 0 0 0 0 0 0 0 0 0 0 0 0 127 0"
        result="hardAlpha" />
      <feOffset dy="1.875" />
      <feGaussianBlur stdDeviation="1.875" />
      <feComposite in2="hardAlpha" operator="out" />
      <feColorMatrix type="matrix" values="0 0 0 0 0 0 0 0 0 0 0 0 0 0 0 0 0 0 0.2 0" />
      <feBlend mode="normal" in2="effect1_dropShadow_1017_23430" result="effect2_dropShadow_1017_23430" />
      <feBlend mode="normal" in="SourceGraphic" in2="effect2_dropShadow_1017_23430" result="shape" />
    </filter>
    <clipPath id="clip0_1017_23430">
      <rect x="6.11719" y="4.11719" width="29.7656" height="29.7656" rx="5.15625" fill="white" />
    </clipPath>
  </defs>
</svg>
