<svg width="42" height="42" viewBox="0 0 42 42" fill="none" xmlns="http://www.w3.org/2000/svg">
  <g filter="url(#filter0_dd_1020_29161)">
    <mask id="path-1-outside-1_1020_29161" maskUnits="userSpaceOnUse" x="4.38086" y="2.46875" width="33" height="33"
      fill="black">
      <rect fill="white" x="4.38086" y="2.46875" width="33" height="33" />
      <path fill-rule="evenodd" clip-rule="evenodd"
        d="M6.67153 4.81528C6.86506 4.60007 7.15033 4.46875 7.46168 4.46875H34.3601C34.6739 4.46875 34.9551 4.60007 35.1508 4.8134C35.3327 5.00316 35.4433 5.26487 35.4433 5.54982V17.3662C35.4433 17.506 35.4182 17.6377 35.3695 17.7577C35.3309 17.8582 35.2787 17.9497 35.213 18.031C35.2112 18.0334 35.2093 18.0357 35.2075 18.038C35.1956 18.053 35.1836 18.068 35.1703 18.0813L23.1654 32.3316L22.7994 32.7674C22.7994 32.7696 22.7994 32.7696 22.7972 32.7696C22.3536 33.1978 21.7645 33.4771 21.1116 33.5233C21.046 33.5289 20.9802 33.5308 20.9121 33.5308C20.1797 33.5308 19.5152 33.2403 19.0267 32.7693C19.0263 32.7693 19.026 32.7693 19.0258 32.7693C19.0255 32.7693 19.0253 32.7693 19.0252 32.7692C19.0248 32.769 19.0248 32.7686 19.0248 32.7677L18.6588 32.3317L6.67147 18.1027C6.66362 18.0989 6.65796 18.0911 6.65388 18.0832L6.60549 18.0273C6.60336 18.025 6.60173 18.0228 6.60009 18.0205C6.59883 18.0188 6.59757 18.0171 6.59607 18.0154C6.53763 17.9362 6.48736 17.8507 6.45438 17.7577C6.40976 17.6475 6.38463 17.5274 6.38086 17.4033V17.3298C6.38086 17.3066 6.38274 17.283 6.38683 17.2598C6.40788 17.016 6.5125 16.7986 6.67147 16.6283C6.8672 16.4172 7.14996 16.2836 7.46162 16.2836H10.1029L6.65136 12.1893C6.63691 12.1733 6.62246 12.1551 6.60801 12.1366C6.54454 12.0552 6.49176 11.9644 6.45343 11.8642C6.41008 11.7536 6.38463 11.6336 6.38086 11.5066V11.4338C6.38809 11.1632 6.4971 10.9198 6.67147 10.7347C6.86595 10.5201 7.14902 10.3875 7.46162 10.3875H10.1241L6.67907 6.29756C6.6731 6.29159 6.66744 6.28594 6.66367 6.27997C6.64042 6.25703 6.61875 6.2319 6.59958 6.20456C6.54334 6.13262 6.49905 6.05533 6.46386 5.97207C6.46276 5.96897 6.46159 5.96606 6.46045 5.96321C6.45802 5.95713 6.45572 5.95138 6.45443 5.94474C6.40951 5.83447 6.38437 5.71445 6.38092 5.58658V5.51495C6.38877 5.24539 6.49716 4.99751 6.67153 4.81528ZM15.3615 16.6029L20.9118 23.1911V23.1904L15.3615 16.6029ZM20.9118 29.1095L20.9102 29.1111L12.8095 19.4967L20.9102 29.1117L20.9118 29.1101V29.1095Z" />
    </mask>
    <path fill-rule="evenodd" clip-rule="evenodd"
      d="M6.67153 4.81528C6.86506 4.60007 7.15033 4.46875 7.46168 4.46875H34.3601C34.6739 4.46875 34.9551 4.60007 35.1508 4.8134C35.3327 5.00316 35.4433 5.26487 35.4433 5.54982V17.3662C35.4433 17.506 35.4182 17.6377 35.3695 17.7577C35.3309 17.8582 35.2787 17.9497 35.213 18.031C35.2112 18.0334 35.2093 18.0357 35.2075 18.038C35.1956 18.053 35.1836 18.068 35.1703 18.0813L23.1654 32.3316L22.7994 32.7674C22.7994 32.7696 22.7994 32.7696 22.7972 32.7696C22.3536 33.1978 21.7645 33.4771 21.1116 33.5233C21.046 33.5289 20.9802 33.5308 20.9121 33.5308C20.1797 33.5308 19.5152 33.2403 19.0267 32.7693C19.0263 32.7693 19.026 32.7693 19.0258 32.7693C19.0255 32.7693 19.0253 32.7693 19.0252 32.7692C19.0248 32.769 19.0248 32.7686 19.0248 32.7677L18.6588 32.3317L6.67147 18.1027C6.66362 18.0989 6.65796 18.0911 6.65388 18.0832L6.60549 18.0273C6.60336 18.025 6.60173 18.0228 6.60009 18.0205C6.59883 18.0188 6.59757 18.0171 6.59607 18.0154C6.53763 17.9362 6.48736 17.8507 6.45438 17.7577C6.40976 17.6475 6.38463 17.5274 6.38086 17.4033V17.3298C6.38086 17.3066 6.38274 17.283 6.38683 17.2598C6.40788 17.016 6.5125 16.7986 6.67147 16.6283C6.8672 16.4172 7.14996 16.2836 7.46162 16.2836H10.1029L6.65136 12.1893C6.63691 12.1733 6.62246 12.1551 6.60801 12.1366C6.54454 12.0552 6.49176 11.9644 6.45343 11.8642C6.41008 11.7536 6.38463 11.6336 6.38086 11.5066V11.4338C6.38809 11.1632 6.4971 10.9198 6.67147 10.7347C6.86595 10.5201 7.14902 10.3875 7.46162 10.3875H10.1241L6.67907 6.29756C6.6731 6.29159 6.66744 6.28594 6.66367 6.27997C6.64042 6.25703 6.61875 6.2319 6.59958 6.20456C6.54334 6.13262 6.49905 6.05533 6.46386 5.97207C6.46276 5.96897 6.46159 5.96606 6.46045 5.96321C6.45802 5.95713 6.45572 5.95138 6.45443 5.94474C6.40951 5.83447 6.38437 5.71445 6.38092 5.58658V5.51495C6.38877 5.24539 6.49716 4.99751 6.67153 4.81528ZM15.3615 16.6029L20.9118 23.1911V23.1904L15.3615 16.6029ZM20.9118 29.1095L20.9102 29.1111L12.8095 19.4967L20.9102 29.1117L20.9118 29.1101V29.1095Z"
      fill="#FF9D8D" />
    <path
      d="M6.67153 4.81528L8.02623 6.11159L8.0463 6.09062L8.06571 6.06903L6.67153 4.81528ZM35.1508 4.8134L33.7693 6.08103L33.7831 6.09612L33.7973 6.11091L35.1508 4.8134ZM35.3695 17.7577L33.6321 17.0527L33.6256 17.0688L33.6193 17.085L35.3695 17.7577ZM35.213 18.031L33.7539 16.8535L33.749 16.8596L35.213 18.031ZM35.2075 18.038L36.6747 19.2054L36.6748 19.2053L35.2075 18.038ZM35.1703 18.0813L33.8445 16.7554L33.7879 16.812L33.7363 16.8733L35.1703 18.0813ZM23.1654 32.3316L21.7314 31.1236L21.7297 31.1257L23.1654 32.3316ZM22.7994 32.7674L21.3636 31.5614L20.9244 32.0844V32.7674H22.7994ZM22.7972 32.7696V30.8946H22.0399L21.495 31.4206L22.7972 32.7696ZM21.1116 33.5233L20.9793 31.653L20.965 31.654L20.9507 31.6552L21.1116 33.5233ZM20.9121 33.5308L20.9121 35.4058L20.9122 35.4058L20.9121 33.5308ZM19.0267 32.7693L20.328 31.4194L19.7833 30.8943H19.0267V32.7693ZM19.0258 32.7693L19.124 30.8968L19.1121 30.8963L19.0258 32.7693ZM19.0252 32.7692L19.7847 31.0549L19.7758 31.051L19.0252 32.7692ZM19.0248 32.7677H20.8998V32.0851L20.461 31.5623L19.0248 32.7677ZM18.6588 32.3317L20.095 31.1262L20.0928 31.1236L18.6588 32.3317ZM6.67147 18.1027L8.10543 16.8946L7.84595 16.5866L7.48288 16.4124L6.67147 18.1027ZM6.65388 18.0832L8.31741 17.2182L8.21586 17.0229L8.07185 16.8564L6.65388 18.0832ZM6.60549 18.0273L8.02347 16.8005L8.00375 16.7777L7.98331 16.7556L6.60549 18.0273ZM6.60009 18.0205L8.10924 16.9079L8.10908 16.9076L6.60009 18.0205ZM6.59607 18.0154L5.0875 19.1288L5.12454 19.179L5.16484 19.2266L6.59607 18.0154ZM6.45438 17.7577L8.22149 17.1309L8.20784 17.0924L8.19252 17.0545L6.45438 17.7577ZM6.38086 17.4033H4.50586V17.4318L4.50672 17.4603L6.38086 17.4033ZM6.38683 17.2598L8.23355 17.5842L8.2478 17.5031L8.25488 17.4211L6.38683 17.2598ZM6.67147 16.6283L8.04204 17.9078L8.04648 17.903L6.67147 16.6283ZM10.1029 16.2836V18.1586H14.1358L11.5364 15.0751L10.1029 16.2836ZM6.65136 12.1893L8.08494 10.9808L8.06472 10.9568L8.04371 10.9336L6.65136 12.1893ZM6.60801 12.1366L8.08671 10.9837L8.0865 10.9834L6.60801 12.1366ZM6.45343 11.8642L8.20473 11.1944L8.20193 11.1871L8.19908 11.1798L6.45343 11.8642ZM6.38086 11.5066H4.50586V11.5345L4.50669 11.5623L6.38086 11.5066ZM6.38086 11.4338L4.50653 11.3837L4.50586 11.4087V11.4338H6.38086ZM6.67147 10.7347L8.0361 12.0206L8.04857 12.0073L8.06079 11.9938L6.67147 10.7347ZM10.1241 10.3875V12.2625H14.1549L11.5581 9.17963L10.1241 10.3875ZM6.67907 6.29756L8.11314 5.08964L8.06153 5.02837L8.00489 4.97173L6.67907 6.29756ZM6.66367 6.27997L8.24897 5.27873L8.13388 5.09651L7.98045 4.94515L6.66367 6.27997ZM6.59958 6.20456L8.13481 5.12814L8.10684 5.08824L8.07683 5.04985L6.59958 6.20456ZM6.46386 5.97207L4.6968 6.59909L4.71527 6.65114L4.73678 6.70201L6.46386 5.97207ZM6.46045 5.96321L4.71962 6.65972L4.71962 6.65973L6.46045 5.96321ZM6.45443 5.94474L8.29527 5.58845L8.2603 5.40775L8.19086 5.23731L6.45443 5.94474ZM6.38092 5.58658H4.50592V5.61192L4.5066 5.63724L6.38092 5.58658ZM6.38092 5.51495L4.50671 5.46034L4.50592 5.48764V5.51495H6.38092ZM15.3615 16.6029L16.7954 15.3948L13.9275 17.811L15.3615 16.6029ZM20.9118 23.1911L19.4779 24.3992L22.7868 28.3269V23.1911H20.9118ZM20.9118 23.1904H22.7868V22.5058L22.3457 21.9823L20.9118 23.1904ZM20.9102 29.1111L19.4763 30.3192L20.791 31.8796L22.2349 30.438L20.9102 29.1111ZM20.9118 29.1095H22.7868V24.5881L19.5871 27.7826L20.9118 29.1095ZM12.8095 19.4967L14.2434 18.2885L11.3756 20.7047L12.8095 19.4967ZM20.9102 29.1117L19.4763 30.3198L20.7924 31.8819L22.2364 30.4371L20.9102 29.1117ZM20.9118 29.1101L22.238 30.4355L22.7868 29.8864V29.1101H20.9118ZM7.46168 2.59375C6.62141 2.59375 5.82839 2.94877 5.27735 3.56154L8.06571 6.06903C7.90173 6.25138 7.67926 6.34375 7.46168 6.34375V2.59375ZM34.3601 2.59375H7.46168V6.34375H34.3601V2.59375ZM36.5324 3.54577C35.9884 2.95284 35.2092 2.59375 34.3601 2.59375V6.34375C34.1386 6.34375 33.9218 6.24731 33.7693 6.08103L36.5324 3.54577ZM37.3183 5.54982C37.3183 4.77679 37.0178 4.05146 36.5044 3.51589L33.7973 6.11091C33.6477 5.95486 33.5683 5.75295 33.5683 5.54982H37.3183ZM37.3183 17.3662V5.54982H33.5683V17.3662H37.3183ZM37.1069 18.4627C37.2519 18.1054 37.3183 17.7328 37.3183 17.3662H33.5683C33.5683 17.2793 33.5845 17.17 33.6321 17.0527L37.1069 18.4627ZM36.6722 19.2085C36.866 18.9684 37.0141 18.7051 37.1197 18.4304L33.6193 17.085C33.6476 17.0114 33.6914 16.931 33.7539 16.8536L36.6722 19.2085ZM36.6748 19.2053C36.6772 19.2024 36.6772 19.2023 36.6771 19.2025L33.749 16.8596C33.7452 16.8644 33.7415 16.869 33.7402 16.8707L36.6748 19.2053ZM36.4961 19.4072C36.5975 19.3058 36.6747 19.2055 36.6747 19.2054L33.7403 16.8706C33.7315 16.8816 33.7418 16.8684 33.7554 16.8523C33.7709 16.834 33.8016 16.7983 33.8445 16.7554L36.4961 19.4072ZM24.2351 33.9733L24.6011 33.5376L21.7297 31.1257L21.3636 31.5614L24.2351 33.9733ZM22.7972 34.6446C22.7972 34.6446 22.7975 34.6446 22.7978 34.6446C22.7982 34.6446 22.7987 34.6446 22.7994 34.6446C22.8008 34.6446 22.8031 34.6446 22.8061 34.6446C22.8115 34.6445 22.8226 34.6445 22.8366 34.6442C22.8584 34.6437 22.9237 34.6422 23.0067 34.633C23.1225 34.62 23.6622 34.5589 24.1265 34.0935C24.5901 33.6289 24.6502 33.0899 24.6629 32.9754C24.6721 32.8929 24.6735 32.8279 24.674 32.8063C24.6743 32.7924 24.6743 32.7814 24.6744 32.7761C24.6744 32.7732 24.6744 32.7708 24.6744 32.7695C24.6744 32.7689 24.6744 32.7683 24.6744 32.768C24.6744 32.7678 24.6744 32.7676 24.6744 32.7676C24.6744 32.7675 24.6744 32.7674 24.6744 32.7674H20.9244C20.9244 32.8137 20.9216 32.6896 20.9358 32.5619C20.9484 32.4481 21.0084 31.9095 21.4717 31.4451C21.9357 30.98 22.475 30.919 22.5902 30.9061C22.7188 30.8918 22.8433 30.8946 22.7972 30.8946V34.6446ZM21.2439 35.3936C22.3545 35.3151 23.3528 34.8393 24.0994 34.1186L21.495 31.4206C21.3543 31.5563 21.1744 31.6392 20.9793 31.653L21.2439 35.3936ZM20.9122 35.4058C21.0135 35.4058 21.1364 35.4031 21.2725 35.3914L20.9507 31.6552C20.9557 31.6548 20.9468 31.6558 20.9119 31.6558L20.9122 35.4058ZM17.7254 34.1192C18.5481 34.9123 19.6735 35.4058 20.9121 35.4058V31.6558C20.6859 31.6558 20.4824 31.5682 20.328 31.4194L17.7254 34.1192ZM18.9276 34.6417C18.9654 34.6437 18.995 34.6441 19.0067 34.6442C19.0137 34.6443 19.0192 34.6443 19.0221 34.6443C19.0236 34.6443 19.0248 34.6443 19.0255 34.6443C19.0259 34.6443 19.0262 34.6443 19.0264 34.6443C19.0266 34.6443 19.0267 34.6443 19.0267 34.6443V30.8943C19.0239 30.8943 19.0342 30.8943 19.0457 30.8944C19.0571 30.8945 19.0865 30.8949 19.124 30.8969L18.9276 34.6417ZM18.2657 34.4835C18.6092 34.6357 18.914 34.6411 18.9395 34.6423L19.1121 30.8963C19.1501 30.898 19.2296 30.9027 19.329 30.919C19.4267 30.935 19.5929 30.9699 19.7847 31.0549L18.2657 34.4835ZM17.1498 32.7677C17.1498 32.7677 17.1498 32.7678 17.1498 32.7678C17.1498 32.7678 17.1498 32.7679 17.1498 32.768C17.1498 32.7681 17.1498 32.7683 17.1498 32.7686C17.1498 32.7691 17.1498 32.77 17.1498 32.7711C17.1498 32.7732 17.1498 32.777 17.1499 32.7818C17.1499 32.7904 17.1501 32.8092 17.1509 32.833C17.1521 32.8674 17.1564 32.9869 17.1863 33.1365C17.2174 33.2919 17.2927 33.568 17.4964 33.8549C17.7178 34.1665 18.0032 34.3688 18.2745 34.4874L19.7758 31.051C20.047 31.1695 20.3323 31.3717 20.5536 31.6832C20.7572 31.9699 20.8324 32.2458 20.8635 32.401C20.8933 32.5504 20.8975 32.6696 20.8987 32.7037C20.9001 32.7427 20.8998 32.7783 20.8998 32.7677H17.1498ZM17.2226 33.5371L17.5887 33.9732L20.461 31.5623L20.095 31.1262L17.2226 33.5371ZM4.99035 18.9483C5.0474 19.058 5.29041 19.5196 5.86006 19.793L7.48288 16.4124C7.77753 16.5538 7.97337 16.7431 8.08954 16.8797C8.2058 17.0164 8.27782 17.1421 8.31741 17.2182L4.99035 18.9483ZM5.18752 19.2541L5.2359 19.31L8.07185 16.8564L8.02347 16.8005L5.18752 19.2541ZM5.09094 19.1332C5.09098 19.1333 5.09228 19.1351 5.09377 19.1371C5.09539 19.1393 5.09788 19.1426 5.10094 19.1467C5.10702 19.1548 5.11637 19.1672 5.12801 19.182C5.15204 19.2126 5.18544 19.2532 5.22768 19.299L7.98331 16.7556C8.06027 16.839 8.11474 16.9153 8.10924 16.9079L5.09094 19.1332ZM5.16484 19.2266C5.14078 19.1982 5.12186 19.1741 5.10926 19.1576C5.09812 19.1431 5.08897 19.1306 5.09109 19.1335L8.10908 16.9076C8.10903 16.9076 8.10824 16.9065 8.10735 16.9053C8.10638 16.904 8.10489 16.902 8.10308 16.8995C8.09949 16.8947 8.09394 16.8873 8.08708 16.8783C8.07316 16.8602 8.05285 16.8343 8.0273 16.8041L5.16484 19.2266ZM4.68726 18.3846C4.79904 18.6997 4.95444 18.9486 5.0875 19.1288L8.10464 16.9019C8.12083 16.9238 8.17569 17.0018 8.22149 17.1309L4.68726 18.3846ZM4.50672 17.4603C4.51705 17.8001 4.58616 18.1394 4.71623 18.4609L8.19252 17.0545C8.23336 17.1555 8.25221 17.2548 8.25499 17.3464L4.50672 17.4603ZM4.50586 17.3298V17.4033H8.25586V17.3298H4.50586ZM4.54011 16.9353C4.51582 17.0736 4.50586 17.2061 4.50586 17.3298H8.25586C8.25586 17.407 8.24967 17.4925 8.23355 17.5842L4.54011 16.9353ZM5.30091 15.3488C4.87651 15.8033 4.57845 16.4074 4.51878 17.0985L8.25488 17.4211C8.23731 17.6246 8.14849 17.7938 8.04203 17.9078L5.30091 15.3488ZM7.46162 14.4086C6.60738 14.4086 5.83271 14.7751 5.29646 15.3535L8.04648 17.903C7.90169 18.0592 7.69254 18.1586 7.46162 18.1586V14.4086ZM10.1029 14.4086H7.46162V18.1586H10.1029V14.4086ZM5.21779 13.3978L8.66928 17.4921L11.5364 15.0751L8.08494 10.9808L5.21779 13.3978ZM5.12931 13.2894C5.14401 13.3083 5.19496 13.3741 5.25902 13.4451L8.04371 10.9336C8.06406 10.9561 8.07813 10.9732 8.08372 10.9801C8.08921 10.9868 8.09166 10.9901 8.08671 10.9837L5.12931 13.2894ZM4.70214 12.5339C4.81131 12.8194 4.95945 13.0716 5.12951 13.2897L8.0865 10.9834C8.12964 11.0387 8.17222 11.1094 8.20473 11.1944L4.70214 12.5339ZM4.50669 11.5623C4.51691 11.9066 4.58652 12.2392 4.70779 12.5485L8.19908 11.1798C8.23364 11.268 8.25235 11.3605 8.25503 11.451L4.50669 11.5623ZM4.50586 11.4338V11.5066H8.25586V11.4338H4.50586ZM5.30685 9.44886C4.83478 9.94984 4.52675 10.6267 4.50653 11.3837L8.25519 11.4838C8.24942 11.6998 8.15943 11.8897 8.0361 12.0206L5.30685 9.44886ZM7.46162 8.51255C6.61127 8.51255 5.82632 8.87515 5.28215 9.47558L8.06079 11.9938C7.90557 12.1651 7.68677 12.2625 7.46162 12.2625V8.51255ZM10.1241 8.51255H7.46162V12.2625H10.1241V8.51255ZM5.24499 7.50547L8.68998 11.5955L11.5581 9.17963L8.11314 5.08964L5.24499 7.50547ZM5.07838 7.2812C5.15967 7.40991 5.23944 7.50174 5.28061 7.54721C5.30303 7.57198 5.3219 7.59155 5.33319 7.60311C5.34374 7.61392 5.3532 7.62334 5.35325 7.62339L8.00489 4.97173C7.99504 4.96188 8.02627 4.99252 8.06048 5.03031C8.09639 5.06997 8.17145 5.15599 8.24897 5.27873L5.07838 7.2812ZM5.06435 7.28099C5.15467 7.4098 5.25135 7.52053 5.3469 7.61478L7.98045 4.94515C8.0295 4.99354 8.08283 5.054 8.13481 5.12814L5.06435 7.28099ZM4.73678 6.70201C4.83095 6.92484 4.95653 7.14716 5.12233 7.35927L8.07683 5.04985C8.13016 5.11808 8.16714 5.18582 8.19094 5.24214L4.73678 6.70201ZM4.71962 6.65973C4.72073 6.6625 4.71774 6.65505 4.71424 6.64604C4.71031 6.63591 4.70406 6.61955 4.6968 6.59909L8.23091 5.34506C8.22255 5.3215 8.21518 5.30212 8.2101 5.28905C8.20546 5.27709 8.20131 5.26676 8.20128 5.26669L4.71962 6.65973ZM4.6136 6.30103C4.635 6.4116 4.66244 6.50139 4.68374 6.56339C4.69412 6.59361 4.70337 6.61811 4.70934 6.6336C4.71237 6.64145 4.71493 6.64792 4.71658 6.6521C4.71812 6.65598 4.7195 6.65942 4.71962 6.65972L8.20129 5.2667C8.19713 5.25631 8.21365 5.29657 8.23029 5.34499C8.24951 5.40093 8.27515 5.48451 8.29527 5.58845L4.6136 6.30103ZM4.5066 5.63724C4.51591 5.98158 4.58468 6.3249 4.71801 6.65217L8.19086 5.23731C8.23434 5.34403 8.25284 5.44732 8.25523 5.53593L4.5066 5.63724ZM4.50592 5.51495V5.58658H8.25592V5.51495H4.50592ZM5.31683 3.51898C4.82585 4.03207 4.52826 4.72071 4.50671 5.46034L8.25512 5.56956C8.24928 5.77007 8.16847 5.96294 8.02623 6.11159L5.31683 3.51898ZM19.0368 23.1904V23.1911H22.7868V23.1904H19.0368ZM22.2349 30.438L22.2365 30.4364L19.5871 27.7826L19.5854 27.7842L22.2349 30.438ZM19.5856 27.7846L19.584 27.7862L22.2364 30.4371L22.238 30.4355L19.5856 27.7846ZM19.0368 29.1095V29.1101H22.7868V29.1095H19.0368ZM24.5994 33.5397L36.6043 19.2893L33.7363 16.8733L21.7314 31.1236L24.5994 33.5397ZM5.23751 19.3108L17.2249 33.5397L20.0928 31.1236L8.10543 16.8946L5.23751 19.3108ZM22.3458 21.9831L16.7954 15.3949L13.9275 17.811L19.4779 24.3992L22.3458 21.9831ZM13.9276 17.8111L19.4779 24.3985L22.3457 21.9823L16.7954 15.3948L13.9276 17.8111ZM11.3756 20.7048L19.4763 30.3192L22.3441 27.903L14.2434 18.2885L11.3756 20.7048ZM22.3441 27.9036L14.2434 18.2886L11.3756 20.7047L19.4763 30.3198L22.3441 27.9036Z"
      fill="white" mask="url(#path-1-outside-1_1020_29161)" />
  </g>
  <mask id="mask0_1020_29161" style="mask-type:luminance" maskUnits="userSpaceOnUse" x="6" y="4" width="30" height="30">
    <path
      d="M7.45967 4.46875C7.14832 4.46875 6.86305 4.60007 6.66952 4.81528C6.49515 4.99751 6.38676 5.24539 6.37891 5.51495V5.58658C6.38236 5.71445 6.4075 5.83447 6.45242 5.94474C6.45431 5.95448 6.45839 5.96234 6.46185 5.97207C6.49704 6.05533 6.54133 6.13262 6.59757 6.20456C6.61674 6.2319 6.63841 6.25703 6.66166 6.27997C6.66543 6.28594 6.67109 6.29159 6.67706 6.29756L10.122 10.3875L11.3658 11.8638L15.09 16.2836L16.3338 17.7577L19.6682 21.7163L20.9098 23.1904V33.5308C20.978 33.5308 21.044 33.5289 21.1096 33.5233C21.7625 33.4771 22.3516 33.1978 22.7952 32.7696C22.7974 32.7696 22.7974 32.7696 22.7974 32.7674L23.1634 32.3316L32.107 21.7163L35.1683 18.0813C35.1837 18.0659 35.1972 18.0483 35.211 18.031C35.2767 17.9497 35.3289 17.8582 35.3675 17.7577C35.4162 17.6377 35.4413 17.506 35.4413 17.3662V5.54982C35.4413 5.26487 35.3307 5.00316 35.1488 4.8134C34.9531 4.60007 34.6719 4.46875 34.3581 4.46875H7.45967Z"
      fill="url(#paint0_linear_1020_29161)" />
  </mask>
  <g mask="url(#mask0_1020_29161)">
    <path fill-rule="evenodd" clip-rule="evenodd"
      d="M7.45967 4.46875C7.14832 4.46875 6.86305 4.60007 6.66952 4.81528C6.49515 4.99751 6.38676 5.24539 6.37891 5.51495V5.58658C6.38236 5.71445 6.4075 5.83447 6.45242 5.94474C6.45431 5.95448 6.45839 5.96234 6.46185 5.97207C6.49704 6.05533 6.54133 6.13262 6.59757 6.20456C6.61674 6.2319 6.63841 6.25703 6.66166 6.27997C6.66543 6.28594 6.67109 6.29159 6.67706 6.29756L10.122 10.3875L11.3658 11.8638L15.09 16.2836L16.3338 17.7577L19.6682 21.7163L20.9098 23.1904V33.5308C20.978 33.5308 21.044 33.5289 21.1096 33.5233C21.7625 33.4771 22.3516 33.1978 22.7952 32.7696C22.7974 32.7696 22.7974 32.7696 22.7974 32.7674L23.1634 32.3316L32.107 21.7163L35.1683 18.0813C35.1837 18.0659 35.1972 18.0483 35.211 18.031C35.2767 17.9497 35.3289 17.8582 35.3675 17.7577C35.4162 17.6377 35.4413 17.506 35.4413 17.3662V5.54982C35.4413 5.26487 35.3307 5.00316 35.1488 4.8134C34.9531 4.60007 34.6719 4.46875 34.3581 4.46875H7.45967Z"
      fill="url(#paint1_linear_1020_29161)" />
  </g>
  <path fill-rule="evenodd" clip-rule="evenodd"
    d="M20.9101 29.1094V33.5304C20.1778 33.5304 19.5133 33.2398 19.0248 32.7689C19.0229 32.7689 19.0229 32.7689 19.0229 32.7673L18.6569 32.3312L9.71324 21.7159L6.66952 18.1023C6.66166 18.0985 6.65601 18.0906 6.65192 18.0828L6.60354 18.0269C6.59977 18.0228 6.59757 18.019 6.59412 18.0149C6.53568 17.9358 6.48541 17.8503 6.45242 17.7573C6.40781 17.647 6.38268 17.527 6.37891 17.4029V17.3294C6.37891 17.3062 6.38079 17.2826 6.38488 17.2593C6.40593 17.0155 6.51055 16.7981 6.66952 16.6279C6.86525 16.4167 7.14801 16.2832 7.45967 16.2832H10.1009L11.3429 17.7573L14.6772 21.7159L20.1445 28.2046L20.9082 29.1113L20.9101 29.1094Z"
    fill="#FCD1CA" />
  <path fill-rule="evenodd" clip-rule="evenodd"
    d="M20.9101 23.1906V29.1084L20.9082 29.1103L20.1454 28.2039L14.6781 21.7159L11.3432 17.7579L10.1009 16.2828L6.64941 12.1885C6.63496 12.1725 6.62051 12.1543 6.60606 12.1357C6.54259 12.0544 6.48981 11.9636 6.45148 11.8633C6.40812 11.7528 6.38268 11.6327 6.37891 11.5058V11.4329C6.38613 11.1624 6.49515 10.9189 6.66952 10.7339C6.86399 10.5193 7.14706 10.3867 7.45967 10.3867H10.1226L11.3667 11.8633L15.0907 16.2828L16.3329 17.7579L19.6679 21.7159L20.9101 23.1906Z"
    fill="#FF9D8D" />
  <defs>
    <filter id="filter0_dd_1020_29161" x="0.755859" y="0.71875" width="40.3125" height="40.3125"
      filterUnits="userSpaceOnUse" color-interpolation-filters="sRGB">
      <feFlood flood-opacity="0" result="BackgroundImageFix" />
      <feColorMatrix in="SourceAlpha" type="matrix" values="0 0 0 0 0 0 0 0 0 0 0 0 0 0 0 0 0 0 127 0"
        result="hardAlpha" />
      <feOffset dy="0.9375" />
      <feGaussianBlur stdDeviation="0.46875" />
      <feComposite in2="hardAlpha" operator="out" />
      <feColorMatrix type="matrix" values="0 0 0 0 0 0 0 0 0 0 0 0 0 0 0 0 0 0 0.1 0" />
      <feBlend mode="normal" in2="BackgroundImageFix" result="effect1_dropShadow_1020_29161" />
      <feColorMatrix in="SourceAlpha" type="matrix" values="0 0 0 0 0 0 0 0 0 0 0 0 0 0 0 0 0 0 127 0"
        result="hardAlpha" />
      <feOffset dy="1.875" />
      <feGaussianBlur stdDeviation="1.875" />
      <feComposite in2="hardAlpha" operator="out" />
      <feColorMatrix type="matrix" values="0 0 0 0 0 0 0 0 0 0 0 0 0 0 0 0 0 0 0.2 0" />
      <feBlend mode="normal" in2="effect1_dropShadow_1020_29161" result="effect2_dropShadow_1020_29161" />
      <feBlend mode="normal" in="SourceGraphic" in2="effect2_dropShadow_1020_29161" result="shape" />
    </filter>
    <linearGradient id="paint0_linear_1020_29161" x1="32.4964" y1="1.02816" x2="10.1171" y2="23.408"
      gradientUnits="userSpaceOnUse">
      <stop stop-color="#FF6660" />
      <stop offset="1" stop-color="#FB4444" />
    </linearGradient>
    <linearGradient id="paint1_linear_1020_29161" x1="32.4964" y1="1.02816" x2="10.1171" y2="23.408"
      gradientUnits="userSpaceOnUse">
      <stop stop-color="#FF6660" />
      <stop offset="1" stop-color="#FB4444" />
    </linearGradient>
  </defs>
</svg>
