<svg width="46" height="39" viewBox="0 0 46 39" fill="none" xmlns="http://www.w3.org/2000/svg">
  <g id="icon_raw 1">
    <g id="border" filter="url(#filter0_dd_1017_23442)">
      <path
        d="M30.9472 7.99957C32.0269 9.0711 32.8756 10.3496 33.4417 11.7571C33.4508 11.7799 33.4599 11.8026 33.4689 11.8254C33.6686 12.3317 33.8304 12.8505 33.9534 13.3778C34.0373 13.7373 34.1031 14.1006 34.1508 14.4666C34.1893 14.7624 34.3865 15.0143 34.6624 15.1276C35.7152 15.5599 36.6738 16.2015 37.4767 17.0185C38.6358 18.1978 39.4188 19.6904 39.7276 21.3093C40.0365 22.9283 39.8575 24.6017 39.2131 26.1201C38.5687 27.6386 37.4875 28.9347 36.1048 29.8462C34.7221 30.7577 33.0993 31.2441 31.4395 31.2446L14.5632 31.2446C12.3252 31.2446 10.1789 30.3621 8.59648 28.7912C7.01402 27.2203 6.125 25.0896 6.125 22.868C6.125 20.6464 7.01402 18.5158 8.59648 16.9449C9.27833 16.268 10.0649 15.7189 10.9183 15.3132C11.1868 15.1855 11.3698 14.9246 11.3932 14.6282C11.4816 13.506 11.7405 12.4013 12.1631 11.3521C12.729 9.94726 13.5765 8.6712 14.6542 7.60135C15.3501 6.91053 16.1326 6.31499 16.9808 5.82849C17.2646 5.66567 17.5558 5.51507 17.8535 5.37719C17.9578 5.3289 18.0629 5.28217 18.1687 5.23702C18.2562 5.19974 18.3441 5.16354 18.4326 5.12843C19.317 4.77734 20.2407 4.54003 21.181 4.42051C21.2741 4.40868 21.3673 4.398 21.4607 4.38848C21.9334 4.34031 22.4097 4.3218 22.8867 4.33346C23.8345 4.35663 24.7732 4.49855 25.6808 4.75421C26.05 4.85817 26.4139 4.98095 26.7713 5.12219C26.9479 5.19199 27.1229 5.26629 27.2961 5.34507C28.6817 5.97527 29.9239 6.87837 30.9472 7.99957Z"
        fill="white" />
      <path
        d="M34.3115 11.4073L34.3115 11.4074L34.341 11.4814C34.5575 12.0303 34.7329 12.593 34.8664 13.1648C34.9525 13.534 35.0212 13.907 35.0721 14.2825C36.2202 14.7623 37.2666 15.4671 38.1454 16.3613C39.4338 17.6723 40.3048 19.3322 40.6485 21.1336C40.9922 22.9351 40.793 24.7971 40.0761 26.4864C39.3593 28.1755 38.157 29.6162 36.6208 30.6289C35.0846 31.6415 33.2825 32.1816 31.4398 32.1821H31.4395L14.5632 32.1821C12.0788 32.1821 9.69479 31.2025 7.936 29.4565C6.17697 27.7103 5.1875 25.3405 5.1875 22.868C5.1875 20.3955 6.17697 18.0257 7.936 16.2795C8.67996 15.541 9.53584 14.9396 10.4637 14.4915C10.5642 13.2961 10.8432 12.1198 11.2935 11.0018C11.9071 9.47852 12.8259 8.09534 13.9937 6.93602C14.7478 6.18742 15.5956 5.54225 16.5143 5.01528C16.8217 4.83892 17.1371 4.6758 17.4596 4.52647C17.5725 4.47418 17.6863 4.42357 17.801 4.37467C17.8956 4.33432 17.9908 4.29511 18.0867 4.25707L34.3115 11.4073ZM34.3115 11.4073C33.7006 9.88822 32.7862 8.50828 31.6241 7.35047C30.518 6.14333 29.1778 5.17101 27.6843 4.49169L27.2967 5.34378M34.3115 11.4073L27.2967 5.34378M27.2967 5.34378L27.6843 4.49169C27.4967 4.40638 27.3072 4.3259 27.1159 4.25032C26.7289 4.09735 26.3347 3.9644 25.935 3.85182C24.9522 3.57499 23.9358 3.42132 22.9096 3.39624C22.3931 3.38362 21.8774 3.40366 21.3657 3.45581C21.2645 3.46612 21.1636 3.47768 21.0628 3.49049C20.0447 3.6199 19.0445 3.87684 18.0867 4.25705L27.2967 5.34378Z"
        stroke="white" stroke-width="1.875" />
    </g>
    <path id="Vector" fill-rule="evenodd" clip-rule="evenodd"
      d="M30.9462 7.94617C32.0258 9.02549 32.8744 10.3132 33.4404 11.731C34.0064 13.1488 34.278 14.6669 34.2385 16.193C34.199 17.7191 33.8494 19.2212 33.2108 20.6078C32.5723 21.9944 31.6582 23.2366 30.5243 24.2587L23.0008 31.3602L15.4774 24.329L15.0555 23.8368C13.9262 22.8135 13.0165 21.5714 12.3817 20.186C11.747 18.8005 11.4003 17.3004 11.3628 15.7769C11.3253 14.2534 11.5977 12.7381 12.1635 11.3231C12.7294 9.90801 13.5768 8.62267 14.6544 7.54505C15.732 6.46743 17.0174 5.61999 18.4324 5.05416C19.8475 4.48832 21.3627 4.2159 22.8863 4.25341C24.4098 4.29092 25.9098 4.63759 27.2953 5.27237C28.6808 5.90716 29.9229 6.81682 30.9462 7.94617Z"
      fill="#1988E0" />
    <g id="Group">
      <path id="Vector_2"
        d="M14.5625 14.4844C16.8003 14.4844 18.9464 15.3733 20.5287 16.9557C22.1111 18.538 23 20.6841 23 22.9219V31.3594H14.5625C12.3247 31.3594 10.1786 30.4704 8.59629 28.8881C7.01395 27.3057 6.125 25.1596 6.125 22.9219C6.125 20.6841 7.01395 18.538 8.59629 16.9557C10.1786 15.3733 12.3247 14.4844 14.5625 14.4844V14.4844Z"
        fill="#2CD4ED" />
      <g id="Mask group">
        <mask id="mask0_1017_23442" style="mask-type:luminance" maskUnits="userSpaceOnUse" x="6" y="14" width="17"
          height="18">
          <g id="Group_2">
            <path id="Vector_3"
              d="M14.5625 14.4844C16.8003 14.4844 18.9464 15.3733 20.5287 16.9557C22.1111 18.538 23 20.6841 23 22.9219V31.3594H14.5625C12.3247 31.3594 10.1786 30.4704 8.59629 28.8881C7.01395 27.3057 6.125 25.1596 6.125 22.9219C6.125 20.6841 7.01395 18.538 8.59629 16.9557C10.1786 15.3733 12.3247 14.4844 14.5625 14.4844V14.4844Z"
              fill="#0DB4E2" />
          </g>
        </mask>
        <g mask="url(#mask0_1017_23442)">
          <path id="Vector_4" fill-rule="evenodd" clip-rule="evenodd"
            d="M30.9462 7.94617C32.0258 9.02549 32.8744 10.3132 33.4404 11.731C34.0064 13.1488 34.278 14.667 34.2385 16.193C34.199 17.7191 33.8494 19.2212 33.2108 20.6078C32.5723 21.9944 31.6582 23.2366 30.5243 24.2587L23.0008 31.3602L15.4774 24.329L15.0555 23.8368C13.9262 22.8135 13.0165 21.5714 12.3817 20.186C11.747 18.8005 11.4003 17.3004 11.3628 15.7769C11.3253 14.2534 11.5977 12.7381 12.1635 11.3231C12.7294 9.90801 13.5768 8.62267 14.6544 7.54505C15.732 6.46743 17.0174 5.61999 18.4324 5.05416C19.8475 4.48832 21.3627 4.2159 22.8863 4.25341C24.4098 4.29092 25.9098 4.63759 27.2953 5.27237C28.6808 5.90716 29.9229 6.81682 30.9462 7.94617Z"
            fill="#0DB4E2" />
        </g>
      </g>
    </g>
    <g id="Group_3">
      <path id="Vector_5"
        d="M23 31.3594V22.7109C23.0415 21.0518 23.5714 19.4417 24.5234 18.0822C25.4754 16.7227 26.8072 15.6741 28.3521 15.0677C29.897 14.4613 31.5865 14.324 33.2091 14.673C34.8317 15.022 36.3153 15.8418 37.4743 17.0298C38.6333 18.2177 39.4162 19.7211 39.725 21.3518C40.0338 22.9825 39.8549 24.6681 39.2105 26.1976C38.5662 27.7271 37.4851 29.0326 36.1025 29.9507C34.7199 30.8689 33.0972 31.3589 31.4375 31.3594H23Z"
        fill="#3169FF" />
      <g id="Mask group_2">
        <mask id="mask1_1017_23442" style="mask-type:luminance" maskUnits="userSpaceOnUse" x="23" y="14" width="17"
          height="18">
          <g id="Group_4">
            <path id="Vector_6"
              d="M23 31.3594V22.7109C23.0415 21.0518 23.5714 19.4417 24.5234 18.0822C25.4754 16.7227 26.8072 15.6741 28.3521 15.0677C29.897 14.4613 31.5865 14.324 33.2091 14.673C34.8317 15.022 36.3153 15.8418 37.4743 17.0298C38.6333 18.2177 39.4162 19.7211 39.725 21.3518C40.0338 22.9825 39.8549 24.6681 39.2105 26.1976C38.5662 27.7271 37.4851 29.0326 36.1025 29.9507C34.7199 30.8689 33.0972 31.3589 31.4375 31.3594H23Z"
              fill="#3153FF" />
          </g>
        </mask>
        <g mask="url(#mask1_1017_23442)">
          <path id="Vector_7" fill-rule="evenodd" clip-rule="evenodd"
            d="M30.9462 7.94617C32.0258 9.02549 32.8744 10.3132 33.4404 11.731C34.0064 13.1488 34.278 14.667 34.2385 16.193C34.199 17.7191 33.8494 19.2212 33.2108 20.6078C32.5723 21.9944 31.6582 23.2366 30.5243 24.2587L23.0009 31.3602L15.4774 24.329L15.0555 23.8368C13.9262 22.8135 13.0165 21.5714 12.3817 20.186C11.747 18.8005 11.4003 17.3004 11.3628 15.7769C11.3253 14.2534 11.5977 12.7381 12.1635 11.3231C12.7294 9.90801 13.5768 8.62267 14.6544 7.54505C15.732 6.46743 17.0174 5.61999 18.4324 5.05416C19.8475 4.48832 21.3627 4.2159 22.8863 4.25341C24.4098 4.29092 25.9098 4.63759 27.2953 5.27237C28.6808 5.90716 29.9229 6.81682 30.9462 7.94617Z"
            fill="#3153FF" />
        </g>
      </g>
    </g>
  </g>
  <defs>
    <filter id="filter0_dd_1017_23442" x="0.5" y="0.580078" width="45" height="38.1641" filterUnits="userSpaceOnUse"
      color-interpolation-filters="sRGB">
      <feFlood flood-opacity="0" result="BackgroundImageFix" />
      <feColorMatrix in="SourceAlpha" type="matrix" values="0 0 0 0 0 0 0 0 0 0 0 0 0 0 0 0 0 0 127 0"
        result="hardAlpha" />
      <feOffset dy="0.9375" />
      <feGaussianBlur stdDeviation="0.46875" />
      <feComposite in2="hardAlpha" operator="out" />
      <feColorMatrix type="matrix" values="0 0 0 0 0 0 0 0 0 0 0 0 0 0 0 0 0 0 0.1 0" />
      <feBlend mode="normal" in2="BackgroundImageFix" result="effect1_dropShadow_1017_23442" />
      <feColorMatrix in="SourceAlpha" type="matrix" values="0 0 0 0 0 0 0 0 0 0 0 0 0 0 0 0 0 0 127 0"
        result="hardAlpha" />
      <feOffset dy="1.875" />
      <feGaussianBlur stdDeviation="1.875" />
      <feComposite in2="hardAlpha" operator="out" />
      <feColorMatrix type="matrix" values="0 0 0 0 0 0 0 0 0 0 0 0 0 0 0 0 0 0 0.2 0" />
      <feBlend mode="normal" in2="effect1_dropShadow_1017_23442" result="effect2_dropShadow_1017_23442" />
      <feBlend mode="normal" in="SourceGraphic" in2="effect2_dropShadow_1017_23442" result="shape" />
    </filter>
  </defs>
</svg>
