<svg width="42" height="42" viewBox="0 0 42 42" fill="none" xmlns="http://www.w3.org/2000/svg">
<g filter="url(#filter0_dd_1020_29170)">
<path d="M20.9307 6.91558C20.9324 4.7263 19.1591 2.95052 16.9695 2.94728L16.969 3.2572V2.94728H16.969H16.969H16.969H16.969H16.969H16.969H16.969H16.9689H16.9689H16.9689H16.9689H16.9689H16.9689H16.9689H16.9689H16.9689H16.9689H16.9689H16.9689H16.9688H16.9688H16.9688H16.9688H16.9688H16.9688H16.9688H16.9688H16.9688H16.9688H16.9688H16.9687H16.9687H16.9687H16.9687H16.9687H16.9687H16.9687H16.9687H16.9687H16.9687H16.9687H16.9687H16.9686H16.9686H16.9686H16.9686H16.9686H16.9686H16.9686H16.9686H16.9686H16.9686H16.9685H16.9685H16.9685H16.9685H16.9685H16.9685H16.9685H16.9685H16.9685H16.9685H16.9684H16.9684H16.9684H16.9684H16.9684H16.9684H16.9684H16.9684H16.9683H16.9683H16.9683H16.9683H16.9683H16.9683H16.9683H16.9683H16.9682H16.9682H16.9682H16.9682H16.9682H16.9682H16.9682H16.9681H16.9681H16.9681H16.9681H16.9681L16.9681 2.94728L16.9674 2.94728C14.7779 2.9489 13.0066 4.72558 13.0079 6.91365C13.0066 9.10223 14.7796 10.8784 16.9686 10.88H16.9693H19.9932C20.511 10.88 20.9307 10.4603 20.9307 9.94252V6.91558ZM20.9307 6.91558L19.9932 6.91489H20.9307V6.91558ZM20.9295 14.9935C20.9308 12.804 19.1581 11.0275 16.9688 11.0259H16.9681H8.90674L8.90605 11.0259C6.71747 11.0275 4.94482 12.803 4.94532 14.9909M20.9295 14.9935C20.9308 17.1821 19.1578 18.9583 16.9688 18.9599H16.9681H8.90551H8.90412C6.71566 18.9567 4.94208 17.1806 4.94532 14.9909M20.9295 14.9935C20.9295 14.9938 20.9295 14.994 20.9295 14.9942L19.992 14.9935L20.9295 14.9928C20.9295 14.9931 20.9295 14.9933 20.9295 14.9935ZM4.94532 14.9909L5.8826 14.9923L4.94532 14.993C4.94532 14.9923 4.94532 14.9916 4.94532 14.9909ZM33.0926 11.0259L33.094 11.0259C35.283 11.0275 37.056 12.8037 37.0547 14.9923M33.0926 11.0259L33.0933 11.9634C31.422 11.9646 30.0681 13.321 30.0693 14.9923H29.1318M33.0926 11.0259C30.9035 11.0275 29.1306 12.8037 29.1318 14.9923M33.0926 11.0259L29.1318 14.9923M37.0547 14.9923C37.056 17.1818 35.2833 18.9583 33.094 18.9599H33.0933H30.0693C29.5516 18.9599 29.1318 18.5401 29.1318 18.0224L29.1318 14.993L29.1318 14.9923M37.0547 14.9923C37.0547 14.992 37.0547 14.9918 37.0547 14.9916L36.1172 14.9923L37.0547 14.993C37.0547 14.9927 37.0547 14.9925 37.0547 14.9923ZM25.0312 2.94727L25.0333 2.94726C27.2222 2.9505 28.9937 4.72679 28.9921 6.91433M25.0312 2.94727L28.0546 6.91364M25.0312 2.94727C22.842 2.94888 21.0689 4.72544 21.0705 6.91433M25.0312 2.94727L21.0705 6.91433M28.9921 6.91433L28.0546 6.91364M28.9921 6.91433V6.91364H28.0546M28.9921 6.91433V14.9916M28.0546 6.91364V14.9923M28.9921 14.9916L28.0546 14.9923M28.9921 14.9916V14.9923H28.0546M28.9921 14.9916C28.9937 17.1815 27.2209 18.9583 25.0314 18.9599L25.0293 18.9599C22.8411 18.9566 21.0676 17.181 21.0705 14.9916V14.9923H22.008L21.0705 14.9909L28.0546 14.9923M21.0705 6.91433L22.008 6.91364H21.0705V6.91433ZM28.9921 31.1508C28.9933 28.9622 27.2204 27.186 25.0314 27.1844H25.0307H22.0067C21.489 27.1844 21.0692 27.6042 21.0692 28.1219V31.1501M28.9921 31.1508C28.9933 33.3394 27.2204 35.1156 25.0314 35.1172L25.0293 35.1172C22.8409 35.1139 21.0676 33.3381 21.0692 31.1501M28.9921 31.1508C28.9921 31.151 28.9921 31.1513 28.9921 31.1515L28.0546 31.1508M28.9921 31.1508C28.9921 31.1506 28.9921 31.1503 28.9921 31.1501L28.0546 31.1508M21.0692 31.1501L22.0067 31.1508M21.0692 31.1501V31.1508H22.0067M22.0067 31.1508V29.0594M22.0067 31.1508C22.0055 32.8209 23.3594 34.1772 25.0307 34.1797C26.702 34.1784 28.0558 32.8221 28.0546 31.1508M22.0067 29.0594L28.0546 31.1508M22.0067 29.0594V28.1219H22.9442H25.0307L22.0067 29.0594ZM21.0705 23.0697C21.0692 25.2588 22.8402 27.0357 25.03 27.0373H25.0307H33.0932H33.0939C35.2825 27.0357 37.0552 25.2603 37.0547 23.0723M21.0705 23.0697C21.0692 20.8811 22.8422 19.1049 25.0312 19.1033H25.0319H33.0945H33.0959C35.2843 19.1066 37.0579 20.8826 37.0547 23.0723M21.0705 23.0697C21.0705 23.0695 21.0705 23.0692 21.0705 23.069L22.008 23.0697C22.0067 21.3984 23.3606 20.0421 25.0319 20.0408H33.0945C34.7658 20.0433 36.1196 21.3996 36.1172 23.0709M21.0705 23.0697L33.0932 26.0998M37.0547 23.0723L36.1172 23.0709M37.0547 23.0723C37.0547 23.0716 37.0547 23.0709 37.0547 23.0702L36.1172 23.0709M36.1172 23.0709C36.1184 24.7422 34.7646 26.0986 33.0932 26.0998M33.0932 26.0998H25.0307H33.0932ZM11.9307 19.1045C12.4484 19.1045 12.8682 19.5243 12.8682 20.042V23.0702V23.0709H11.9307C11.9319 24.7422 10.5781 26.0985 8.90675 26.0998L11.9307 19.1045ZM11.9307 19.1045H8.90675H8.90605C6.71701 19.1062 4.94407 20.8823 4.94531 23.0709L11.9307 19.1045ZM16.9688 35.1172L16.9667 35.1172C14.7785 35.1139 13.005 33.3382 13.0079 31.1488L13.0079 23.0716M13.0079 23.0716L13.0079 23.0709C13.0079 23.0711 13.0079 23.0714 13.0079 23.0716Z" stroke="white" stroke-width="1.875" stroke-linejoin="round" shape-rendering="crispEdges"/>
</g>
<path fill-rule="evenodd" clip-rule="evenodd" d="M16.9681 3.88477C15.2968 3.886 13.9442 5.24232 13.9454 6.91364C13.9442 8.58495 15.298 9.94127 16.9693 9.94251H19.9932V6.91487C19.9945 5.24356 18.6406 3.88724 16.9681 3.88477C16.9693 3.88477 16.9693 3.88477 16.9681 3.88477M16.9681 11.9634H8.90674C7.23543 11.9646 5.88158 13.321 5.88282 14.9923C5.88035 16.6636 7.2342 18.0199 8.90551 18.0224H16.9681C18.6394 18.0211 19.9932 16.6648 19.992 14.9935C19.9932 13.321 18.6394 11.9646 16.9681 11.9634V11.9634Z" fill="#36C5F0"/>
<path fill-rule="evenodd" clip-rule="evenodd" d="M36.117 14.9923C36.1183 13.321 34.7644 11.9646 33.0931 11.9634C31.4218 11.9646 30.0679 13.321 30.0692 14.9923V18.0224H33.0931C34.7644 18.0211 36.1183 16.6648 36.117 14.9923ZM28.0544 14.9923V6.91364C28.0557 5.24356 26.7031 3.88724 25.0317 3.88477C23.3604 3.886 22.0066 5.24232 22.0078 6.91364V14.9923C22.0053 16.6636 23.3592 18.0199 25.0305 18.0224C26.7018 18.0211 28.0557 16.6648 28.0544 14.9923Z" fill="#2EB67D"/>
<path fill-rule="evenodd" clip-rule="evenodd" d="M25.0298 34.1799C26.7011 34.1786 28.055 32.8223 28.0537 31.151C28.055 29.4797 26.7011 28.1234 25.0298 28.1221H22.0059V31.151C22.0046 32.8211 23.3585 34.1774 25.0298 34.1799ZM25.0298 26.1H33.0924C34.7637 26.0988 36.1175 24.7424 36.1163 23.0711C36.1188 21.3998 34.7649 20.0435 33.0936 20.041H25.031C23.3597 20.0423 22.0059 21.3986 22.0071 23.0699C22.0059 24.7424 23.3585 26.0988 25.0298 26.1V26.1Z" fill="#ECB22E"/>
<path fill-rule="evenodd" clip-rule="evenodd" d="M5.88281 23.0718C5.88158 24.7432 7.23543 26.0995 8.90674 26.1007C10.5781 26.0995 11.9319 24.7432 11.9307 23.0718V20.043H8.90674C7.23543 20.0442 5.88158 21.4005 5.88281 23.0718ZM13.9454 23.0718V31.1505C13.9429 32.8218 15.2968 34.1781 16.9681 34.1806C18.6394 34.1794 19.9933 32.823 19.992 31.1517V23.0743C19.9945 21.403 18.6406 20.0467 16.9693 20.0442C15.2968 20.0442 13.9442 21.4005 13.9454 23.0718C13.9454 23.0731 13.9454 23.0718 13.9454 23.0718Z" fill="#E01E5A"/>
<defs>
<filter id="filter0_dd_1020_29170" x="0.257812" y="0.134766" width="41.4844" height="41.5449" filterUnits="userSpaceOnUse" color-interpolation-filters="sRGB">
<feFlood flood-opacity="0" result="BackgroundImageFix"/>
<feColorMatrix in="SourceAlpha" type="matrix" values="0 0 0 0 0 0 0 0 0 0 0 0 0 0 0 0 0 0 127 0" result="hardAlpha"/>
<feOffset dy="0.9375"/>
<feGaussianBlur stdDeviation="0.46875"/>
<feComposite in2="hardAlpha" operator="out"/>
<feColorMatrix type="matrix" values="0 0 0 0 0 0 0 0 0 0 0 0 0 0 0 0 0 0 0.1 0"/>
<feBlend mode="normal" in2="BackgroundImageFix" result="effect1_dropShadow_1020_29170"/>
<feColorMatrix in="SourceAlpha" type="matrix" values="0 0 0 0 0 0 0 0 0 0 0 0 0 0 0 0 0 0 127 0" result="hardAlpha"/>
<feOffset dy="1.875"/>
<feGaussianBlur stdDeviation="1.875"/>
<feComposite in2="hardAlpha" operator="out"/>
<feColorMatrix type="matrix" values="0 0 0 0 0 0 0 0 0 0 0 0 0 0 0 0 0 0 0.2 0"/>
<feBlend mode="normal" in2="effect1_dropShadow_1020_29170" result="effect2_dropShadow_1020_29170"/>
<feBlend mode="normal" in="SourceGraphic" in2="effect2_dropShadow_1020_29170" result="shape"/>
</filter>
</defs>
</svg>
