<svg width="225" height="48" viewBox="0 0 225 48" fill="none" xmlns="http://www.w3.org/2000/svg">
  <path
    d="M39.2133 15.5013L39.2059 10.2881L29.5857 4V8.02159L35.9312 12.1996L35.9361 15.402L32.9883 17.3979L30.9773 15.9307V13.4458L27.7001 11.2041V15.7272L22.5052 18.9147L22.4954 27.3352L18.8224 29.4031L16.9367 27.926V25.4882L19.169 23.959V23.9392V20.1658L15.1518 22.8543L12.0811 20.856L9.27597 22.693L13.6595 25.6943V27.5363L10.5003 29.6737L7.27719 27.4916V20.2304L12.0615 16.9907L12.0664 13.8753L18.2028 17.8273L23.3608 14.3941L20.2163 12.5595L18.1586 13.9472L13.6767 10.9832L18.7314 8.03649L23.11 10.6034V6.7754L18.7363 4.211L8.7941 10.0076L8.78673 15.2232L4 18.4653V29.2566L8.78673 32.4987L8.7941 37.7144L18.4143 44V39.9809L12.0688 35.8029L12.0639 32.6005L15.0117 30.6046L17.0227 32.0717V34.5567L20.2999 36.7984V32.2753L25.5685 29.0878L25.6275 20.6673L29.1776 18.5994L31.0633 20.0765V22.5142L28.831 24.0434V24.0633V27.8366L32.8482 25.1481L35.9189 27.1465L38.724 25.3095L34.3405 22.3057V20.4662L37.4997 18.3288L40.7228 20.5109V27.7721L35.9385 31.0117L35.9336 34.1272L29.7972 30.1727L24.6392 33.5836L27.7837 35.4156L29.8414 34.0552L34.3233 37.0193L29.2686 39.966L24.89 37.3991V41.2246L29.2637 43.789L39.2059 37.9949L39.2133 32.7792L44 29.5371V18.7434L39.2133 15.5013Z"
    fill="#AC6AFF" />
  <path
    d="M60 34.7038V14.3402H68.4915C70.0161 14.3402 71.2921 14.5556 72.3196 14.9865C73.3537 15.4174 74.1293 16.0206 74.6463 16.7962C75.17 17.5717 75.4318 18.4699 75.4318 19.4908C75.4318 20.2663 75.2694 20.959 74.9446 21.5689C74.6198 22.1721 74.1723 22.6726 73.6023 23.0703C73.0322 23.468 72.3726 23.7464 71.6236 23.9055V24.1044C72.4455 24.1442 73.2045 24.3662 73.9006 24.7706C74.6032 25.175 75.1667 25.7384 75.5909 26.4609C76.0152 27.1768 76.2273 28.0253 76.2273 29.0064C76.2273 30.1001 75.9489 31.0779 75.392 31.9396C74.8352 32.7947 74.0298 33.4709 72.9759 33.968C71.9219 34.4586 70.6425 34.7038 69.1378 34.7038H60ZM64.9219 30.7365H67.9645C69.0317 30.7365 69.8172 30.5343 70.321 30.13C70.8314 29.7256 71.0866 29.1622 71.0866 28.4396C71.0866 27.916 70.964 27.4652 70.7188 27.0874C70.4735 26.7029 70.1255 26.4079 69.6747 26.2024C69.224 25.9903 68.6837 25.8842 68.054 25.8842H64.9219V30.7365ZM64.9219 22.7124H67.6463C68.1832 22.7124 68.6605 22.6229 69.0781 22.4439C69.4957 22.2649 69.8205 22.0064 70.0526 21.6683C70.2912 21.3303 70.4105 20.9226 70.4105 20.4453C70.4105 19.7625 70.1686 19.2256 69.6847 18.8345C69.2008 18.4434 68.5478 18.2479 67.7259 18.2479H64.9219V22.7124Z"
    fill="white" />
  <path
    d="M77.4737 34.7038V19.4311H82.1968V22.2152H82.3559C82.6343 21.2076 83.0883 20.4586 83.7181 19.968C84.3478 19.4709 85.0803 19.2223 85.9155 19.2223C86.1409 19.2223 86.3729 19.2389 86.6115 19.272C86.8502 19.2985 87.0722 19.3416 87.2777 19.4013V23.6271C87.0457 23.5476 86.7408 23.4846 86.363 23.4382C85.9917 23.3918 85.6603 23.3686 85.3686 23.3686C84.7919 23.3686 84.2716 23.4979 83.8076 23.7564C83.3502 24.0083 82.9889 24.3629 82.7237 24.8203C82.4652 25.2711 82.336 25.8014 82.336 26.4112V34.7038H77.4737Z"
    fill="white" />
  <path
    d="M91.8701 34.9624C90.8957 34.9624 90.0306 34.8 89.2749 34.4751C88.5259 34.1437 87.9326 33.6465 87.4951 32.9837C87.0642 32.3142 86.8488 31.4756 86.8488 30.468C86.8488 29.6196 86.9979 28.9036 87.2962 28.3203C87.5945 27.737 88.0055 27.263 88.5292 26.8984C89.0529 26.5339 89.6561 26.2588 90.3388 26.0732C91.0216 25.8809 91.7508 25.7517 92.5263 25.6854C93.3947 25.6058 94.094 25.523 94.6243 25.4368C95.1546 25.344 95.5391 25.2147 95.7778 25.049C96.023 24.8767 96.1457 24.6347 96.1457 24.3232V24.2734C96.1457 23.763 95.97 23.3686 95.6187 23.0902C95.2673 22.8118 94.7934 22.6726 94.1968 22.6726C93.5538 22.6726 93.0368 22.8118 92.6457 23.0902C92.2546 23.3686 92.006 23.7531 91.8999 24.2436L87.4155 24.0845C87.5481 23.1565 87.8895 22.3279 88.4397 21.5987C88.9965 20.8629 89.7588 20.2862 90.7266 19.8686C91.7011 19.4444 92.871 19.2322 94.2366 19.2322C95.211 19.2322 96.1092 19.3482 96.9312 19.5803C97.7531 19.8056 98.469 20.1371 99.0789 20.5746C99.6887 21.0054 100.159 21.5357 100.491 22.1655C100.829 22.7952 100.998 23.5144 100.998 24.3232V34.7038H96.4241V32.576H96.3047C96.033 33.093 95.685 33.5305 95.2607 33.8885C94.8431 34.2465 94.3493 34.5149 93.7792 34.6939C93.2157 34.8729 92.5794 34.9624 91.8701 34.9624ZM93.3715 31.7805C93.8952 31.7805 94.3658 31.6745 94.7834 31.4624C95.2077 31.2502 95.5457 30.9586 95.7976 30.5874C96.0495 30.2095 96.1755 29.772 96.1755 29.2749V27.8232C96.0363 27.8961 95.8672 27.9624 95.6684 28.022C95.4761 28.0817 95.264 28.138 95.032 28.1911C94.8 28.2441 94.5614 28.2905 94.3161 28.3303C94.0708 28.37 93.8355 28.4065 93.6101 28.4396C93.1528 28.5125 92.7617 28.6252 92.4368 28.7777C92.1187 28.9302 91.8734 29.129 91.7011 29.3743C91.5353 29.6129 91.4525 29.898 91.4525 30.2294C91.4525 30.7332 91.6315 31.1177 91.9894 31.3828C92.354 31.648 92.8147 31.7805 93.3715 31.7805Z"
    fill="white" />
  <path
    d="M102.851 34.7038V19.4311H107.713V34.7038H102.851ZM105.287 17.6513C104.604 17.6513 104.018 17.4259 103.527 16.9751C103.037 16.5178 102.791 15.9676 102.791 15.3246C102.791 14.6882 103.037 14.1447 103.527 13.6939C104.018 13.2365 104.604 13.0078 105.287 13.0078C105.976 13.0078 106.563 13.2365 107.047 13.6939C107.537 14.1447 107.783 14.6882 107.783 15.3246C107.783 15.9676 107.537 16.5178 107.047 16.9751C106.563 17.4259 105.976 17.6513 105.287 17.6513Z"
    fill="white" />
  <path
    d="M114.55 25.9936V34.7038H109.688V19.4311H114.312V22.2351H114.481C114.819 21.3004 115.395 20.5679 116.211 20.0376C117.026 19.5007 117.997 19.2322 119.124 19.2322C120.198 19.2322 121.129 19.4742 121.918 19.9581C122.714 20.4354 123.33 21.1049 123.768 21.9666C124.212 22.8217 124.43 23.8227 124.424 24.9695V34.7038H119.562V25.924C119.568 25.0755 119.353 24.4126 118.915 23.9354C118.484 23.4581 117.884 23.2195 117.116 23.2195C116.605 23.2195 116.154 23.3322 115.763 23.5575C115.379 23.7763 115.08 24.0911 114.868 24.5021C114.663 24.9131 114.557 25.4103 114.55 25.9936Z"
    fill="white" />
  <path
    d="M129.168 34.7038L125.19 19.4311H130.073L132.131 29.2152H132.26L134.467 19.4311H139.23L141.497 29.1456H141.627L143.625 19.4311H148.507L144.52 34.7038H139.32L136.933 25.8047H136.764L134.378 34.7038H129.168Z"
    fill="white" />
  <path
    d="M153.644 34.9624C152.67 34.9624 151.805 34.8 151.049 34.4751C150.3 34.1437 149.706 33.6465 149.269 32.9837C148.838 32.3142 148.623 31.4756 148.623 30.468C148.623 29.6196 148.772 28.9036 149.07 28.3203C149.368 27.737 149.779 27.263 150.303 26.8984C150.827 26.5339 151.43 26.2588 152.113 26.0732C152.796 25.8809 153.525 25.7517 154.3 25.6854C155.169 25.6058 155.868 25.523 156.398 25.4368C156.929 25.344 157.313 25.2147 157.552 25.049C157.797 24.8767 157.92 24.6347 157.92 24.3232V24.2734C157.92 23.763 157.744 23.3686 157.393 23.0902C157.041 22.8118 156.567 22.6726 155.971 22.6726C155.328 22.6726 154.811 22.8118 154.42 23.0902C154.028 23.3686 153.78 23.7531 153.674 24.2436L149.189 24.0845C149.322 23.1565 149.663 22.3279 150.214 21.5987C150.77 20.8629 151.533 20.2862 152.501 19.8686C153.475 19.4444 154.645 19.2322 156.01 19.2322C156.985 19.2322 157.883 19.3482 158.705 19.5803C159.527 19.8056 160.243 20.1371 160.853 20.5746C161.463 21.0054 161.933 21.5357 162.265 22.1655C162.603 22.7952 162.772 23.5144 162.772 24.3232V34.7038H158.198V32.576H158.079C157.807 33.093 157.459 33.5305 157.035 33.8885C156.617 34.2465 156.123 34.5149 155.553 34.6939C154.99 34.8729 154.353 34.9624 153.644 34.9624ZM155.145 31.7805C155.669 31.7805 156.14 31.6745 156.557 31.4624C156.982 31.2502 157.32 30.9586 157.572 30.5874C157.823 30.2095 157.949 29.772 157.949 29.2749V27.8232C157.81 27.8961 157.641 27.9624 157.442 28.022C157.25 28.0817 157.038 28.138 156.806 28.1911C156.574 28.2441 156.335 28.2905 156.09 28.3303C155.845 28.37 155.609 28.4065 155.384 28.4396C154.927 28.5125 154.536 28.6252 154.211 28.7777C153.893 28.9302 153.647 29.129 153.475 29.3743C153.309 29.6129 153.226 29.898 153.226 30.2294C153.226 30.7332 153.405 31.1177 153.763 31.3828C154.128 31.648 154.589 31.7805 155.145 31.7805Z"
    fill="white" />
  <path
    d="M178.893 19.4311L173.653 34.7038H168.085L162.855 19.4311H167.976L170.79 29.951H170.949L173.773 19.4311H178.893Z"
    fill="white" />
  <path
    d="M186.285 34.9922C184.687 34.9922 183.308 34.6773 182.148 34.0476C180.995 33.4112 180.107 32.5064 179.484 31.3331C178.867 30.1532 178.559 28.7512 178.559 27.1271C178.559 25.5495 178.87 24.1707 179.493 22.9908C180.117 21.8042 180.995 20.8828 182.128 20.2266C183.262 19.5637 184.598 19.2322 186.136 19.2322C187.223 19.2322 188.217 19.4013 189.118 19.7393C190.02 20.0774 190.799 20.5779 191.455 21.2408C192.111 21.9036 192.622 22.7223 192.986 23.6967C193.351 24.6645 193.533 25.7749 193.533 27.0277V28.2408H180.259V25.4169H189.009C189.002 24.8999 188.88 24.4392 188.641 24.0348C188.403 23.6304 188.074 23.3156 187.657 23.0902C187.246 22.8582 186.772 22.7422 186.235 22.7422C185.691 22.7422 185.204 22.8648 184.773 23.1101C184.342 23.3487 184.001 23.6768 183.749 24.0945C183.497 24.5054 183.365 24.9728 183.351 25.4965V28.37C183.351 28.9931 183.474 29.54 183.719 30.0107C183.965 30.4747 184.313 30.8359 184.763 31.0945C185.214 31.353 185.751 31.4822 186.374 31.4822C186.805 31.4822 187.196 31.4226 187.547 31.3033C187.899 31.184 188.2 31.0083 188.452 30.7763C188.704 30.5443 188.893 30.2592 189.019 29.9212L193.484 30.0504C193.298 31.0514 192.89 31.9231 192.261 32.6655C191.637 33.4013 190.819 33.9747 189.805 34.3857C188.79 34.79 187.617 34.9922 186.285 34.9922Z"
    fill="white" />
</svg>
