<svg width="41" height="41" viewBox="0 0 41 41" fill="none" xmlns="http://www.w3.org/2000/svg">
  <path
    d="M35.8305 12.1185L35.8231 6.90527L26.2029 0.617188V4.63878L32.5484 8.81678L32.5533 12.0192L29.6055 14.0151L27.5944 12.5479V10.063L24.3173 7.82131V12.3444L19.1224 15.5318L19.1126 23.9524L15.4396 26.0203L13.5539 24.5432V22.1054L15.7862 20.5762V20.5564V16.783L11.769 19.4715L8.69832 17.4731L5.89315 19.3102L10.2767 22.3115V24.1535L7.1175 26.2909L3.89438 24.1088V16.8476L8.67865 13.6079L8.68357 10.4924L14.82 14.4445L19.978 11.0113L16.8335 9.17673L14.7758 10.5644L10.2939 7.60036L15.3486 4.65367L19.7272 7.22054V3.39258L15.3535 0.828191L5.41129 6.62475L5.40391 11.8404L0.617188 15.0825V25.8738L5.40391 29.1159L5.41129 34.3316L15.0315 40.6172V36.5981L8.68602 32.4201L8.68111 29.2177L11.6289 27.2218L13.6399 28.6889V31.1739L16.9171 33.4155V28.8925L22.1857 25.705L22.2447 17.2845L25.7948 15.2166L27.6805 16.6936V19.1314L25.4482 20.6606V20.6805V24.4538L29.4654 21.7653L32.5361 23.7637L35.3412 21.9267L30.9577 18.9229V17.0834L34.1169 14.946L37.34 17.1281V24.3893L32.5557 27.6289L32.5508 30.7444L26.4144 26.7898L21.2564 30.2007L24.4008 32.0328L26.4586 30.6724L30.9405 33.6365L25.8858 36.5832L21.5072 34.0163V37.8418L25.8809 40.4062L35.8231 34.6121L35.8305 29.3964L40.6172 26.1543V15.3606L35.8305 12.1185Z"
    fill="#AC6AFF" />
</svg>
